<?xml version="1.0" encoding="UTF-8"?>
<svg width="387px" height="402px" viewBox="0 0 387 402" version="1.1" xmlns="http://www.w3.org/2000/svg" xmlns:xlink="http://www.w3.org/1999/xlink">
    <!-- Generator: Sketch 52.5 (67469) - http://www.bohemiancoding.com/sketch -->
    <title>crater_1</title>
    <desc>Created with Sketch.</desc>
    <defs>
        <path d="M0.248,204.279 C0.159,231.655 28.335,249.771 42.091,272.627 C58.106,299.235 61.377,331.563 86.855,346.953 C96.97,353.063 107.902,357.698 117.155,365.272 C127.376,373.637 135.196,385.312 146.037,392.681 C162.949,404.176 184.594,403.401 203.945,398.301 C223.296,393.2 241.727,384.212 261.303,380.272 C269.422,378.637 277.713,377.877 285.647,375.379 C306.949,368.671 323.829,349.661 333.151,327.634 C342.473,305.606 344.973,280.79 344.562,256.515 C344.47,251.045 344.247,245.473 345.591,240.203 C347.851,231.344 354.164,224.573 359.591,217.553 C373.091,200.09 382.248,178.638 385.825,156.093 C386.867,149.527 387.417,142.602 385.328,136.343 C383.773,131.682 380.865,127.733 377.958,123.927 C349.623,86.839 316.424,54.216 279.699,27.371 C267.202,18.236 254.065,9.656 239.522,5.522 C228.922,2.508 217.888,1.947 206.947,1.4 C193.23,0.715 179.43,0.033 165.809,1.942 C117.615,8.694 78.273,46.374 44.41,84.54 C34.234,96.01 24.122,107.877 17.345,122.044 C9.87,137.669 6.819,155.305 3.86,172.646 C2.074,183.107 0.283,193.637 0.248,204.279" id="path-1"></path>
        <path d="M273.916,161.063 C278.158,158.69 282.834,157.424 287.244,155.453 C300.856,149.373 311.666,136.218 315.76,120.753 C302.307,139.06 279.796,148.838 258.546,145.606 C253.991,114.552 230.873,91.367 209.144,70.807 C202.871,64.871 196.03,58.658 187.78,57.772 C183.363,57.297 178.749,58.399 174.554,56.812 C166.638,53.816 163.955,42.817 164.813,33.691 C165.671,24.565 168.831,15.561 167.731,6.467 C164.072,5.914 160.721,9.033 158.937,12.575 C157.154,16.118 156.403,20.185 154.72,23.785 C149.985,33.911 137.306,38.446 128.028,33.333 C124.387,31.327 121.408,28.161 118.49,25.044 C110.898,16.933 103.306,8.822 95.713,0.71 C101.024,10.784 106.336,20.859 111.647,30.933 C112.231,32.041 112.822,33.165 113.131,34.4 C114.984,41.795 106.796,46.975 100.326,49.905 C86.71,56.07 74.128,64.964 63.39,76.014 C59.505,80.012 55.582,84.467 50.412,85.889 C35.067,90.11 22.419,65.697 6.966,69.412 C15.219,76.195 17.599,89.22 25.905,95.926 C27.884,97.523 30.152,98.714 31.891,100.616 C37.405,106.644 35.418,117.095 31.087,124.188 C26.756,131.28 20.495,137.044 17.539,144.939 C13.187,156.563 16.973,169.931 14.904,182.288 C14.196,186.516 12.808,190.57 11.895,194.75 C8.934,208.291 10.229,224.623 0.578,233.683 C8.92,231.177 19.744,228.613 25.985,227.927 C35.315,226.903 41.236,239.677 48.086,246.692 C70.673,269.821 98.75,286.46 128.783,294.513 C134.588,309.363 135.118,326.601 130.238,341.844 C138.924,331.646 144.212,318.048 144.908,304.122 C164.128,301.004 178.991,283.443 197.805,278.127 C204.198,276.32 211.51,276.17 216.85,280.422 C227.806,289.145 226.283,312.282 239.5,315.527 C233.663,302.726 227.665,288.973 229.243,274.769 C230.63,262.298 237.651,251.571 241.92,239.911 C246.964,226.135 248.141,211.071 251.651,196.736 C255.161,182.4 261.849,167.815 273.916,161.063" id="path-3"></path>
        <radialGradient cx="50%" cy="50%" fx="50%" fy="50%" r="49.7027114%" gradientTransform="translate(0.500000,0.500000),scale(1.000000,0.923924),scale(1.000000,1.095408),translate(-0.500000,-0.500000)" id="radialGradient-5">
            <stop stop-color="#4F4C3E" offset="0%"></stop>
            <stop stop-color="#333329" offset="100%"></stop>
        </radialGradient>
    </defs>
    <g id="Page-1" stroke="none" stroke-width="1" fill="none" fill-rule="evenodd">
        <g id="6-06" transform="translate(-44.000000, -70.000000)">
            <g id="crater_1" transform="translate(44.000000, 70.000000)">
                <g id="Group-5">
                    <mask id="mask-2" fill="white">
                        <use xlink:href="#path-1"></use>
                    </mask>
                    <g id="Clip-4"></g>
                    <path d="M0.248,204.279 C0.159,231.655 28.335,249.771 42.091,272.627 C58.106,299.235 61.377,331.563 86.855,346.953 C96.97,353.063 107.902,357.698 117.155,365.272 C127.376,373.637 135.196,385.312 146.037,392.681 C162.949,404.176 184.594,403.401 203.945,398.301 C223.296,393.2 241.727,384.212 261.303,380.272 C269.422,378.637 277.713,377.877 285.647,375.379 C306.949,368.671 323.829,349.661 333.151,327.634 C342.473,305.606 344.973,280.79 344.562,256.515 C344.47,251.045 344.247,245.473 345.591,240.203 C347.851,231.344 354.164,224.573 359.591,217.553 C373.091,200.09 382.248,178.638 385.825,156.093 C386.867,149.527 387.417,142.602 385.328,136.343 C383.773,131.682 380.865,127.733 377.958,123.927 C349.623,86.839 316.424,54.216 279.699,27.371 C267.202,18.236 254.065,9.656 239.522,5.522 C228.922,2.508 217.888,1.947 206.947,1.4 C193.23,0.715 179.43,0.033 165.809,1.942 C117.615,8.694 78.273,46.374 44.41,84.54 C34.234,96.01 24.122,107.877 17.345,122.044 C9.87,137.669 6.819,155.305 3.86,172.646 C2.074,183.107 0.283,193.637 0.248,204.279" id="Fill-3" fill="#F0EBE6" mask="url(#mask-2)"></path>
                </g>
                <path d="M184.194,60.672 C182.447,59.359 181.24,57.372 179.827,55.643 C174.807,49.5 166.693,46.604 159.333,48.33 C164.216,50.621 164.116,58.944 160.418,63.121 C156.72,67.298 151.106,68.455 145.888,69.544 C140.67,70.634 135.044,72.146 131.741,76.703 C130.394,78.561 129.541,80.804 128.182,82.652 C124.759,87.309 118.884,88.635 114.24,91.775 C108.945,95.357 105.331,101.264 100.475,105.528 C95.619,109.791 88.14,112.112 83.386,107.712 C87.879,121.086 78.912,134.919 75.993,148.807 C75.046,153.313 74.684,158.135 72.379,162.009 C69.53,166.798 64.212,169.258 61.242,173.958 C58.45,178.374 58.143,184.062 57.931,189.428 C57.459,201.364 56.986,213.299 56.514,225.234 C56.148,234.48 56.222,244.982 62.385,251.314 C68.275,257.366 77.793,257.371 83.823,263.256 C88.242,267.57 89.959,274.211 92.968,279.795 C97.89,288.93 106.215,295.124 114.27,301.011 C120.229,305.366 126.188,309.722 132.147,314.077 C142.827,321.884 154.011,329.903 166.744,331.711 C170.511,332.246 174.514,332.277 177.772,334.417 C186.354,340.057 184.197,355.828 192.162,362.465 C202.887,346.162 220.109,336.809 236.634,328.081 C248.665,321.726 262.032,315.211 274.922,319.04 C275.576,324.096 278.38,328.769 282.358,331.431 C280.794,315.328 295.465,303.742 303.132,289.896 C311.211,275.305 311.516,257.342 313.085,240.364 C314.655,223.386 318.59,204.963 331.067,194.744 C336.17,190.565 342.308,188.138 347.511,184.109 C352.714,180.08 357.131,173.522 356.102,166.635 C350.66,170.927 343.142,167.092 337.506,163.111 C321.679,151.929 305.62,138.432 299.537,118.907 C297.979,113.905 297.096,108.553 294.511,104.089 C291.01,98.043 284.923,94.504 279.109,91.232 C260.455,80.733 239.47,69.936 219.308,76.26 C215.826,72.633 212.242,68.847 210.457,63.96 C208.671,59.073 209.208,52.748 212.999,49.514 C207.76,50.865 203.723,55.271 199.254,58.557 C194.785,61.843 188.633,64.007 184.194,60.672" id="Fill-6" fill="#C4C3BC"></path>
                <g id="Group-44" transform="translate(54.000000, 29.000000)">
                    <mask id="mask-4" fill="white">
                        <use xlink:href="#path-3"></use>
                    </mask>
                    <g id="Clip-43"></g>
                    <path d="M273.916,161.063 C278.158,158.69 282.834,157.424 287.244,155.453 C300.856,149.373 311.666,136.218 315.76,120.753 C302.307,139.06 279.796,148.838 258.546,145.606 C253.991,114.552 230.873,91.367 209.144,70.807 C202.871,64.871 196.03,58.658 187.78,57.772 C183.363,57.297 178.749,58.399 174.554,56.812 C166.638,53.816 163.955,42.817 164.813,33.691 C165.671,24.565 168.831,15.561 167.731,6.467 C164.072,5.914 160.721,9.033 158.937,12.575 C157.154,16.118 156.403,20.185 154.72,23.785 C149.985,33.911 137.306,38.446 128.028,33.333 C124.387,31.327 121.408,28.161 118.49,25.044 C110.898,16.933 103.306,8.822 95.713,0.71 C101.024,10.784 106.336,20.859 111.647,30.933 C112.231,32.041 112.822,33.165 113.131,34.4 C114.984,41.795 106.796,46.975 100.326,49.905 C86.71,56.07 74.128,64.964 63.39,76.014 C59.505,80.012 55.582,84.467 50.412,85.889 C35.067,90.11 22.419,65.697 6.966,69.412 C15.219,76.195 17.599,89.22 25.905,95.926 C27.884,97.523 30.152,98.714 31.891,100.616 C37.405,106.644 35.418,117.095 31.087,124.188 C26.756,131.28 20.495,137.044 17.539,144.939 C13.187,156.563 16.973,169.931 14.904,182.288 C14.196,186.516 12.808,190.57 11.895,194.75 C8.934,208.291 10.229,224.623 0.578,233.683 C8.92,231.177 19.744,228.613 25.985,227.927 C35.315,226.903 41.236,239.677 48.086,246.692 C70.673,269.821 98.75,286.46 128.783,294.513 C134.588,309.363 135.118,326.601 130.238,341.844 C138.924,331.646 144.212,318.048 144.908,304.122 C164.128,301.004 178.991,283.443 197.805,278.127 C204.198,276.32 211.51,276.17 216.85,280.422 C227.806,289.145 226.283,312.282 239.5,315.527 C233.663,302.726 227.665,288.973 229.243,274.769 C230.63,262.298 237.651,251.571 241.92,239.911 C246.964,226.135 248.141,211.071 251.651,196.736 C255.161,182.4 261.849,167.815 273.916,161.063" id="Fill-42" fill="url(#radialGradient-5)" mask="url(#mask-4)"></path>
                </g>
            </g>
        </g>
    </g>
</svg>