<?xml version="1.0" encoding="UTF-8"?>
<svg width="378px" height="374px" viewBox="0 0 378 374" version="1.1" xmlns="http://www.w3.org/2000/svg" xmlns:xlink="http://www.w3.org/1999/xlink">
    <!-- Generator: Sketch 52.5 (67469) - http://www.bohemiancoding.com/sketch -->
    <title>crater_5</title>
    <desc>Created with Sketch.</desc>
    <defs>
        <path d="M243.98,1.311 C232.3,-0.513 220.4,0.78 208.73,2.641 C149.35,12.11 92.02,36.477 42.469,73.305 C25.221,86.126 7.976,101.893 2.29,123.755 C-1.18,137.099 0.075,151.296 1.599,165.064 C4.807,194.044 10.318,225.418 30.607,244.53 C33.327,247.092 36.284,249.395 38.633,252.358 C45.406,260.9 45.986,273.183 49.907,283.625 C57.877,304.85 78.539,316.424 97.6,326.224 C120.04,337.765 142.49,349.306 164.94,360.847 C171.44,364.191 178,367.556 184.98,369.42 C192.58,371.448 200.48,371.646 208.3,371.834 C226.04,372.26 243.79,372.687 261.53,373.113 C275.33,373.444 289.26,373.764 302.79,370.817 C337.61,363.234 367.23,332.429 375.75,294.934 C378.26,283.875 379.01,271.927 375.24,261.299 C373.63,256.761 371.22,252.525 370.27,247.771 C368.9,240.863 370.75,233.748 372.21,226.86 C380.5,187.783 375.98,145.639 359.64,109.688 C353.7,96.626 346.29,84.424 338.63,72.474 C331.01,60.598 322.75,48.571 311.12,41.503 C307.73,39.438 304.1,37.833 300.83,35.532 C297.3,33.047 294.29,29.811 291.15,26.769 C277.86,13.876 261.61,4.064 243.98,1.311" id="path-1"></path>
        <path d="M334.7,162.218 C343.8,155.095 356.81,164.799 367.49,161.129 C356.74,155.418 346,149.708 335.25,143.997 C332.05,142.297 328.81,140.561 326.17,137.941 C323.67,135.444 321.83,132.259 319.86,129.235 C311.45,116.322 300.02,105.79 286.97,98.929 C282.04,96.341 276.41,93.759 274.29,88.244 C272.13,82.625 274.51,76.23 274.3,70.137 C274.08,63.727 271.01,57.927 268.55,52.106 C261.76,36.026 259.27,17.802 261.46,0.248 C251.91,10.19 251.98,26.595 252.73,41.002 C252.92,44.575 253.1,48.148 253.29,51.72 C253.58,57.319 253.74,63.428 250.71,67.943 C246.98,73.48 239.64,74.558 233.55,72.908 C227.45,71.258 222.04,67.474 216.22,64.907 C191.98,54.228 164.92,65.594 138.91,68.308 C142.75,72.653 146.53,80.104 142.23,83.897 C140.11,85.767 137.09,85.447 134.37,85.33 C118.61,84.649 104.14,93.906 89.14,99.253 C68.659,106.557 46.693,106.605 25.151,106.584 C16.884,106.575 8.616,106.567 0.349,106.559 C15.093,119.279 34.627,125.117 53.225,122.362 C56.125,121.932 59.341,121.379 61.755,123.189 C63.921,124.814 64.733,127.837 65.395,130.619 C69.162,146.441 72.93,162.263 76.697,178.085 C78.28,184.735 79.209,193.369 73.897,197.026 C70.569,199.317 66.291,198.408 62.361,198.48 C47.587,198.751 36.782,213.241 28.176,226.398 C42.123,222.496 56.071,218.594 70.018,214.692 C79.552,212.025 90.21,209.5 98.77,214.816 C103.69,217.871 107.1,223.079 110.89,227.674 C130.2,251.091 160.92,259.932 180.63,282.944 C181.84,284.356 183.04,285.88 183.54,287.736 C185.82,296.113 173.22,302.876 175.45,311.268 C180.1,310.348 184.36,307.245 186.94,302.9 C190.33,297.179 191.44,288.941 197.21,286.376 C200.62,284.862 204.45,286.006 208.09,286.571 C215.17,287.67 222.36,286.476 229.43,285.283 C241.15,283.305 252.88,281.327 264.6,279.349 C275.72,277.473 286.88,275.584 297.61,271.877 C306.98,268.64 317.38,264.082 326.13,268.98 C329.42,270.825 332.02,273.833 334.56,276.784 C343.88,287.647 353.21,298.511 362.54,309.375 C360.57,301.032 358.6,292.688 356.63,284.345 C355.64,280.132 354.36,275.495 350.95,273.271 C349.51,272.336 347.79,271.913 346.53,270.706 C344.98,269.214 344.45,266.858 343.79,264.715 C339.06,249.548 323.71,238.666 323.94,222.641 C324.06,214.592 328.29,207.27 329.27,199.292 C330.07,192.825 328.71,186.292 328.56,179.768 C328.4,173.243 329.85,166.012 334.7,162.218" id="path-3"></path>
        <radialGradient cx="50.0001089%" cy="50%" fx="50.0001089%" fy="50%" r="52.7589866%" gradientTransform="translate(0.500001,0.500000),scale(0.847140,1.000000),scale(1.000000,1.095404),translate(-0.500001,-0.500000)" id="radialGradient-5">
            <stop stop-color="#4F4C3E" offset="0%"></stop>
            <stop stop-color="#333329" offset="100%"></stop>
        </radialGradient>
    </defs>
    <g id="Page-1" stroke="none" stroke-width="1" fill="none" fill-rule="evenodd">
        <g id="6-06" transform="translate(-908.000000, -494.000000)">
            <g id="crater_5" transform="translate(908.000000, 494.000000)">
                <g id="Group-16">
                    <mask id="mask-2" fill="white">
                        <use xlink:href="#path-1"></use>
                    </mask>
                    <g id="Clip-15"></g>
                    <path d="M243.98,1.311 C232.3,-0.513 220.4,0.78 208.73,2.641 C149.35,12.11 92.02,36.477 42.469,73.305 C25.221,86.126 7.976,101.893 2.29,123.755 C-1.18,137.099 0.075,151.296 1.599,165.064 C4.807,194.044 10.318,225.418 30.607,244.53 C33.327,247.092 36.284,249.395 38.633,252.358 C45.406,260.9 45.986,273.183 49.907,283.625 C57.877,304.85 78.539,316.424 97.6,326.224 C120.04,337.765 142.49,349.306 164.94,360.847 C171.44,364.191 178,367.556 184.98,369.42 C192.58,371.448 200.48,371.646 208.3,371.834 C226.04,372.26 243.79,372.687 261.53,373.113 C275.33,373.444 289.26,373.764 302.79,370.817 C337.61,363.234 367.23,332.429 375.75,294.934 C378.26,283.875 379.01,271.927 375.24,261.299 C373.63,256.761 371.22,252.525 370.27,247.771 C368.9,240.863 370.75,233.748 372.21,226.86 C380.5,187.783 375.98,145.639 359.64,109.688 C353.7,96.626 346.29,84.424 338.63,72.474 C331.01,60.598 322.75,48.571 311.12,41.503 C307.73,39.438 304.1,37.833 300.83,35.532 C297.3,33.047 294.29,29.811 291.15,26.769 C277.86,13.876 261.61,4.064 243.98,1.311" id="Fill-14" fill="#F0EBE6" mask="url(#mask-2)"></path>
                </g>
                <path d="M145.84,305.164 C152.68,309.856 161.21,310.007 169.19,311.321 C177.17,312.636 185.9,316.096 189.19,324.172 C195.08,317.983 204.45,318.992 212.51,320.414 C224.15,322.468 235.79,324.523 247.43,326.577 C252.94,327.551 258.61,328.52 264.07,327.198 C276.04,324.296 285.43,310.793 297.62,312.236 C299.35,312.441 301.09,312.957 302.81,312.637 C304.73,312.28 306.35,310.931 307.96,309.745 C322.07,299.407 342.13,300.027 355.69,311.22 C358.88,299.545 357.56,286.473 352.11,275.848 C347.94,267.73 341.37,260.608 340.29,251.372 C339.17,241.679 344.44,232.559 345.85,222.909 C347.05,214.691 345.4,206.31 345.58,197.989 C345.75,189.669 348.48,180.443 355.31,176.808 C340.75,171.169 339.19,148.659 327.69,137.372 C325.34,135.064 322.58,133.259 320.38,130.779 C316.78,126.731 314.95,121.251 312.55,116.249 C299.95,89.922 270.57,74.565 264.2,45.668 C260.78,52.744 257.36,59.819 253.94,66.894 C252.9,69.054 251.76,71.324 249.83,72.553 C247.32,74.157 244.17,73.575 241.3,73.006 C222.27,69.224 202.79,68.195 183.51,69.955 C172.66,70.946 161.35,73.049 152.71,80.312 C146.89,85.201 142.47,92.28 135.73,95.443 C128.13,99.011 119.09,96.844 111.43,100.245 C106.09,102.613 101.96,107.449 96.79,110.206 C89.547,114.063 80.905,113.539 73.546,117.114 C61.221,123.1 52.59,140.174 39.213,138.344 C39.74,144.196 48.578,142.354 52.561,146.298 C53.933,147.657 54.607,149.646 55.232,151.554 C60.422,167.395 65.612,183.235 70.803,199.076 C72.683,204.815 74.589,210.708 74.513,216.805 C74.437,222.902 71.959,229.344 67.028,232.174 C76.167,233.3 84.88,238.175 91.071,245.625 C101.63,258.332 105.25,278.167 119.05,286.33 C123.22,288.795 127.98,289.922 132.03,292.615 C137.15,296.021 140.76,301.683 145.84,305.164" id="Fill-17" fill="#C4C3BC"></path>
                <g id="Group-34" transform="translate(6.000000, 23.000000)">
                    <mask id="mask-4" fill="white">
                        <use xlink:href="#path-3"></use>
                    </mask>
                    <g id="Clip-33"></g>
                    <path d="M334.7,162.218 C343.8,155.095 356.81,164.799 367.49,161.129 C356.74,155.418 346,149.708 335.25,143.997 C332.05,142.297 328.81,140.561 326.17,137.941 C323.67,135.444 321.83,132.259 319.86,129.235 C311.45,116.322 300.02,105.79 286.97,98.929 C282.04,96.341 276.41,93.759 274.29,88.244 C272.13,82.625 274.51,76.23 274.3,70.137 C274.08,63.727 271.01,57.927 268.55,52.106 C261.76,36.026 259.27,17.802 261.46,0.248 C251.91,10.19 251.98,26.595 252.73,41.002 C252.92,44.575 253.1,48.148 253.29,51.72 C253.58,57.319 253.74,63.428 250.71,67.943 C246.98,73.48 239.64,74.558 233.55,72.908 C227.45,71.258 222.04,67.474 216.22,64.907 C191.98,54.228 164.92,65.594 138.91,68.308 C142.75,72.653 146.53,80.104 142.23,83.897 C140.11,85.767 137.09,85.447 134.37,85.33 C118.61,84.649 104.14,93.906 89.14,99.253 C68.659,106.557 46.693,106.605 25.151,106.584 C16.884,106.575 8.616,106.567 0.349,106.559 C15.093,119.279 34.627,125.117 53.225,122.362 C56.125,121.932 59.341,121.379 61.755,123.189 C63.921,124.814 64.733,127.837 65.395,130.619 C69.162,146.441 72.93,162.263 76.697,178.085 C78.28,184.735 79.209,193.369 73.897,197.026 C70.569,199.317 66.291,198.408 62.361,198.48 C47.587,198.751 36.782,213.241 28.176,226.398 C42.123,222.496 56.071,218.594 70.018,214.692 C79.552,212.025 90.21,209.5 98.77,214.816 C103.69,217.871 107.1,223.079 110.89,227.674 C130.2,251.091 160.92,259.932 180.63,282.944 C181.84,284.356 183.04,285.88 183.54,287.736 C185.82,296.113 173.22,302.876 175.45,311.268 C180.1,310.348 184.36,307.245 186.94,302.9 C190.33,297.179 191.44,288.941 197.21,286.376 C200.62,284.862 204.45,286.006 208.09,286.571 C215.17,287.67 222.36,286.476 229.43,285.283 C241.15,283.305 252.88,281.327 264.6,279.349 C275.72,277.473 286.88,275.584 297.61,271.877 C306.98,268.64 317.38,264.082 326.13,268.98 C329.42,270.825 332.02,273.833 334.56,276.784 C343.88,287.647 353.21,298.511 362.54,309.375 C360.57,301.032 358.6,292.688 356.63,284.345 C355.64,280.132 354.36,275.495 350.95,273.271 C349.51,272.336 347.79,271.913 346.53,270.706 C344.98,269.214 344.45,266.858 343.79,264.715 C339.06,249.548 323.71,238.666 323.94,222.641 C324.06,214.592 328.29,207.27 329.27,199.292 C330.07,192.825 328.71,186.292 328.56,179.768 C328.4,173.243 329.85,166.012 334.7,162.218" id="Fill-32" fill="url(#radialGradient-5)" mask="url(#mask-4)"></path>
                </g>
            </g>
        </g>
    </g>
</svg>