<?xml version="1.0" encoding="UTF-8"?>
<svg width="331px" height="391px" viewBox="0 0 331 391" version="1.1" xmlns="http://www.w3.org/2000/svg" xmlns:xlink="http://www.w3.org/1999/xlink">
    <!-- Generator: Sketch 52.5 (67469) - http://www.bohemiancoding.com/sketch -->
    <title>crater_3</title>
    <desc>Created with Sketch.</desc>
    <defs>
        <path d="M2.885,185.32 C-1.2,200.871 1.58,217.814 7.592,232.596 C13.603,247.378 22.651,260.389 31.617,273.25 C38.141,282.608 44.665,291.967 51.189,301.325 C57.814,310.829 64.58,320.484 73.474,327.419 C90.3,340.538 113.764,343.208 126.905,360.662 C131.946,367.357 135.023,375.778 140.82,381.695 C153.34,394.474 173.133,391.192 189.743,386.683 C202.3,383.274 215.018,379.536 226.011,372.065 C235.763,365.438 243.736,356.158 251.587,346.989 C267.542,328.356 283.496,309.723 299.45,291.09 C304.439,285.263 309.483,279.354 312.987,272.348 C324.776,248.769 316.63,219.523 320.092,192.909 C323.282,168.38 336.494,144.067 330.016,120.329 C325.983,105.549 314.865,94.317 302.885,86.21 C290.905,78.103 277.676,72.363 265.832,64.019 C248.935,52.116 234.869,34.953 216.081,27.16 C200.177,20.563 181.929,21.193 167.217,11.848 C164.038,9.83 161.096,7.381 157.872,5.451 C142.911,-3.507 123.964,0.028 108.874,8.724 C93.784,17.419 81.363,30.643 67.852,42.036 C54.582,53.225 40.09,62.781 28.016,75.492 C15.943,88.204 6.221,104.991 5.961,123.333 C5.76,137.463 11.151,151.544 8.798,165.44 C7.636,172.3 4.646,178.615 2.885,185.32" id="path-1"></path>
        <path d="M37.584,240.856 C41.181,238.143 45.188,235.468 49.55,235.701 C56.451,236.069 61.075,243.216 66.049,248.469 C72.353,255.128 80.421,259.345 88.337,263.449 C100.652,269.834 112.968,276.219 125.284,282.604 C128.273,284.154 131.36,285.785 133.481,288.565 C135.222,290.847 136.165,293.72 136.977,296.559 C143.008,317.649 143.558,340.585 138.546,361.993 C148.962,354.704 150.416,339.014 151.219,325.503 C152.023,311.992 154.714,296.11 165.939,290.443 C178.489,284.107 194.04,294.849 206.768,288.954 C213.796,285.699 218.218,278.115 224.173,272.887 C229.785,267.96 236.72,265.176 242.577,260.602 C248.433,256.029 253.401,248.525 252.011,240.795 C251.634,238.698 250.8,236.656 250.918,234.522 C251.221,229.066 257.619,226.334 262.433,227.772 C267.248,229.21 271.004,233.212 275.232,236.116 C279.459,239.021 285.218,240.754 289.255,237.542 C284.341,233.834 279.427,230.126 274.513,226.417 C266.487,220.361 257.727,214.054 247.985,214.353 C246.358,214.402 244.593,214.603 243.231,213.626 C242.226,212.905 241.638,211.66 241.257,210.412 C236.898,196.156 253.728,184.905 256.945,170.29 C258.759,162.05 256.014,153.553 254.186,145.317 C252.357,137.081 251.721,127.445 256.789,121.04 C264.786,110.933 281.581,115.226 289.706,105.242 C278.359,109.348 265.44,104.457 254.23,108.988 C251.529,110.08 248.912,111.72 246.033,111.792 C243.425,111.858 240.952,110.62 238.609,109.36 C217.771,98.152 198.106,82.899 175.232,78.563 C165.273,76.675 152.718,75.132 149.473,64.646 C148.418,61.241 148.685,57.53 148.148,53.982 C145.518,36.639 125.701,28.961 119.209,12.883 C116.986,7.378 114.614,-0.374 109.156,0.33 C114.106,17.156 119.056,33.983 124.005,50.81 C125.791,56.88 126.751,65.271 121.503,68.031 C119.612,69.025 117.414,68.887 115.316,68.896 C90.218,69 70.922,92.01 54.177,112.489 C51.928,115.239 49.357,118.156 46.007,118.563 C43.361,118.884 40.813,117.552 38.395,116.333 C26.259,110.215 13.266,106.144 0.013,104.306 C11.906,113.942 23.176,124.5 33.712,135.875 C38.849,141.421 44.103,147.85 44.592,155.733 C44.944,161.407 42.731,166.885 42.238,172.546 C40.949,187.358 51.128,203.711 43.605,216.1 C41.184,220.087 37.328,222.687 33.969,225.752 C25.37,233.595 19.701,245.184 18.501,257.37 C24.523,251.416 30.902,245.895 37.584,240.856" id="path-3"></path>
        <radialGradient cx="49.9998274%" cy="49.9999395%" fx="49.9998274%" fy="49.9999395%" r="53.6102011%" gradientTransform="translate(0.499998,0.499999),scale(1.000000,0.800903),scale(1.000000,1.095406),translate(-0.499998,-0.499999)" id="radialGradient-5">
            <stop stop-color="#4F4C3E" offset="0%"></stop>
            <stop stop-color="#333329" offset="100%"></stop>
        </radialGradient>
    </defs>
    <g id="Page-1" stroke="none" stroke-width="1" fill="none" fill-rule="evenodd">
        <g id="6-06" transform="translate(-108.000000, -519.000000)">
            <g id="crater_3" transform="translate(107.000000, 519.000000)">
                <g id="Group-20">
                    <mask id="mask-2" fill="white">
                        <use xlink:href="#path-1"></use>
                    </mask>
                    <g id="Clip-19"></g>
                    <path d="M2.885,185.32 C-1.2,200.871 1.58,217.814 7.592,232.596 C13.603,247.378 22.651,260.389 31.617,273.25 C38.141,282.608 44.665,291.967 51.189,301.325 C57.814,310.829 64.58,320.484 73.474,327.419 C90.3,340.538 113.764,343.208 126.905,360.662 C131.946,367.357 135.023,375.778 140.82,381.695 C153.34,394.474 173.133,391.192 189.743,386.683 C202.3,383.274 215.018,379.536 226.011,372.065 C235.763,365.438 243.736,356.158 251.587,346.989 C267.542,328.356 283.496,309.723 299.45,291.09 C304.439,285.263 309.483,279.354 312.987,272.348 C324.776,248.769 316.63,219.523 320.092,192.909 C323.282,168.38 336.494,144.067 330.016,120.329 C325.983,105.549 314.865,94.317 302.885,86.21 C290.905,78.103 277.676,72.363 265.832,64.019 C248.935,52.116 234.869,34.953 216.081,27.16 C200.177,20.563 181.929,21.193 167.217,11.848 C164.038,9.83 161.096,7.381 157.872,5.451 C142.911,-3.507 123.964,0.028 108.874,8.724 C93.784,17.419 81.363,30.643 67.852,42.036 C54.582,53.225 40.09,62.781 28.016,75.492 C15.943,88.204 6.221,104.991 5.961,123.333 C5.76,137.463 11.151,151.544 8.798,165.44 C7.636,172.3 4.646,178.615 2.885,185.32" id="Fill-18" fill="#F0EBE6" mask="url(#mask-2)"></path>
                </g>
                <path d="M52.14,187.846 C52.178,192.793 50.592,197.69 51.079,202.608 C51.647,208.336 54.922,213.256 56.729,218.667 C61.269,232.258 56.241,247.214 51.264,260.62 C59.869,258.591 68.88,262.256 76.038,267.869 C84.213,274.279 90.711,283.403 93.784,293.889 C99.379,289.913 106.937,292.724 112.423,296.879 C117.91,301.034 122.834,306.559 129.29,308.394 C133.329,309.542 137.677,309.134 141.607,310.668 C147.451,312.95 151.242,319.005 154.629,324.699 C160.776,335.035 167.115,345.975 167.866,358.283 C164.119,339.344 180.79,319.161 198.368,321.358 C206.229,322.34 213.835,326.958 221.634,325.501 C226.725,324.55 231.097,321.121 235.269,317.787 C246.698,308.656 258.127,299.523 269.555,290.391 C277.597,283.965 286.302,276.384 287.721,265.591 C288.058,263.026 287.99,260.261 289.263,258.076 C292.224,252.992 299.304,254.905 304.315,257.404 C301.963,245.114 287.358,241.29 280.686,231.078 C276.456,224.606 275.911,215.479 279.335,208.459 C282.76,201.438 289.989,196.861 297.251,197.114 C293.192,193.35 289.063,188.332 289.722,182.551 C289.988,180.216 291.031,178.067 291.43,175.755 C292.382,170.226 289.589,164.866 288.224,159.442 C284.978,146.552 290.775,131.619 301.501,125.237 C288.904,117.59 270.692,120.754 262.106,108.087 C259.066,103.603 257.692,97.55 253.446,94.457 C244.389,87.86 230.596,99.931 221.884,92.797 C218.731,90.215 217.31,85.743 214.345,82.904 C209.227,78.002 201.427,79.37 194.882,77.355 C184.655,74.206 178.474,63.263 171.105,54.883 C161.238,43.662 148.289,36.424 135.599,29.391 C136.405,39.983 137.211,50.575 138.017,61.168 C138.222,63.865 138.416,66.663 137.561,69.202 C135.519,75.273 128.723,77.248 122.906,78.371 C111.434,80.586 99.962,82.801 88.49,85.017 C90.683,86.845 92.876,88.675 95.07,90.503 C93.424,98.367 82.695,97.901 77.288,103.377 C74.221,106.483 73.186,111.232 71.404,115.37 C65.417,129.266 48.825,136.336 35.839,130.523 C42.227,133.434 45.624,141.222 46.778,148.694 C47.932,156.167 47.429,163.882 48.868,171.294 C49.942,176.832 52.095,182.186 52.14,187.846" id="Fill-21" fill="#C4C3BC"></path>
                <g id="Group-31" transform="translate(22.000000, 17.000000)">
                    <mask id="mask-4" fill="white">
                        <use xlink:href="#path-3"></use>
                    </mask>
                    <g id="Clip-30"></g>
                    <path d="M37.584,240.856 C41.181,238.143 45.188,235.468 49.55,235.701 C56.451,236.069 61.075,243.216 66.049,248.469 C72.353,255.128 80.421,259.345 88.337,263.449 C100.652,269.834 112.968,276.219 125.284,282.604 C128.273,284.154 131.36,285.785 133.481,288.565 C135.222,290.847 136.165,293.72 136.977,296.559 C143.008,317.649 143.558,340.585 138.546,361.993 C148.962,354.704 150.416,339.014 151.219,325.503 C152.023,311.992 154.714,296.11 165.939,290.443 C178.489,284.107 194.04,294.849 206.768,288.954 C213.796,285.699 218.218,278.115 224.173,272.887 C229.785,267.96 236.72,265.176 242.577,260.602 C248.433,256.029 253.401,248.525 252.011,240.795 C251.634,238.698 250.8,236.656 250.918,234.522 C251.221,229.066 257.619,226.334 262.433,227.772 C267.248,229.21 271.004,233.212 275.232,236.116 C279.459,239.021 285.218,240.754 289.255,237.542 C284.341,233.834 279.427,230.126 274.513,226.417 C266.487,220.361 257.727,214.054 247.985,214.353 C246.358,214.402 244.593,214.603 243.231,213.626 C242.226,212.905 241.638,211.66 241.257,210.412 C236.898,196.156 253.728,184.905 256.945,170.29 C258.759,162.05 256.014,153.553 254.186,145.317 C252.357,137.081 251.721,127.445 256.789,121.04 C264.786,110.933 281.581,115.226 289.706,105.242 C278.359,109.348 265.44,104.457 254.23,108.988 C251.529,110.08 248.912,111.72 246.033,111.792 C243.425,111.858 240.952,110.62 238.609,109.36 C217.771,98.152 198.106,82.899 175.232,78.563 C165.273,76.675 152.718,75.132 149.473,64.646 C148.418,61.241 148.685,57.53 148.148,53.982 C145.518,36.639 125.701,28.961 119.209,12.883 C116.986,7.378 114.614,-0.374 109.156,0.33 C114.106,17.156 119.056,33.983 124.005,50.81 C125.791,56.88 126.751,65.271 121.503,68.031 C119.612,69.025 117.414,68.887 115.316,68.896 C90.218,69 70.922,92.01 54.177,112.489 C51.928,115.239 49.357,118.156 46.007,118.563 C43.361,118.884 40.813,117.552 38.395,116.333 C26.259,110.215 13.266,106.144 0.013,104.306 C11.906,113.942 23.176,124.5 33.712,135.875 C38.849,141.421 44.103,147.85 44.592,155.733 C44.944,161.407 42.731,166.885 42.238,172.546 C40.949,187.358 51.128,203.711 43.605,216.1 C41.184,220.087 37.328,222.687 33.969,225.752 C25.37,233.595 19.701,245.184 18.501,257.37 C24.523,251.416 30.902,245.895 37.584,240.856" id="Fill-29" fill="url(#radialGradient-5)" mask="url(#mask-4)"></path>
                </g>
            </g>
        </g>
    </g>
</svg>