<?xml version="1.0" encoding="UTF-8"?>
<svg width="362px" height="385px" viewBox="0 0 362 385" version="1.1" xmlns="http://www.w3.org/2000/svg" xmlns:xlink="http://www.w3.org/1999/xlink">
    <!-- Generator: Sketch 52.5 (67469) - http://www.bohemiancoding.com/sketch -->
    <title>crater_4</title>
    <desc>Created with Sketch.</desc>
    <defs>
        <path d="M113.141,368.868 C119.599,373.383 125.79,378.608 133.04,381.323 C139.661,383.804 146.783,384.041 153.778,384.254 C172.795,384.833 192.459,385.29 210.064,377.392 C228.447,369.145 242.815,352.537 260.964,343.688 C267.694,340.407 274.832,338.252 281.698,335.329 C301.4,326.941 318.366,312.484 335.019,298.225 C339.461,294.422 343.932,290.588 347.639,285.935 C360.206,270.163 362.224,247.534 361.856,226.603 C361.509,206.855 359.545,187.02 354.327,168.114 C341.664,122.232 311.093,85.326 281.419,50.098 C272.948,40.042 263.965,29.611 252.139,25.203 C245.013,22.547 237.364,22.291 229.896,21.255 C205.004,17.803 181.664,5.562 156.773,2.104 C145.82,0.582 134.735,0.788 123.696,0.996 C95.863,1.521 65.184,3.265 45.072,24.347 C36.248,33.596 30.45,45.698 24.948,57.642 C16.349,76.306 7.987,95.495 4.951,116.136 C2.024,136.032 4.178,156.352 3.895,176.502 C3.593,197.997 0.509,219.367 0.381,240.865 C0.253,262.362 3.372,284.663 14.252,302.554 C25.098,320.389 42.533,332.073 60.254,341.149 C77.976,350.226 96.649,357.341 113.141,368.868" id="path-1"></path>
        <path d="M215.314,102.064 C208.882,96.89 211.988,85.863 215.681,78.114 C222.304,64.219 228.927,50.323 235.55,36.428 C218.829,36.103 206.176,53.484 189.902,57.702 C188.207,58.142 186.28,58.39 184.844,57.309 C183.75,56.486 183.186,55.067 182.716,53.708 C176.781,36.554 176.683,16.024 165.051,2.825 C167.596,21.928 164.987,41.819 157.636,59.365 C155.998,63.273 153.97,67.259 150.588,69.444 C144.955,73.085 137.769,70.532 131.856,67.47 C112.52,57.456 95.547,42.81 78.76,28.292 C68.206,19.165 57.651,10.037 47.097,0.909 C55.211,33.622 65.89,65.571 78.977,96.29 C81.217,101.55 83.578,107.455 81.883,112.955 C79.146,121.84 68.431,123.323 59.87,123.233 C45.505,123.082 31.141,122.931 16.776,122.781 C25.407,130.136 35.969,134.155 45.442,140.138 C54.915,146.12 63.884,155.194 65.419,167.053 C67.153,180.449 59.077,192.749 51.441,203.383 C34.482,227.002 17.523,250.622 0.563,274.241 C18.257,266.881 35.951,259.521 53.645,252.161 C60.469,249.322 67.812,246.44 74.907,248.318 C82.002,250.197 87.97,259.073 84.687,266.214 C93.377,261.09 102.067,255.967 110.757,250.844 C113.332,249.325 116.057,247.765 118.981,247.832 C125.246,247.976 129.196,255.11 131.624,261.438 C141.765,287.871 146.853,316.615 146.467,345.284 C153.2,308.028 173.675,275.779 193.662,244.745 C197.712,238.458 202.074,231.882 208.501,228.779 C220.809,222.836 234.959,232.11 243.62,243.381 C252.282,254.653 258.621,268.55 269.835,276.685 C267.888,264.226 265.94,251.767 263.992,239.309 C263.464,235.93 262.941,232.422 263.766,229.116 C265.758,221.14 274.343,217.838 281.802,216.561 C293.773,214.511 306.03,214.486 318.008,216.487 C313.121,209.687 307.253,203.733 300.689,198.916 C287.432,189.184 270.958,183.648 261.361,169.68 C251.942,155.97 251.841,135.466 261.126,121.646 C267.563,112.066 277.718,105.818 283.179,95.536 C264.733,98.265 246.287,100.994 227.842,103.723 C223.562,104.356 218.795,104.864 215.314,102.064" id="path-3"></path>
        <radialGradient cx="50.0001575%" cy="49.9998548%" fx="50.0001575%" fy="49.9998548%" r="49.7591709%" gradientTransform="translate(0.500002,0.499999),scale(1.000000,0.921800),scale(1.000000,1.095411),translate(-0.500002,-0.499999)" id="radialGradient-5">
            <stop stop-color="#4F4C3E" offset="0%"></stop>
            <stop stop-color="#333329" offset="100%"></stop>
        </radialGradient>
    </defs>
    <g id="Page-1" stroke="none" stroke-width="1" fill="none" fill-rule="evenodd">
        <g id="6-06" transform="translate(-501.000000, -518.000000)">
            <g id="crater_4" transform="translate(501.000000, 518.000000)">
                <g id="Group-9">
                    <mask id="mask-2" fill="white">
                        <use xlink:href="#path-1"></use>
                    </mask>
                    <g id="Clip-8"></g>
                    <path d="M113.141,368.868 C119.599,373.383 125.79,378.608 133.04,381.323 C139.661,383.804 146.783,384.041 153.778,384.254 C172.795,384.833 192.459,385.29 210.064,377.392 C228.447,369.145 242.815,352.537 260.964,343.688 C267.694,340.407 274.832,338.252 281.698,335.329 C301.4,326.941 318.366,312.484 335.019,298.225 C339.461,294.422 343.932,290.588 347.639,285.935 C360.206,270.163 362.224,247.534 361.856,226.603 C361.509,206.855 359.545,187.02 354.327,168.114 C341.664,122.232 311.093,85.326 281.419,50.098 C272.948,40.042 263.965,29.611 252.139,25.203 C245.013,22.547 237.364,22.291 229.896,21.255 C205.004,17.803 181.664,5.562 156.773,2.104 C145.82,0.582 134.735,0.788 123.696,0.996 C95.863,1.521 65.184,3.265 45.072,24.347 C36.248,33.596 30.45,45.698 24.948,57.642 C16.349,76.306 7.987,95.495 4.951,116.136 C2.024,136.032 4.178,156.352 3.895,176.502 C3.593,197.997 0.509,219.367 0.381,240.865 C0.253,262.362 3.372,284.663 14.252,302.554 C25.098,320.389 42.533,332.073 60.254,341.149 C77.976,350.226 96.649,357.341 113.141,368.868" id="Fill-7" fill="#F0EBE6" mask="url(#mask-2)"></path>
                </g>
                <path d="M208.094,55.817 C203.774,47.182 199.454,38.547 195.133,29.912 C194.366,38.397 193.547,47.087 190.148,54.758 C186.749,62.428 180.181,68.997 172.41,69.506 C163.934,70.06 156.594,63.646 148.747,60.09 C138.968,55.659 127.8,55.56 118.348,50.346 C113.879,47.88 109.978,44.365 105.882,41.216 C97.837,35.031 88.929,30.196 79.564,26.932 C90.308,54.43 97.57,83.557 101.076,113.22 C101.397,115.931 101.671,118.785 100.727,121.316 C99.057,125.794 94.277,127.691 89.966,128.741 C75.507,132.262 59.498,132.281 47.692,142.08 C57.688,151.91 67.091,162.465 75.819,173.651 C79.027,177.764 82.232,182.147 83.438,187.393 C85.894,198.078 79.551,208.533 73.894,217.644 C60.562,239.111 49.294,262.115 40.335,286.152 C63.483,271.916 95.227,277.303 113.358,298.543 C122.389,288.521 134.347,278.573 146.865,281.78 C159.095,284.913 165.843,299.127 169.75,312.203 C173.253,323.929 175.781,336.005 177.292,348.232 C194.506,321.565 211.721,294.898 228.936,268.23 C230.733,265.448 232.604,262.586 235.262,260.813 C237.64,259.226 240.469,258.643 243.249,258.462 C263.552,257.142 280.124,275.053 293.771,291.573 C292.286,278.877 291.473,264.017 300.086,255.368 C303.115,252.326 306.969,250.495 310.745,248.719 C321.821,243.508 332.896,238.296 343.972,233.085 C317.383,223.814 297.557,194.916 296.822,164.361 C296.428,147.982 300.968,131.999 305.46,116.37 C286.106,118.396 266.281,114.737 248.602,105.874 C251.937,88.359 253.762,70.499 254.045,52.609 C246.043,56.584 238.041,60.559 230.04,64.534 C226.299,66.393 222.188,68.294 218.208,67.179 C213.388,65.828 210.486,60.597 208.094,55.817" id="Fill-10" fill="#C4C3BC"></path>
                <g id="Group-41" transform="translate(27.000000, 18.000000)">
                    <mask id="mask-4" fill="white">
                        <use xlink:href="#path-3"></use>
                    </mask>
                    <g id="Clip-40"></g>
                    <path d="M215.314,102.064 C208.882,96.89 211.988,85.863 215.681,78.114 C222.304,64.219 228.927,50.323 235.55,36.428 C218.829,36.103 206.176,53.484 189.902,57.702 C188.207,58.142 186.28,58.39 184.844,57.309 C183.75,56.486 183.186,55.067 182.716,53.708 C176.781,36.554 176.683,16.024 165.051,2.825 C167.596,21.928 164.987,41.819 157.636,59.365 C155.998,63.273 153.97,67.259 150.588,69.444 C144.955,73.085 137.769,70.532 131.856,67.47 C112.52,57.456 95.547,42.81 78.76,28.292 C68.206,19.165 57.651,10.037 47.097,0.909 C55.211,33.622 65.89,65.571 78.977,96.29 C81.217,101.55 83.578,107.455 81.883,112.955 C79.146,121.84 68.431,123.323 59.87,123.233 C45.505,123.082 31.141,122.931 16.776,122.781 C25.407,130.136 35.969,134.155 45.442,140.138 C54.915,146.12 63.884,155.194 65.419,167.053 C67.153,180.449 59.077,192.749 51.441,203.383 C34.482,227.002 17.523,250.622 0.563,274.241 C18.257,266.881 35.951,259.521 53.645,252.161 C60.469,249.322 67.812,246.44 74.907,248.318 C82.002,250.197 87.97,259.073 84.687,266.214 C93.377,261.09 102.067,255.967 110.757,250.844 C113.332,249.325 116.057,247.765 118.981,247.832 C125.246,247.976 129.196,255.11 131.624,261.438 C141.765,287.871 146.853,316.615 146.467,345.284 C153.2,308.028 173.675,275.779 193.662,244.745 C197.712,238.458 202.074,231.882 208.501,228.779 C220.809,222.836 234.959,232.11 243.62,243.381 C252.282,254.653 258.621,268.55 269.835,276.685 C267.888,264.226 265.94,251.767 263.992,239.309 C263.464,235.93 262.941,232.422 263.766,229.116 C265.758,221.14 274.343,217.838 281.802,216.561 C293.773,214.511 306.03,214.486 318.008,216.487 C313.121,209.687 307.253,203.733 300.689,198.916 C287.432,189.184 270.958,183.648 261.361,169.68 C251.942,155.97 251.841,135.466 261.126,121.646 C267.563,112.066 277.718,105.818 283.179,95.536 C264.733,98.265 246.287,100.994 227.842,103.723 C223.562,104.356 218.795,104.864 215.314,102.064" id="Fill-39" fill="url(#radialGradient-5)" mask="url(#mask-4)"></path>
                </g>
            </g>
        </g>
    </g>
</svg>