<?xml version="1.0" encoding="UTF-8"?>
<svg width="424px" height="415px" viewBox="0 0 424 415" version="1.1" xmlns="http://www.w3.org/2000/svg" xmlns:xlink="http://www.w3.org/1999/xlink">
    <!-- Generator: Sketch 52.5 (67469) - http://www.bohemiancoding.com/sketch -->
    <title>crater_2</title>
    <desc>Created with Sketch.</desc>
    <defs>
        <path d="M66.694,354.241 C91.298,375.798 126.279,373.826 156.033,385.174 C175.711,392.679 193.342,406.184 213.566,411.675 C242.016,419.399 271.772,410.411 299.925,401.478 C319.515,395.263 339.104,389.048 358.693,382.833 C366.884,380.234 375.171,377.591 382.536,372.884 C401.742,360.61 411.639,336.568 419.023,313.594 C420.632,308.587 422.196,303.455 422.278,298.147 C422.383,291.412 420.103,284.931 419.175,278.272 C416.712,260.584 423.852,242.937 423.815,225.045 C423.784,210.421 418.984,196.398 415.686,182.227 C408.066,149.481 408.24,114.496 396.399,83.29 C383.278,48.709 355.203,21.364 322.317,11.132 C311.995,7.921 301.321,6.324 290.69,4.736 C271.353,1.849 251.832,-1.045 232.383,0.709 C204.588,3.215 178.305,15.06 152.543,26.763 C140.338,32.308 127.807,38.084 118.391,48.239 C111.352,55.832 106.428,65.498 99.535,73.251 C82.524,92.384 56.001,97.465 37.193,114.461 C24.915,125.556 16.66,141.101 10.243,157.057 C5.253,169.466 1.174,182.545 0.546,196.086 C-0.488,218.361 7.801,239.739 15.926,260.189 C24.657,282.163 33.423,304.212 44.726,324.731 C50.745,335.656 57.598,346.27 66.694,354.241" id="path-1"></path>
        <path d="M42.344,154.783 C37.137,158.296 31.929,161.81 26.722,165.323 C33.259,172.883 39.796,180.443 46.334,188.003 C34.307,199.141 13.037,186.144 1.17,197.484 C22.075,194.497 42.278,218.242 38.089,240.875 C46.047,238.458 54.005,236.042 61.963,233.625 C66.599,241.236 72.864,247.647 80.11,252.197 C72.262,266.791 64.413,281.384 56.565,295.978 C69.863,290.698 82.288,282.791 93.062,272.751 C118.679,281.604 144.725,288.963 171.054,294.787 C165.307,306.761 161.61,319.91 160.213,333.351 C157.403,334.933 154.452,336.654 152.812,339.612 C151.172,342.57 151.529,347.139 154.353,348.692 C165.504,337.74 174.507,324.177 180.581,309.181 C209.297,301.11 241.856,312.935 260.481,338.199 C260.091,334.362 259.701,330.524 259.311,326.687 C274.431,328.321 288.648,311.185 285.721,294.854 C305.929,296.356 326.136,297.859 346.343,299.361 C340.753,296.293 335.163,293.225 329.572,290.157 C327.876,289.226 326.076,288.189 325.177,286.358 C323.95,283.862 324.795,280.81 325.584,278.111 C332.126,255.723 333.201,231.448 328.668,208.472 C337.365,208.255 346.016,206.039 353.897,202.008 C342.286,196.191 330.046,191.884 317.514,189.204 C318.499,180.533 312.733,172.907 309.958,164.716 C307.183,156.525 310.437,143.984 318.369,144.908 C310.304,135.041 307.099,120.67 310.101,107.84 C316.901,104.333 322.614,98.349 326.114,91.064 C317.795,92.486 309.476,93.908 301.156,95.331 C294.163,82.308 283.197,71.896 270.436,66.163 C274.602,50.516 276.383,34.11 275.681,17.83 C271.959,28.229 268.237,38.629 264.515,49.029 C251.178,44.213 237.84,39.398 224.503,34.582 C228.299,23.726 227.745,11.138 223.013,0.733 C217.892,17.817 212.771,34.902 207.65,51.986 C187.524,40.309 161.222,42.872 143.294,58.256 C138.882,42.331 134.471,26.406 130.059,10.48 C126.705,23.054 124.554,36.013 123.651,49.075 C115.854,45.941 107.022,46.011 99.266,49.268 C101.263,61.056 103.26,72.844 105.257,84.632 C96.183,90.264 87.11,95.897 78.036,101.529 C65.77,109.143 51.075,116.938 38.227,110.58 C38.142,118.153 38.057,125.726 37.973,133.298 C25.488,130.783 12.697,130.102 0.048,131.279 C15.013,137.019 29.276,144.946 42.344,154.783" id="path-3"></path>
        <radialGradient cx="50.0001413%" cy="49.9998563%" fx="50.0001413%" fy="49.9998563%" r="48.3157498%" gradientTransform="translate(0.500001,0.499999),scale(0.983354,1.000000),scale(1.000000,1.095409),translate(-0.500001,-0.499999)" id="radialGradient-5">
            <stop stop-color="#4F4C3E" offset="0%"></stop>
            <stop stop-color="#333329" offset="100%"></stop>
        </radialGradient>
    </defs>
    <g id="Page-1" stroke="none" stroke-width="1" fill="none" fill-rule="evenodd">
        <g id="6-06" transform="translate(-470.000000, -78.000000)">
            <g id="crater_2" transform="translate(470.000000, 78.000000)">
                <g id="Group-24">
                    <mask id="mask-2" fill="white">
                        <use xlink:href="#path-1"></use>
                    </mask>
                    <g id="Clip-23"></g>
                    <path d="M66.694,354.241 C91.298,375.798 126.279,373.826 156.033,385.174 C175.711,392.679 193.342,406.184 213.566,411.675 C242.016,419.399 271.772,410.411 299.925,401.478 C319.515,395.263 339.104,389.048 358.693,382.833 C366.884,380.234 375.171,377.591 382.536,372.884 C401.742,360.61 411.639,336.568 419.023,313.594 C420.632,308.587 422.196,303.455 422.278,298.147 C422.383,291.412 420.103,284.931 419.175,278.272 C416.712,260.584 423.852,242.937 423.815,225.045 C423.784,210.421 418.984,196.398 415.686,182.227 C408.066,149.481 408.24,114.496 396.399,83.29 C383.278,48.709 355.203,21.364 322.317,11.132 C311.995,7.921 301.321,6.324 290.69,4.736 C271.353,1.849 251.832,-1.045 232.383,0.709 C204.588,3.215 178.305,15.06 152.543,26.763 C140.338,32.308 127.807,38.084 118.391,48.239 C111.352,55.832 106.428,65.498 99.535,73.251 C82.524,92.384 56.001,97.465 37.193,114.461 C24.915,125.556 16.66,141.101 10.243,157.057 C5.253,169.466 1.174,182.545 0.546,196.086 C-0.488,218.361 7.801,239.739 15.926,260.189 C24.657,282.163 33.423,304.212 44.726,324.731 C50.745,335.656 57.598,346.27 66.694,354.241" id="Fill-22" fill="#F0EBE6" mask="url(#mask-2)"></path>
                </g>
                <path d="M408.927,333.317 C396.648,335.792 384.192,338.277 371.752,337.119 C360.246,336.047 348.908,331.869 337.403,332.957 C337.517,346.827 323.519,354.913 311.663,359.785 C310.68,365.382 309.696,370.978 308.713,376.575 C286.854,354.26 257.248,341.283 227.37,340.921 C229.324,365.122 208.826,388.498 186.671,387.333 C188.726,366.81 192.447,346.486 197.773,326.68 C177.911,327.552 157.847,321.808 140.914,310.402 C128.877,328.006 107.708,337.538 87.849,334.296 C94.436,315.181 101.022,296.067 107.609,276.953 C97.313,279.345 87.016,281.737 76.72,284.129 C73.655,258.188 57.501,234.57 35.634,224.061 C41.362,207.66 63.34,201.642 75.439,213.161 C70.36,202.93 63.936,193.501 56.428,185.256 C61.033,183.037 65.638,180.818 70.244,178.599 C55.408,174.092 41.631,165.467 30.556,153.751 C39.762,144.263 55.813,157.788 67.153,151.67 C76.362,146.701 76.57,132.636 75.433,121.46 C88.639,124.281 102.379,127.09 115.399,123.378 C128.419,119.667 140.453,107.388 140.113,92.655 C139.938,85.09 136.631,78.022 135.733,70.519 C145.403,68.655 156.263,65.929 161.277,56.682 C165,49.817 164.676,40.518 169.83,34.871 C171.48,33.064 174.15,31.79 176.105,33.186 C176.906,33.757 177.432,34.678 177.932,35.57 C183.449,45.397 188.965,55.224 194.481,65.05 C210.099,61.226 226.278,60.166 242.202,61.922 C248.004,45.09 257.432,29.774 269.502,17.572 C272.735,26.493 275.967,35.414 279.2,44.335 C280.018,46.592 280.882,48.926 282.492,50.596 C283.858,52.014 285.641,52.828 287.381,53.611 C290.142,54.855 292.904,56.098 295.665,57.341 C297.367,58.108 299.238,58.886 300.999,58.304 C302.27,57.884 303.263,56.82 304.201,55.792 C309.631,49.845 315.061,43.897 320.491,37.95 C327.263,49.987 329.399,65.046 326.28,78.767 C325.678,81.418 324.886,84.2 325.585,86.823 C326.191,89.1 327.819,90.848 329.386,92.486 C333.546,96.837 337.706,101.188 341.867,105.54 C343.486,107.233 345.209,108.991 347.381,109.583 C349.505,110.163 351.73,109.539 353.844,108.917 C363.161,106.175 372.479,103.434 381.797,100.692 C381.456,115.593 373.53,130.016 361.669,137.321 C366.493,149.21 371.317,161.099 376.141,172.989 C369.545,175.833 363.779,180.937 359.854,187.403 C364.138,196.145 368.923,204.862 375.91,211.178 C382.896,217.494 392.526,221.08 401.194,218.2 C403.804,222.384 406.889,226.212 410.354,229.569 C403.595,233.951 396.836,238.333 390.077,242.715 C388.306,243.863 386.474,245.073 385.337,246.953 C384.118,248.969 383.862,251.482 383.639,253.888 C381.93,272.378 380.22,290.868 378.511,309.358 C390.466,313.927 401.168,322.357 408.927,333.317" id="Fill-25" fill="#C4C3BC"></path>
                <g id="Group-28" transform="translate(45.000000, 26.000000)">
                    <mask id="mask-4" fill="white">
                        <use xlink:href="#path-3"></use>
                    </mask>
                    <g id="Clip-27"></g>
                    <path d="M42.344,154.783 C37.137,158.296 31.929,161.81 26.722,165.323 C33.259,172.883 39.796,180.443 46.334,188.003 C34.307,199.141 13.037,186.144 1.17,197.484 C22.075,194.497 42.278,218.242 38.089,240.875 C46.047,238.458 54.005,236.042 61.963,233.625 C66.599,241.236 72.864,247.647 80.11,252.197 C72.262,266.791 64.413,281.384 56.565,295.978 C69.863,290.698 82.288,282.791 93.062,272.751 C118.679,281.604 144.725,288.963 171.054,294.787 C165.307,306.761 161.61,319.91 160.213,333.351 C157.403,334.933 154.452,336.654 152.812,339.612 C151.172,342.57 151.529,347.139 154.353,348.692 C165.504,337.74 174.507,324.177 180.581,309.181 C209.297,301.11 241.856,312.935 260.481,338.199 C260.091,334.362 259.701,330.524 259.311,326.687 C274.431,328.321 288.648,311.185 285.721,294.854 C305.929,296.356 326.136,297.859 346.343,299.361 C340.753,296.293 335.163,293.225 329.572,290.157 C327.876,289.226 326.076,288.189 325.177,286.358 C323.95,283.862 324.795,280.81 325.584,278.111 C332.126,255.723 333.201,231.448 328.668,208.472 C337.365,208.255 346.016,206.039 353.897,202.008 C342.286,196.191 330.046,191.884 317.514,189.204 C318.499,180.533 312.733,172.907 309.958,164.716 C307.183,156.525 310.437,143.984 318.369,144.908 C310.304,135.041 307.099,120.67 310.101,107.84 C316.901,104.333 322.614,98.349 326.114,91.064 C317.795,92.486 309.476,93.908 301.156,95.331 C294.163,82.308 283.197,71.896 270.436,66.163 C274.602,50.516 276.383,34.11 275.681,17.83 C271.959,28.229 268.237,38.629 264.515,49.029 C251.178,44.213 237.84,39.398 224.503,34.582 C228.299,23.726 227.745,11.138 223.013,0.733 C217.892,17.817 212.771,34.902 207.65,51.986 C187.524,40.309 161.222,42.872 143.294,58.256 C138.882,42.331 134.471,26.406 130.059,10.48 C126.705,23.054 124.554,36.013 123.651,49.075 C115.854,45.941 107.022,46.011 99.266,49.268 C101.263,61.056 103.26,72.844 105.257,84.632 C96.183,90.264 87.11,95.897 78.036,101.529 C65.77,109.143 51.075,116.938 38.227,110.58 C38.142,118.153 38.057,125.726 37.973,133.298 C25.488,130.783 12.697,130.102 0.048,131.279 C15.013,137.019 29.276,144.946 42.344,154.783" id="Fill-26" fill="url(#radialGradient-5)" mask="url(#mask-4)"></path>
                </g>
            </g>
        </g>
    </g>
</svg>