<?xml version="1.0" encoding="UTF-8"?>
<svg width="207px" height="181px" viewBox="0 0 207 181" version="1.1" xmlns="http://www.w3.org/2000/svg" xmlns:xlink="http://www.w3.org/1999/xlink">
    <title>hazard</title>
    <g id="hazard" fill="#FFFFFF">
        <path d="M111.7,4.7 L205.4,166.9 C207.1,169.9 207.1,173.2 205.4,176.2 C203.7,179.2 200.8,180.8 197.4,180.8 L10,180.8 C6.6,180.8 3.6,179.1 1.9,176.2 C0.2,173.2 0.2,169.9 1.9,166.9 L95.6,4.7 C97.3,1.7 100.2,0.1 103.6,0.1 C107.1,0.1 110,1.8 111.7,4.7 Z M103.7,26.3 L24.7,163.1 L182.6,163.1 L103.7,26.3 Z" id="Combined-Shape"></path>
        <path d="M111.4,146.6 C111.4,148.5 110.8,150.2 109.5,151.7 C108,153.6 106,154.5 103.4,154.5 C100.9,154.5 99,153.6 97.6,152 C96.2,150.3 95.5,148.5 95.5,146.6 C95.5,144.4 96.3,142.6 97.8,141 C99.4,139.4 101.2,138.7 103.4,138.7 C105.6,138.7 107.4,139.5 109,141 C110.6,142.6 111.4,144.4 111.4,146.6 Z" id="XMLID_4_"></path>
        <path d="M109,136 L98.6,136 C97.3,130.5 86.8,65.3 96.9,58.1 C98.6,56.9 100.8,56.3 103.4,56.3 C107.1,56.3 109.8,57.2 111.4,58.9 C118.5,66.9 110.1,129.7 109,136 Z" id="XMLID_5_"></path>
    </g>
</svg>