<?xml version="1.0" encoding="UTF-8"?>
<svg width="36px" height="125px" viewBox="0 0 36 125" version="1.1" xmlns="http://www.w3.org/2000/svg" xmlns:xlink="http://www.w3.org/1999/xlink">
    <!-- Generator: Sketch 52.5 (67469) - http://www.bohemiancoding.com/sketch -->
    <title>rocket</title>
    <desc>Created with Sketch.</desc>
    <defs>
        <linearGradient x1="5.20046093%" y1="95.7170405%" x2="83.8140492%" y2="19.0030675%" id="linearGradient-1">
            <stop stop-color="#FAD961" offset="0%"></stop>
            <stop stop-color="#F76B1C" offset="100%"></stop>
        </linearGradient>
        <linearGradient x1="22.905585%" y1="16.0796868%" x2="79.4062115%" y2="74.3331074%" id="linearGradient-2">
            <stop stop-color="#A8A9AD" offset="0%"></stop>
            <stop stop-color="#C4C4C4" offset="54.2765535%"></stop>
            <stop stop-color="#838996" offset="100%"></stop>
        </linearGradient>
    </defs>
    <g id="Page-1" stroke="none" stroke-width="1" fill="none" fill-rule="evenodd">
        <g id="rocket" transform="translate(-48.000000, -2.000000)" stroke="#FFFFFF">
            <g transform="translate(66.000000, 66.000000) rotate(-45.000000) translate(-66.000000, -66.000000) translate(20.000000, 20.000000)">
                <path d="M40.057,72.348 C41.831,68.255 42.224,65.466 42.241,65.349 C42.279,65.071 42.183,64.792 41.987,64.594 L27.397,50.007 C27.199,49.81 26.92,49.716 26.643,49.753 C26.526,49.77 23.735,50.161 19.643,51.936 C15.893,53.562 10.285,56.714 4.862,62.507 C4.639,62.748 4.562,63.088 4.664,63.399 C4.766,63.71 5.028,63.941 5.35,64.002 L10.152,64.916 C7.749,66.309 4.008,68.952 1.149,73.112 C0.961,73.387 0.94,73.742 1.094,74.037 C1.249,74.333 1.554,74.517 1.887,74.517 L7.789,74.517 C7.173,75.122 6.477,75.892 5.807,76.823 C3.361,80.218 2.416,84.14 3.073,88.172 C3.103,88.359 3.191,88.528 3.323,88.662 L3.329,88.666 C3.462,88.8 3.633,88.889 3.819,88.919 C7.85,89.575 11.774,88.629 15.168,86.184 C16.098,85.514 16.869,84.818 17.475,84.203 L17.475,90.105 C17.475,90.439 17.66,90.743 17.954,90.9 C18.249,91.053 18.605,91.033 18.88,90.843 C23.038,87.984 25.681,84.244 27.077,81.841 L27.989,86.643 C28.05,86.964 28.281,87.226 28.592,87.33 C28.903,87.43 29.244,87.355 29.484,87.131 C35.276,81.707 38.431,76.098 40.057,72.348 Z" id="Path" fill="url(#linearGradient-1)"></path>
                <path d="M72.473,39.145 C78.1,32.896 82.571,26.493 85.752,20.115 C91.217,9.175 91.016,2.148 91.004,1.855 C90.986,1.386 90.611,1.011 90.145,0.992 C89.85,0.982 82.823,0.781 71.883,6.244 C65.504,9.428 59.1,13.895 52.852,19.523 C45.061,26.537 37.487,35.386 30.336,45.823 C30.092,46.179 30.136,46.658 30.442,46.964 L45.033,61.557 C45.339,61.863 45.818,61.907 46.175,61.662 C56.611,54.512 65.459,46.936 72.473,39.145 Z" id="Shape" fill="url(#linearGradient-2)" fill-rule="nonzero"></path>
            </g>
        </g>
    </g>
</svg>