<?xml version="1.0" encoding="UTF-8"?>
<svg width="20px" height="36px" viewBox="0 0 20 36" version="1.1" xmlns="http://www.w3.org/2000/svg" xmlns:xlink="http://www.w3.org/1999/xlink">
    <!-- Generator: Sketch 52.5 (67469) - http://www.bohemiancoding.com/sketch -->
    <title>bluebot</title>
    <desc>Created with Sketch.</desc>
    <g id="Page-1" stroke="none" stroke-width="1" fill="none" fill-rule="evenodd">
        <g id="bluebot">
            <path d="M15.762195,0.339521964 C15.5771635,0.295088894 15.3321792,0.329246374 15.2035572,0.487207004 C14.431754,1.43412039 13.8482422,2.52099441 13.4350926,3.66782118 C13.3188013,3.99047472 13.7841792,4.15148259 13.9633288,3.90047472 C13.9374627,3.95929362 13.9111713,4.01782905 13.8855178,4.07671881 C13.5775336,4.78396291 14.4980847,5.36421488 14.938943,4.69247472 C15.2011477,4.29307315 15.4632816,3.89374244 15.7253446,3.49441173 C15.9713918,3.1196007 16.2537934,2.74982118 16.4534233,2.34765582 C16.8185257,1.61227787 16.6833839,0.560624327 15.762195,0.339521964" id="Fill-1" fill="#1B1A19"></path>
            <path d="M6.18470678,2.91082905 C5.65108473,2.11649047 4.91967528,1.41399441 4.29187213,0.691939287 C4.08671465,0.455884169 3.6705178,0.417970783 3.41093513,0.57819913 C3.13129733,0.750829051 2.85428158,0.927498342 2.57634458,1.10275031 C2.26510048,1.29904952 2.08885639,1.76074244 2.31711623,2.09126212 C2.64898237,2.57152196 3.00154143,3.03711252 3.40080127,3.46393929 C3.8015493,3.89246685 4.21625796,4.22121488 4.75703749,4.43969519 C5.03603749,4.55251409 5.3905808,4.20675818 5.27188001,3.92492354 C5.2645808,3.9076322 5.25636032,3.89076606 5.24891938,3.87354559 C5.46187213,3.98615189 5.69927371,3.98246685 5.93348631,3.86908102 C6.04786426,3.81359283 6.11632095,3.72033299 6.18470678,3.61778968 C6.31510048,3.42248259 6.31595087,3.10613614 6.18470678,2.91082905" id="Fill-2" fill="#1B1A19"></path>
            <path d="M16.3940375,33.6392385 C17.5043682,34.1891598 18.6261792,34.7156952 19.7586202,35.2181361 C19.6154706,35.4165613 19.4716123,35.6156952 19.327754,35.8141204 C19.2937383,35.860892 19.2575965,35.9104983 19.2044469,35.9331755 C19.1548406,35.9544354 19.0981477,35.9494747 19.0442895,35.9445141 C17.6432658,35.8112857 16.2416044,35.6780574 14.8402973,35.5448291 C14.8471713,34.875144 14.8540454,34.205459 14.8609902,33.5350653 C14.861628,33.4698684 14.9006753,33.3770338 14.9604154,33.4039629 L16.3940375,33.6392385" id="Fill-3" fill="#286AA6"></path>
            <path d="M4.91563591,33.6392385 C3.80530521,34.1891598 2.68335245,34.7156952 1.55084064,35.2181361 C1.69448631,35.4165613 1.83799024,35.6156952 1.98170678,35.8141204 C2.0155808,35.860892 2.05214772,35.9104983 2.1053682,35.9331755 C2.1549745,35.9544354 2.21152568,35.9494747 2.26531308,35.9445141 C3.66669103,35.8112857 5.06799812,35.6780574 6.46937607,35.5448291 C6.46250206,34.875144 6.45555717,34.205459 6.44868316,33.5350653 C6.44804536,33.4698684 6.40899812,33.3770338 6.34918709,33.4039629 L4.91563591,33.6392385" id="Fill-4" fill="#286AA6"></path>
            <path d="M19.782006,18.7387109 C19.6530296,18.1110495 19.4127934,17.5243487 19.1151556,16.9585535 C18.9861792,16.7139235 18.5794076,16.8815928 18.6658643,17.1479787 C18.8486989,17.7126401 18.9734233,18.2994826 19.0499587,18.887955 C19.0875178,19.1739708 19.1073603,19.4626794 19.1272028,19.7502542 C19.145628,20.0113251 19.1186989,20.2804039 19.3369666,20.4599787 C19.4574391,20.5587661 19.5864154,20.5546558 19.7083052,20.4599787 C20.1207462,20.1390968 19.8727147,19.1807031 19.782006,18.7387109" id="Fill-5" fill="#1B1A19"></path>
            <path d="M18.7005887,17.4481676 C18.6417698,17.1687424 18.2633446,17.2649078 18.2378328,17.5108842 C18.1421635,18.4178999 18.1513761,19.3371046 18.212321,20.2473094 C18.2215336,20.3796165 18.2803524,20.5338212 18.4107462,20.5937031 C18.5652343,20.6642857 18.6630296,20.6817188 18.8161005,20.5937031 C18.9351556,20.5253881 19.0194863,20.3863487 19.0145257,20.2473094 C18.9819273,19.3095377 18.8940532,18.3662385 18.7005887,17.4481676" id="Fill-6" fill="#1B1A19"></path>
            <path d="M17.97988,19.3319314 C17.9869666,18.7963251 17.9805887,18.261144 17.986258,17.7254668 C17.9883839,17.4682228 17.5603524,17.3933881 17.5227934,17.6627503 C17.4490926,18.1946716 17.3804233,18.7253881 17.3546989,19.2620574 C17.3354942,19.6636558 17.1635021,20.3014511 17.5454706,20.5617424 C17.6028721,20.6010023 17.6992501,20.6008605 17.7566517,20.5617424 C18.1209036,20.3144905 17.9749194,19.7197109 17.97988,19.3319314" id="Fill-7" fill="#1B1A19"></path>
            <path d="M2.58917135,19.3587188 C2.54771465,19.0855298 2.49874615,18.8135456 2.4423367,18.5431204 C2.39003749,18.2921834 2.38479339,18.147333 2.17580914,17.999081 C2.10253355,17.9471361 2.00225796,17.9898684 1.95768316,18.0563409 C1.82225796,18.2581676 1.88759654,18.4531913 1.9109115,18.6846401 C1.93649418,18.9368527 1.95513198,19.1896322 1.96781702,19.4427661 C1.9921241,19.9286952 1.89872253,20.5225535 2.05987213,20.9821204 C2.16206111,21.2738763 2.56280914,21.2825928 2.66202174,20.9821204 C2.82302961,20.4949157 2.66457292,19.8553487 2.58917135,19.3587188" id="Fill-8" fill="#1B1A19"></path>
            <path d="M1.76414772,19.8676086 C1.75365954,19.3356873 1.73289576,18.814892 1.65572253,18.288144 C1.62319497,18.0657661 1.25299024,18.0729944 1.2137304,18.288144 C1.11784851,18.8127661 1.08163591,19.3355456 1.05272253,19.8676086 C1.0293367,20.2993251 0.864856386,20.9631283 1.19665166,21.3003094 C1.30061229,21.4058291 1.47225009,21.3999472 1.57720284,21.3003094 C1.91785639,20.9772306 1.7725808,20.2967031 1.76414772,19.8676086" id="Fill-9" fill="#1B1A19"></path>
            <path d="M0.520234339,17.9717976 C0.339313079,18.4978369 0.233651662,19.0220338 0.186242213,19.5764905 C0.142872134,20.0835377 0.09170678,20.696459 0.30182489,21.1689235 C0.349234339,21.2753645 0.49266741,21.3462306 0.604423315,21.3424039 C0.635604418,21.3413409 0.667210717,21.3372306 0.697541426,21.3299314 C0.807313079,21.3034983 0.921478434,21.1993251 0.942313079,21.0851598 C1.02636032,20.6253094 0.909643788,20.1143645 0.911131977,19.643955 C0.912761898,19.1348527 0.956982371,18.6154747 1.02643119,18.111333 C1.07150206,17.7837188 0.633194969,17.6437582 0.520234339,17.9717976" id="Fill-10" fill="#1B1A19"></path>
            <path d="M19.775628,17.0807267 C19.4092501,15.3492542 18.9897225,13.6309629 18.570195,11.9108999 C18.5078328,11.6564196 18.2250769,11.4218527 17.9543682,11.4421913 C17.446258,11.4803881 17.0966044,11.7905692 16.9651477,12.2820968 C16.9635887,12.2879078 16.9625257,12.2937897 16.9610375,12.2996007 C16.7286674,12.2317818 16.4415178,12.4069629 16.5129509,12.7217503 C16.8757147,14.3197818 17.1542186,15.9335456 17.2426595,17.571333 C17.2617934,17.9262306 17.5603524,18.1472621 17.9054706,18.0762542 C18.3979902,17.9747031 18.8905099,17.8732228 19.3837383,17.7716716 C19.6934233,17.707892 19.8351556,17.3617109 19.775628,17.0807267" id="Fill-11" fill="#286AA6"></path>
            <path d="M2.62269103,12.4269472 C2.59675402,12.0838133 2.31810835,11.8867346 2.00948631,11.8392542 C2.02656505,11.6362228 2.03790363,11.4331913 2.04116347,11.2301598 C2.04761229,10.8349393 1.42625796,10.8160889 1.27219497,11.1427109 C0.78747056,12.1704826 0.603998119,13.3088054 0.419604418,14.3978763 C0.231738276,15.5068605 0.0902894572,16.6198842 0.00135244933,17.7376558 C-0.0252223538,18.072144 0.344486308,18.301396 0.70058867,18.3249944 C1.12288001,18.3529865 1.54538395,18.3795613 1.96774615,18.4067739 C2.36388788,18.4322857 2.66195087,18.1119708 2.67881702,17.8093724 C2.77944694,16.0140495 2.75804536,14.2207109 2.62269103,12.4269472" id="Fill-12" fill="#286AA6"></path>
            <path d="M15.6566753,23.5710023 C15.5748958,23.2161755 15.484754,22.8632621 15.386321,22.5126165 C15.2742107,22.1132857 15.0883997,21.3463015 14.7934548,21.0366165 C14.6483918,20.8842542 14.5717147,20.8167188 14.340195,20.8276322 C14.1201556,20.8381204 13.9283918,21.1680731 13.8181241,21.1732464 C13.5844784,21.1843724 13.3760611,21.3312779 13.3408406,21.5910731 C13.1905336,21.6301204 13.0740296,21.7577503 13.1420611,21.9458999 C13.2708249,22.3017188 13.4929902,22.568955 13.6512343,22.8920338 C13.8583761,23.3149629 13.9244233,23.8205928 14.0129351,24.2820731 C14.2217776,25.3702936 14.3425336,26.4754511 14.3732895,27.583018 C14.8981241,27.4001834 15.4229587,27.2173487 15.9478643,27.0344432 C16.0188721,27.0097818 16.0954784,26.980585 16.1339587,26.9158842 C16.1681162,26.8585535 16.1635808,26.7869078 16.157628,26.7203645 C16.0632343,25.6607739 15.8956359,24.6076322 15.6566753,23.5710023" id="Fill-13" fill="#286AA6"></path>
            <path d="M7.42684851,20.9328684 C7.30538395,20.7118369 7.14664379,20.5268763 6.9917304,20.5022857 C6.67616347,20.4522542 6.44067528,20.7781676 6.29929733,21.0647503 C5.40985639,22.8683645 4.96403749,24.8888999 5.01187213,26.8993724 C5.01463591,27.0131834 5.02165166,27.1350731 5.09081702,27.2255692 C5.14084851,27.2909078 5.21660442,27.330522 5.28988001,27.3680102 C5.64428158,27.5494983 5.99875402,27.7309157 6.3531556,27.9124039 C6.50799812,26.7916558 6.70621072,25.6770023 6.94722647,24.5715613 C7.16131308,23.5894275 7.51472253,22.6445692 7.63647056,21.6479787 C7.65624221,21.4861913 7.56588788,21.1857897 7.42684851,20.9328684" id="Fill-14" fill="#286AA6"></path>
            <path d="M7.43223434,17.788396 C7.0417619,17.5870653 6.6277619,18.0029078 6.38724221,18.3704196 C6.06260442,18.86627 5.74030521,19.3754432 5.57795087,19.9454196 C5.41552568,20.515396 5.43189576,21.1635377 5.75504536,21.6603094 C6.09364379,22.1811046 6.70068316,22.4523802 7.28398237,22.6660416 C8.69832883,23.1840023 10.2220217,23.5284826 11.7091477,23.289522 C13.1962737,23.0504905 14.6393918,22.1361046 15.1897383,20.7340889 C15.280943,20.5018605 15.347628,20.2546086 15.3343052,20.0054432 C15.3182186,19.7005062 15.1838564,19.4139235 15.0232737,19.1543409 C14.3821477,18.1182779 13.2633839,17.3916873 12.0561084,17.2274196 L7.43223434,17.788396" id="Fill-15" fill="#1B1A19"></path>
            <path d="M2.89169891,6.06423063 C2.08375402,6.70351409 1.37849418,7.47227 0.811068985,8.33223063 C0.471832764,8.84636448 0.175754024,9.4116637 0.117643788,10.0248684 C0.0252343391,10.9992779 0.563462686,11.9536322 1.31627371,12.5790259 C2.0691556,13.2044905 3.01309261,13.5496086 3.95405324,13.8191834 C7.00689576,14.6937424 10.2527776,14.8870653 13.3878958,14.3812228 C14.7332186,14.164018 16.0908013,13.8051519 17.2056674,13.0213724 C18.3207462,12.2375928 19.1612186,10.9618605 19.1293288,9.59938811 C19.0868091,7.78351409 17.6085414,6.36916763 16.2393367,5.17542748 L2.89169891,6.06423063" id="Fill-16" fill="#1B1A19"></path>
            <path d="M6.09456505,15.1598291 C6.22127371,15.7768605 6.3479115,16.393892 6.47462017,17.0109235 C6.57461229,17.4981283 6.67573828,17.9888763 6.86665166,18.4480889 C7.64646269,20.3232779 10.3859351,21.5580495 12.0968564,20.0692936 C13.4310532,18.9084354 13.2392186,16.6660889 13.3037068,15.0770574 L6.09456505,15.1598291" id="Fill-17" fill="#286AA6"></path>
            <path d="M7.9055493,0.462262122 C6.77048631,1.06497866 5.96027371,2.11989204 5.03667528,3.01358496 C3.94824221,4.06679755 2.66676977,4.91974244 1.27510048,5.51721488 C2.69525796,6.95069519 4.11541544,8.38417551 5.53557292,9.81772669 C8.16463591,9.61497866 10.8367147,9.98915189 13.30888,10.9063724 C13.5726438,9.59343535 14.3219824,8.70711252 15.3122658,7.87238023 C15.7601399,7.4948763 18.0847619,5.31475031 18.6424784,5.49850622 C16.9557225,4.9426322 15.5675965,3.74882118 14.2278013,2.58314401 C12.4545178,1.04031724 10.4755808,-0.902265437 7.9055493,0.462262122" id="Fill-18" fill="#286AA6"></path>
            <path d="M6.78302961,5.35634874 C6.65788001,5.41665582 6.5333682,5.48171094 6.40970678,5.55193929 C3.70063591,7.0886007 2.57861229,10.6565692 3.69418709,13.5360023 C4.05510835,14.4676794 4.67653355,15.2923487 5.45145481,15.9231991 C7.29921859,17.4274039 10.0441477,17.7263172 12.1723288,16.6550338 C14.3005808,15.5838212 15.6956517,13.2009472 15.5882186,10.8208369 C15.3892973,6.41409677 10.7375729,3.45274244 6.78302961,5.35634874" id="Fill-144" fill="#349FCD"></path>
            <path d="M7.19341544,6.2346637 C7.08754143,6.28561645 6.98230521,6.34075031 6.87777765,6.39999441 C4.58759654,7.69911252 3.63905324,10.7153172 4.58213985,13.1495692 C4.88721859,13.9372464 5.41262017,14.6343566 6.06770678,15.1676243 C7.62973828,16.4392464 9.95032095,16.691955 11.7493997,15.7863566 C13.5484784,14.8807582 14.7279036,12.8663881 14.6371241,10.8542149 C14.4688879,7.12892354 10.5364548,4.62536448 7.19341544,6.2346637" id="Fill-145" fill="#293478"></path>
            <path d="M7.39623434,6.66878968 C7.29992725,6.71513614 7.20418709,6.7652385 7.10908473,6.8192385 C5.0259745,8.00078968 4.16317922,10.7443724 5.020943,12.958585 C5.29852568,13.6751125 5.77637607,14.3091519 6.37228946,14.7942306 C7.79308473,15.9509078 9.90390363,16.1807267 11.5403446,15.3569787 C13.1768564,14.5333015 14.249628,12.7009865 14.1669981,10.8707267 C14.0139981,7.48212039 10.4370296,5.20497866 7.39623434,6.66878968" id="Fill-146" fill="#3B3A39"></path>
            <path d="M7.86274615,7.01107315 C7.78762804,7.04714401 7.71300599,7.08626212 7.63880914,7.12828574 C6.01406111,8.04989992 5.34118709,10.1897739 6.01016347,11.9166401 C6.22665954,12.4754905 6.59941544,12.9699944 7.06408473,13.3483487 C8.17228946,14.2505456 9.81850993,14.4297661 11.09488,13.7872936 C12.3712501,13.1448212 13.2080375,11.7157346 13.1434784,10.2882779 C13.0242107,7.64539598 10.2344233,5.86934874 7.86274615,7.01107315" id="Fill-147" fill="#515251"></path>
            <path d="M8.93084064,7.51067944 C8.25931308,7.53626212 7.58303749,8.09936448 7.17860442,8.60471094 C6.75028946,9.13975031 6.52635245,9.81893141 6.57326584,10.4984668 C6.59098237,10.7552857 6.97691938,10.750892 7.05402174,10.5353172 C7.23869891,10.0191283 7.48056505,9.54149047 7.85013198,9.13294716 C8.0223367,8.9426007 8.21402961,8.76564795 8.43031308,8.62611252 C8.66728946,8.47311252 8.93969891,8.39877393 9.16774615,8.23457708 C9.44355717,8.03601015 9.28354143,7.49735661 8.93084064,7.51067944" id="Fill-148" fill="#797B7A"></path>
            <path d="M10.1761005,7.37164007 C9.69924221,7.33514401 9.64169891,8.07626212 10.1194076,8.11275818 C10.5962658,8.14925425 10.6538091,7.408207 10.1761005,7.37164007" id="Fill-149" fill="#797B7A"></path>
            <path d="M5.09348709,29.7928369 C5.09928709,29.8811361 5.10518709,29.9695062 5.11088709,30.0578054 C5.09968709,30.0921755 5.08848709,30.1264747 5.07748709,30.1607739 C5.08228709,30.0381046 5.08758709,29.9155062 5.09348709,29.7928369 Z M7.3655493,27.4095377 C7.31650993,27.3243566 7.25053355,27.2439944 7.1625178,27.1697976 C6.98818709,27.0228212 6.7799115,26.9232542 6.58013985,26.8131283 C5.91945481,26.4489472 5.3313367,25.953522 4.86014772,25.3643409 C4.77517922,25.2581834 4.68985639,25.1454354 4.56881702,25.0834983 C4.44777765,25.0215613 4.27869103,25.0287897 4.19825796,25.1383487 C4.16502174,25.1835613 4.15099024,25.2396165 4.1387304,25.294396 C3.93201387,26.2221755 3.97184064,27.3403015 3.92039182,28.2973487 C3.8605808,29.4086716 3.83308473,30.5217661 3.83960442,31.6344354 C3.84343119,32.2786086 3.71395875,33.1977424 4.22022647,33.700892 C4.52410048,34.0020731 4.97098237,34.0318369 5.37307686,34.0750653 C5.8135808,34.1218369 6.25167528,34.1182936 6.69373828,34.1027031 C7.0281556,34.0906558 7.27377765,33.8383724 7.29036032,33.5060102 C7.37221072,31.8626243 7.45278552,30.2198054 7.48162804,28.5745062 C7.48878552,28.1659629 7.56149418,27.7494826 7.3655493,27.4095377 Z" id="Fill-182" fill="#1B1A19"></path>
            <path d="M17.7502737,30.8352779 C17.670195,29.8374826 17.5610611,28.8418842 17.4275493,27.8497582 C17.3185572,27.042522 17.3263524,25.9636558 16.9598328,25.224522 C16.9302107,25.1647109 16.8939273,25.1037661 16.8351792,25.0721598 C16.7401477,25.0210653 16.6231477,25.0637267 16.527691,25.1141125 C15.9487855,25.4196873 15.4774548,25.9082385 14.8961399,26.2217503 C14.6426517,26.3583802 14.3628013,26.4576637 14.1166123,26.6047109 C13.7714942,26.8108605 13.6457776,27.1576086 13.6612973,27.5436165 C13.7233761,29.0921125 13.9224391,30.6533645 14.0674312,32.1964039 C14.1027934,32.5727031 14.1363131,32.9482936 14.1735178,33.3245928 C14.2104391,33.6973487 14.2648643,34.0481361 14.6291871,34.2423094 C14.9154863,34.3939629 15.2942658,34.3379787 15.6062895,34.3365613 C15.9708249,34.335144 16.3362107,34.3486086 16.7006044,34.341522 C17.4597225,34.3273487 17.896258,33.8645928 17.8842107,33.1056165 C17.8721635,32.3494747 17.8112186,31.589081 17.7502737,30.8352779" id="Fill-183" fill="#1B1A19"></path>
        </g>
    </g>
</svg>