<?xml version="1.0" encoding="UTF-8"?>
<svg width="27px" height="36px" viewBox="0 0 27 36" version="1.1" xmlns="http://www.w3.org/2000/svg" xmlns:xlink="http://www.w3.org/1999/xlink">
    <!-- Generator: Sketch 52.5 (67469) - http://www.bohemiancoding.com/sketch -->
    <title>Purplebot</title>
    <desc>Created with Sketch.</desc>
    <defs>
        <polygon id="path-1" points="0.00454736842 0.0229232479 12.5108687 0.0229232479 12.5108687 20.019468 0.00454736842 20.019468"></polygon>
    </defs>
    <g id="Page-1" stroke="none" stroke-width="1" fill="none" fill-rule="evenodd">
        <g id="Purplebot">
            <path d="M4.54464,24.5627621 C3.68829474,24.2299705 3.11911579,23.4928421 3.10994526,22.5594947 C3.10736842,22.3001432 2.77518316,22.2888505 2.68704,22.5022737 C2.19531789,23.6936842 3.17247158,25.1992421 4.45187368,25.2482779 C4.87174737,25.2643453 4.88948211,24.6967579 4.54464,24.5627621" id="Fill-184" fill="#1B1A19"></path>
            <path d="M5.60076632,23.6706442 C5.25986526,23.54256 4.92881684,23.5195958 4.61156211,23.3141305 C4.30302316,23.1143495 4.04488421,22.8390821 3.86465684,22.5199326 C3.74657684,22.3110568 3.41166316,22.4511158 3.47714526,22.6833347 C3.60553263,23.1390568 3.83964632,23.5355874 4.20487579,23.8411705 C4.54236632,24.1237137 5.04530526,24.4327832 5.50368,24.3881432 C5.91726316,24.3479747 5.99547789,23.8189642 5.60076632,23.6706442" id="Fill-185" fill="#1B1A19"></path>
            <path d="M25.3546105,22.1742568 C25.2757895,22.0260126 25.0196968,22.0523116 24.9850611,22.2226105 C24.9044211,22.6185347 24.9012379,22.9814147 24.7103242,23.3511916 C24.5488926,23.6637474 24.1321263,23.9096842 24.1252295,24.2677895 C24.1230316,24.3789726 24.2101895,24.5063747 24.3239495,24.5288084 C24.8199158,24.6266526 25.1613474,23.9907789 25.3229305,23.6009937 C25.5001263,23.1736168 25.5794021,22.5971621 25.3546105,22.1742568" id="Fill-186" fill="#1B1A19"></path>
            <path d="M24.2466442,22.0170695 C24.1844211,21.8020547 23.9060463,21.8682189 23.8814905,22.0664842 C23.8360926,22.4333811 23.7274105,22.8111158 23.5217937,23.1207158 C23.3420968,23.3911326 22.9359411,23.5527158 22.86576,23.87088 C22.8368084,24.00192 22.9043368,24.1382653 23.0388632,24.1757811 C23.4800337,24.2987874 23.8870989,23.7217263 24.0705853,23.3829474 C24.3017432,22.9561011 24.3824589,22.4860547 24.2466442,22.0170695" id="Fill-187" fill="#1B1A19"></path>
            <path d="M23.31072,20.7295579 C22.4621053,20.5635032 21.9518905,21.4824505 21.8260042,22.1950232 C21.7653726,22.5383495 22.2728589,22.8284716 22.4400505,22.4538442 C22.6768926,21.9232421 22.8061895,21.4004463 23.3605895,21.1110821 C23.5139116,21.0310484 23.4864,20.7638905 23.31072,20.7295579" id="Fill-188" fill="#1B1A19"></path>
            <path d="M6.34501895,21.0279411 C5.80744421,20.4937011 4.65127579,20.0849684 4.03146947,20.7234947 C3.90694737,20.8517305 3.99766737,21.0719747 4.17675789,21.0742484 C4.66529684,21.0805389 5.07622737,20.9744337 5.53695158,21.2192337 C5.80282105,21.3604295 6.23459368,21.8661726 6.42800842,21.3420884 C6.46688842,21.2368168 6.42133895,21.1037305 6.34501895,21.0279411" id="Fill-189" fill="#1B1A19"></path>
            <path d="M26.1450189,17.9336842 C26.0730189,16.8071495 25.8434526,15.6593179 25.2693474,14.6767074 C25.2554779,14.6529095 25.2378189,14.6358568 25.2184926,14.6235789 C25.1842358,14.4723789 25.1439158,14.3342147 25.1111747,14.2268968 C24.7652716,13.0951326 24.1208337,11.7384253 23.1000253,11.0676884 C22.7563958,10.8419116 22.2263242,11.2214653 22.3763116,11.6240589 C22.5781389,12.1657263 22.89744,12.6579789 23.1357221,13.1838063 C23.3691537,13.6986442 23.4771537,14.3054905 23.6879242,14.8539789 C23.6661726,14.8706526 23.6463916,14.8902821 23.6301726,14.9133221 C23.3532379,15.3042442 23.3741558,15.93648 23.3496,16.3984926 C23.3218611,16.9215916 23.3119326,17.4430989 23.32944,17.9665768 C23.3469474,18.4883874 23.3804463,19.0095916 23.4300884,19.5292042 C23.4767747,20.0173642 23.4560842,20.7140968 23.7643958,21.1159326 C24.0080589,21.4334905 24.4869726,21.4150737 24.6228632,21.0037642 C24.7777011,20.5350821 24.5745095,19.9296 24.5053137,19.4522779 C24.4305853,18.9367579 24.3763958,18.4179032 24.3361516,17.8985179 C24.2974989,17.3992926 24.2617263,16.8987789 24.2402779,16.3984926 C24.2320926,16.2060632 24.2370947,15.9914274 24.2298189,15.7761853 C24.37056,15.9386021 24.5307032,16.0397053 24.7933895,15.96672 C24.92496,15.9301137 25.0246989,15.8678905 25.0990484,15.7876295 C25.1356547,15.7479916 25.1648337,15.7031242 25.1898442,15.6556042 C25.3609011,16.4047832 25.4969432,17.1579789 25.5111158,17.9336842 C25.5205137,18.4475368 25.5047495,18.9631326 25.4373726,19.47312 C25.3651453,20.0201684 25.1967411,20.5350821 25.0857853,21.0720505 C25.0167411,21.4059789 25.5241516,21.6771537 25.6759579,21.3208674 C26.10864,20.3051368 26.2148211,19.0261895 26.1450189,17.9336842" id="Fill-190" fill="#1B1A19"></path>
            <path d="M5.43963789,11.2298021 C5.04378947,10.77264 4.02517895,11.5713095 3.70678737,11.8298274 C3.15284211,12.2795621 2.64838737,12.7895495 2.23146947,13.3702484 C1.72072421,14.0816084 1.16420211,14.9581895 0.857482105,15.7792926 C0.847250526,15.8068042 0.836336842,15.8320421 0.825271579,15.8562947 C0.782526316,15.8711495 0.747587368,15.9044968 0.736825263,15.9587621 C0.730686316,15.9900632 0.725684211,16.0215158 0.720075789,16.0528926 C0.661642105,16.1560421 0.626703158,16.2366821 0.674753684,16.3515032 C0.568648421,17.2289937 0.678543158,18.1136084 0.926753684,18.9659368 C1.07219368,19.4656926 1.25355789,19.9542316 1.45136842,20.4354947 C1.54277053,20.6578611 1.63743158,20.8789389 1.73406316,21.0991074 C1.84380632,21.3491368 1.92990316,21.6364547 2.13438316,21.8240337 C2.26405895,21.9429474 2.50249263,21.8656421 2.49635368,21.6741221 C2.48263579,21.2474274 2.17432421,20.8011789 2.00789053,20.4135158 C1.80265263,19.9356632 1.61386105,19.4498526 1.45864421,18.95328 C1.23180632,18.2278989 1.07712,17.4881937 1.04089263,16.7349221 C1.32836211,16.8875621 1.63530947,16.7875958 1.89860211,16.5906189 C1.90709053,16.7132463 1.92133895,16.8322358 1.92846316,16.9351579 C1.96218947,17.4246821 2.02805053,17.9146611 2.10315789,18.3995621 C2.17788632,18.8821895 2.27709474,19.3625432 2.37744,19.8404716 C2.47664842,20.3136253 2.55766737,20.8092126 2.72751158,21.2627368 C3.00626526,22.0071411 4.04321684,21.7167158 3.91164632,20.9363116 C3.82729263,20.4360253 3.65631158,19.9451368 3.53232,19.4531116 C3.40764632,18.9585853 3.30010105,18.4603453 3.18262737,17.9642274 C3.11578105,17.6821389 2.92122947,16.2097011 2.50832842,15.8344674 C2.51469474,15.8202189 2.52075789,15.8061979 2.52629053,15.7925558 C2.76389053,15.2064 3.06318316,14.6432842 3.42151579,14.1219284 C3.78333474,13.5957221 4.20207158,13.1112758 4.64900211,12.6559326 C4.93995789,12.3594442 5.84200421,11.6943916 5.43963789,11.2298021" id="Fill-191" fill="#1B1A19"></path>
            <path d="M17.9696084,31.4958316 C17.424,32.3239832 16.8457263,33.1304589 16.2364547,33.9129095 C17.9704421,34.4634442 19.7196632,34.9659284 21.4813895,35.4195284 C21.4462989,34.4146358 21.3442105,33.4120926 21.1763368,32.4207663 L17.9696084,31.4958316" id="Fill-192" fill="#1B1A19"></path>
            <path d="M7.49027368,33.0242779 C7.40334316,34.0121179 7.27730526,34.9964716 7.11261474,35.9743832 C8.90003368,35.63568 10.6780547,35.2473347 12.4439495,34.8100295 C11.9359326,33.9423158 11.3701642,33.10848 10.7516463,32.3157221 L7.49027368,33.0242779" id="Fill-193" fill="#1B1A19"></path>
            <path d="M19.7616505,24.42672 C19.6633516,23.7549979 19.5024505,23.0906274 19.2913011,22.4457347 C19.0943242,21.8439663 18.8495242,21.2046063 18.4861895,20.6812042 C18.1706779,20.2266947 17.6592505,19.6685811 17.0458863,19.8101558 C16.8528505,19.8547958 16.7055916,20.0960337 16.7747874,20.2876295 C16.8663411,20.5409179 17.0571032,20.7195537 17.2085305,20.9378274 C17.3592,21.1551158 17.4754611,21.3996126 17.5716379,21.6452463 C17.8122695,22.2598232 17.9978779,22.9122947 18.1430147,23.5555958 C18.2884547,24.1998821 18.3692463,24.8514442 18.4313937,25.5080084 C18.4648168,25.8602021 18.4770189,26.3006905 18.7452379,26.5688337 C18.9807916,26.8044632 19.3574653,26.8043874 19.5929432,26.5688337 C20.0749642,26.0868884 19.8491116,25.0244716 19.7616505,24.42672" id="Fill-194" fill="#1B1A19"></path>
            <g id="Group-198" transform="translate(2.273684, 0.000000)">
                <path d="M9.45306947,19.5013895 C8.82613895,19.5124547 8.18253474,20.1401432 7.77789474,20.5724463 C7.33073684,21.0502232 6.93299368,21.6017432 6.66788211,22.20192 C6.36366316,22.8909221 6.18305684,23.6022063 6.11757474,24.3529768 C6.05110737,25.1140547 6.05300211,26.0242863 6.56496,26.6309811 C6.85621895,26.9760505 7.46867368,26.7826358 7.56803368,26.3660968 C7.71339789,25.7565979 7.51899789,25.1042021 7.55461895,24.4771958 C7.58667789,23.9130947 7.72378105,23.3429305 7.94728421,22.8236968 C8.15365895,22.3442526 8.42256,21.8767832 8.76164211,21.4789642 C8.92686316,21.2850947 9.10527158,21.1000926 9.28724211,20.9220632 C9.49407158,20.7197811 9.77487158,20.5447832 9.89878737,20.2780042 C10.0566568,19.9380884 9.87392842,19.4939621 9.45306947,19.5013895" id="Fill-195" fill="#1B1A19"></path>
                <path d="M7.00961684,19.79424 C7.08654316,19.8953432 7.16134737,19.9982653 7.23365053,20.1031579 C7.58410105,20.6113263 7.87687579,21.1645895 8.29985684,21.6144 C9.78555789,23.1944589 12.5333053,23.5928842 14.1412547,22.0472337 C15.0531537,21.1707284 15.4791663,19.9554442 16.2660884,18.9944337 C17.0180716,18.0760168 17.8935158,17.2317979 18.6378442,16.2855663 C20.2373811,14.2521347 22.0845221,11.8090611 21.8500295,9.06563368 C21.7413474,7.79509895 21.0577263,6.65514947 20.3793347,5.57537684 C17.9793853,1.75505684 12.3658863,-1.37004632 7.96509474,0.683393684 C4.83506526,2.14378105 1.58066526,4.91328 0.431545263,8.26241684 C-1.06923789,12.6363789 1.77544421,14.8122947 4.71819789,17.4580295 C5.53050947,18.1884126 6.34994526,18.9267537 7.00961684,19.79424" id="Fill-197" fill="#91659A"></path>
            </g>
            <path d="M9.20372211,4.77435789 C9.07048421,4.87121684 8.93906526,4.97353263 8.80976842,5.08145684 C5.976,7.44684632 5.42288842,11.8449853 7.33323789,14.9666021 C7.95137684,15.9766484 8.85054316,16.8067705 9.88772211,17.3782989 C12.3608084,18.7412211 15.6249853,18.5086989 17.8798737,16.8090442 C20.1348379,15.1093895 21.25728,12.0354442 20.6281516,9.28269474 C19.4633432,4.18600421 13.41216,1.71746526 9.20372211,4.77435789" id="Fill-199" fill="#522F65"></path>
            <path d="M11.3827453,7.84853053 C11.3170358,7.89627789 11.2522358,7.94667789 11.1884968,7.99988211 C9.79169684,9.16582737 9.51908211,11.3337095 10.4606905,12.8723874 C10.7653642,13.3702484 11.2086568,13.7794358 11.7198568,14.0611453 C12.9388547,14.7329432 14.5477895,14.6183495 15.6593179,13.7805726 C16.7707705,12.9427958 17.3240337,11.4276126 17.0139032,10.0707537 C16.4397979,7.55856 13.4571032,6.34176 11.3827453,7.84853053" id="Fill-200" fill="#1B1A19"></path>
            <path d="M11.7778358,8.04103579 C11.7266779,8.07824842 11.6761263,8.11758316 11.6264084,8.15911579 C10.5370105,9.06843789 10.3243453,10.7593011 11.0587453,11.9593516 C11.2964211,12.3476968 11.6420968,12.6667705 12.0408253,12.8864842 C12.9915284,13.4104926 14.2464505,13.3210611 15.1133305,12.66768 C15.9802863,12.0142232 16.4117558,10.8325137 16.1698358,9.77426526 C15.7220716,7.81488 13.3957137,6.86584421 11.7778358,8.04103579" id="Fill-201" fill="#3B3A39"></path>
            <path d="M12.6440337,8.26961684 C12.1455663,8.37981474 11.7164463,8.89253053 11.4827116,9.32513684 C11.2351832,9.78313263 11.1599242,10.3212379 11.2872505,10.8228884 C11.3353011,11.0124379 11.6231495,10.9567326 11.6515705,10.7851453 C11.7196295,10.3742147 11.8355874,9.98435368 12.0564379,9.62890105 C12.1592842,9.46330105 12.2785011,9.30497684 12.4212884,9.17128421 C12.5777179,9.02478316 12.7711326,8.93224421 12.9193768,8.77854316 C13.0986189,8.59270737 12.9058863,8.21178947 12.6440337,8.26961684" id="Fill-202" fill="#797B7A"></path>
            <path d="M13.5560084,7.99669895 C13.1946442,8.03413895 13.2521684,8.59589053 13.6142147,8.55845053 C13.9755789,8.52093474 13.9180547,7.95925895 13.5560084,7.99669895" id="Fill-203" fill="#797B7A"></path>
            <path d="M17.4210442,25.0835874 C16.9366737,27.2216084 16.5468884,29.3810779 16.2532042,31.5535074 C16.2340295,31.6952337 16.21728,31.84848 16.2871579,31.9732295 C16.3669642,32.1158653 16.5352926,32.1792253 16.6904337,32.2305347 C18.3557558,32.7810695 20.0683705,33.1885895 21.8031916,33.4472589 C21.9058863,33.4624926 22.0263916,33.4715116 22.0975579,33.3959495 C22.1504589,33.3397137 22.1565979,33.2554358 22.1596295,33.1783579 C22.2636884,30.5260295 22.1758484,27.7062821 21.8214568,25.0784337 C21.7978863,24.9038905 17.7417095,25.0828295 17.4210442,25.0835874" id="Fill-204" fill="#91659A"></path>
            <g id="Group-208" transform="translate(0.000000, 13.945263)">
                <mask id="mask-2" fill="white">
                    <use xlink:href="#path-1"></use>
                </mask>
                <g id="Clip-206"></g>
                <path d="M11.3263579,11.6454316 C11.8107284,13.7834526 12.2004379,15.9428463 12.4941221,18.1153516 C12.5132968,18.2570021 12.5300463,18.4102484 12.4602442,18.5350737 C12.3803621,18.6776337 12.2121095,18.7410695 12.0569684,18.7923032 C10.3916463,19.3428379 8.67903158,19.7504337 6.94413474,20.0090274 C6.84144,20.0243368 6.72093474,20.0333558 6.64976842,19.9577179 C6.59694316,19.9015579 6.59072842,19.81728 6.58777263,19.7402021 C6.48363789,17.0877979 6.57147789,14.2680505 6.92594526,11.6402021 C6.94944,11.4657347 11.0056168,11.6446737 11.3263579,11.6454316" id="Fill-205" fill="#91659A" mask="url(#mask-2)"></path>
                <path d="M1.22309053,0.106105263 C0.728185263,0.309675789 0.301717895,0.872261053 0.107090526,1.32714947 C-0.105195789,1.82334316 1.35525272e-20,2.45618526 0.405473684,2.81239579 C0.880901053,3.23007158 1.62083368,3.18770526 2.19683368,2.92562526 C2.41776,2.82512842 2.62587789,2.69674105 2.81482105,2.54440421 C4.05435789,1.54512 2.86643368,-0.132328421 1.49047579,0.0344842105 C1.39983158,0.0454736842 1.3104,0.0701810526 1.22309053,0.106105263" id="Fill-207" fill="#91659A" mask="url(#mask-2)"></path>
            </g>
            <path d="M23.8794442,13.1533389 C23.3845389,13.3569095 22.9580716,13.9194947 22.7634442,14.3743832 C22.5511579,14.8705768 22.6563537,15.5034189 23.0618274,15.8596295 C23.5372547,16.2773053 24.2771116,16.2349389 24.8531874,15.9728589 C25.0740379,15.8723621 25.2822316,15.7439747 25.4711747,15.5916379 C26.7107116,14.5923537 25.5227874,12.9149053 24.1468295,13.0817179 C24.0561853,13.0927074 23.9666779,13.1174147 23.8794442,13.1533389" id="Fill-209" fill="#91659A"></path>
            <path d="M4.99460211,21.3996884 C4.88993684,20.4921095 4.13954526,19.8295579 3.21711158,19.8789726 C2.92047158,19.8948126 2.63944421,19.9840926 2.39312842,20.1286232 C2.08618105,20.1746274 1.80098526,20.3302232 1.57346526,20.6502821 C1.10607158,21.3076042 1.18489263,22.2392842 1.67994947,22.8562863 C2.18667789,23.4876884 3.08190316,23.6935326 3.82683789,23.3933305 C4.61345684,23.0763789 5.09130947,22.2382232 4.99460211,21.3996884" id="Fill-210" fill="#91659A"></path>
            <path d="M25.3446063,19.4639495 C24.4091368,19.0273263 23.0420463,19.3184337 22.8196042,20.4704337 C22.7889853,20.6289853 22.7815579,20.7884463 22.7938358,20.9456337 C22.7936842,20.9501053 22.7932295,20.9545011 22.7930779,20.9588968 C22.7817095,21.5027621 23.0646316,22.0016842 23.4162947,22.3960926 C23.7813726,22.8054316 24.2915116,23.1127579 24.8576589,23.0065011 C25.3401347,22.9160084 25.7214316,22.5548716 25.9569095,22.13712 C26.4850105,21.2002863 26.4150568,19.9635537 25.3446063,19.4639495" id="Fill-211" fill="#91659A"></path>
        </g>
    </g>
</svg>