<?xml version="1.0" encoding="UTF-8"?>
<svg width="23px" height="36px" viewBox="0 0 23 36" version="1.1" xmlns="http://www.w3.org/2000/svg" xmlns:xlink="http://www.w3.org/1999/xlink">
    <!-- Generator: Sketch 52.5 (67469) - http://www.bohemiancoding.com/sketch -->
    <title>Redbot</title>
    <desc>Created with Sketch.</desc>
    <g id="Page-1" stroke="none" stroke-width="1" fill="none" fill-rule="evenodd">
        <g id="Redbot">
            <path d="M22.5064897,23.4333812 C22.3446231,23.2367145 22.0078231,23.4479145 22.0834231,23.6796478 C22.1641564,23.9269812 22.1852897,24.2145145 22.1205564,24.4689145 C22.0504897,24.7442478 21.8806897,24.9371812 21.9280897,25.2339145 C21.9576231,25.4185145 22.1738231,25.4931145 22.3317564,25.4630478 C22.7457564,25.3841812 22.8714231,24.8427145 22.8839564,24.4819812 C22.8979564,24.0775812 22.7602231,23.7415812 22.5064897,23.4333812" id="Fill-150" fill="#1B1A19"></path>
            <path d="M21.6992897,23.5680478 C21.6232897,23.4840478 21.4958897,23.5179812 21.4391564,23.6014478 C21.2953564,23.8132478 21.3036231,24.1429812 21.2037564,24.3877145 C21.0970231,24.6492478 20.8584897,24.8875145 20.8628231,25.1745145 C20.8655564,25.3569812 21.0425564,25.5006478 21.2227564,25.4487145 C21.5791564,25.3461812 21.7396231,24.8900478 21.8071564,24.5541145 C21.8666231,24.2578478 21.9153564,23.8066478 21.6992897,23.5680478" id="Fill-151" fill="#1B1A19"></path>
            <path d="M20.9142897,22.9283145 C20.8036897,22.9179812 20.6998231,22.8896478 20.5875564,22.9012478 C20.4352231,22.9169145 20.3080897,22.9781145 20.1972897,23.0835812 C19.9958231,23.2753145 19.8435564,23.6224478 20.0348897,23.8727812 C20.1355564,24.0044478 20.3530231,24.0466478 20.4450231,23.8727812 C20.5194231,23.7322478 20.5402897,23.5703812 20.6288231,23.4403145 C20.6885564,23.3525145 20.7952231,23.1831145 20.9142897,23.1845812 C21.0818231,23.1865812 21.0756897,22.9433812 20.9142897,22.9283145" id="Fill-152" fill="#1B1A19"></path>
            <path d="M0.795156416,24.6177145 C0.778756416,24.3423812 0.850156416,24.0755812 0.821289749,23.8029812 C0.802356416,23.6233812 0.610756416,23.5333812 0.469223082,23.6571145 C-0.032910251,24.0961145 -0.00617691763,25.1626478 0.408756416,25.6433812 C0.577356416,25.8387812 0.932689749,25.6831145 0.920889749,25.4313145 C0.907823082,25.1542478 0.811689749,24.8941812 0.795156416,24.6177145" id="Fill-153" fill="#1B1A19"></path>
            <path d="M2.25348975,25.7627145 C2.22415642,25.4081812 1.97082308,25.1144478 1.91815642,24.7548478 C1.89575642,24.6019812 1.99495642,24.1201145 1.69695642,24.1656478 C1.68108975,24.1681145 1.66528975,24.1705145 1.64942308,24.1729812 C1.57435642,24.1844478 1.52602308,24.2563145 1.50188975,24.3205145 C1.31882308,24.8062478 1.25888975,25.7369812 1.82562308,26.0083145 C2.00222308,26.0929145 2.27275642,25.9957145 2.25348975,25.7627145" id="Fill-154" fill="#1B1A19"></path>
            <path d="M3.36848975,23.7641145 C3.26188975,23.2898478 2.76022308,22.9555145 2.31535642,22.8541812 C2.07368975,22.7990478 1.89982308,23.1478478 2.13962308,23.2710478 C2.30335642,23.3552478 2.43322308,23.4673812 2.56375642,23.5958478 C2.69775642,23.7276478 2.77775642,23.8942478 2.89242308,24.0411812 C3.08068975,24.2824478 3.42468975,24.0142478 3.36848975,23.7641145" id="Fill-155" fill="#1B1A19"></path>
            <path d="M22.8689564,22.8204478 C22.8780897,22.7426478 22.8810897,22.6626478 22.8754231,22.5805812 C22.8380897,22.0389145 22.4758897,21.5621812 21.9821564,21.3502478 C21.3994897,21.1001145 20.8276897,21.3484478 20.5284897,21.8894478 C20.0041564,22.8376478 20.5426897,24.4580478 21.8090231,24.3281812 C22.4243564,24.2651145 22.8694231,23.7003812 22.8912897,23.0973812 C22.8944897,23.0097812 22.8866231,22.9163145 22.8689564,22.8204478" id="Fill-156" fill="#AB2531"></path>
            <path d="M1.90042308,21.7998478 C1.86602308,21.7853145 1.83088975,21.7730478 1.79542308,21.7617812 C1.72708975,21.5980478 1.57275642,21.4669145 1.38388975,21.4728478 C0.884023082,21.4885812 0.488689749,21.9535145 0.256289749,22.3597145 C0.0192230824,22.7741145 -0.0691769176,23.2973812 0.0583564157,23.7617812 C0.333623082,24.7643145 1.69562308,25.2003145 2.35915642,24.2995145 C2.90095642,23.5639812 2.82862308,22.1910478 1.90042308,21.7998478" id="Fill-157" fill="#AB2531"></path>
            <path d="M20.7284897,12.6739812 C20.7053564,12.3382478 20.5852897,12.1465812 20.3201564,11.9465812 C20.1804231,11.8411812 20.0381564,11.7373145 19.8908897,11.6425812 C19.5762897,11.4402478 19.2290897,11.2824478 18.8758231,11.1618478 C18.2998897,10.9651145 17.7804897,11.8122478 18.2646897,12.2116478 C18.5416897,12.4401145 18.8273564,12.6599812 19.1156231,12.8741812 C19.2193564,12.9513145 19.3228231,13.0276478 19.4242897,13.1075145 C19.7004231,13.3249145 19.8890231,13.3725145 20.2375564,13.3188478 C20.5075564,13.2772478 20.7468897,12.9403145 20.7284897,12.6739812" id="Fill-158" fill="#AB2531"></path>
            <path d="M4.51542308,10.8478478 C4.04408975,10.8931812 3.60595642,11.2105812 3.20815642,11.4522478 C2.73455642,11.7400478 2.13515642,11.9255812 2.11282308,12.5688478 C2.10608975,12.7627145 2.23035642,13.0204478 2.41775642,13.1004478 C2.74175642,13.2387145 2.98715642,13.2553145 3.29715642,13.0569145 C3.53182308,12.9067145 3.75115642,12.7106478 3.96695642,12.5348478 C4.32935642,12.2396478 4.79675642,11.8589145 4.93428975,11.3976478 C5.00902308,11.1471145 4.79702308,10.8207145 4.51542308,10.8478478" id="Fill-159" fill="#AB2531"></path>
            <path d="M16.1276897,33.5844478 C15.4444231,34.3091145 14.8162897,35.0851145 14.2504231,35.9044478 C16.5134231,35.9971145 18.7812897,35.9691145 21.0413564,35.8217812 C20.6803564,35.1764478 20.3174897,34.5324478 19.9527564,33.8891145 L16.1276897,33.5844478" id="Fill-160" fill="#AB2531"></path>
            <path d="M4.61875642,33.5844478 C3.93548975,34.3091145 3.30735642,35.0851145 2.74155642,35.9044478 C5.00455642,35.9971145 7.27235642,35.9691145 9.53242308,35.8217812 C9.17148975,35.1764478 8.80862308,34.5324478 8.44382308,33.8891145 L4.61875642,33.5844478" id="Fill-161" fill="#AB2531"></path>
            <path d="M17.8894231,22.6735145 C17.5680897,21.6399145 16.8758897,20.7833812 15.9935564,20.1721812 C15.6712231,19.9488478 15.2615564,20.1030478 15.0370231,20.3839812 C14.9395564,20.4271812 14.8504231,20.4958478 14.7766231,20.5945812 C14.5800897,20.8575812 14.5597564,21.2913812 14.8319564,21.5236478 C15.4883564,22.0836478 16.0014897,22.7277812 16.4048897,23.4903145 C16.6808231,24.0117145 17.3010897,23.8643812 17.5449564,23.4753812 C17.8136897,23.3215812 17.9984897,23.0243812 17.8894231,22.6735145" id="Fill-162" fill="#AB2531"></path>
            <path d="M7.31688975,20.2602478 C7.20648975,20.2894478 7.13942308,20.3981145 7.08355642,20.4977145 C6.89342308,20.8367812 6.70328975,21.1757812 6.51308975,21.5148478 C6.15988975,22.1446478 5.79515642,22.8242478 5.85755642,23.5436478 C6.48522308,23.7178478 7.11288975,23.8919145 7.74055642,24.0660478 C7.86568975,22.9588478 8.47582308,21.9743145 9.07062308,21.0320478 L7.31688975,20.2602478" id="Fill-163" fill="#AB2531"></path>
            <path d="M3.97682308,9.57918118 C3.79235642,9.70144785 3.60055642,9.84098118 3.52362308,10.0485145 C3.46728975,10.2002478 3.48082308,10.3679145 3.49695642,10.5290478 C3.92388975,14.7911812 5.98155642,18.2976478 8.02228975,21.9350478 C8.08148975,22.0405145 8.14808975,22.1492478 8.25342308,22.2087812 C8.36548975,22.2720478 8.50162308,22.2689145 8.63022308,22.2640478 C10.8616231,22.1791145 13.0929564,22.0941812 15.3242231,22.0093145 C16.9503564,19.3386478 18.4805564,16.2173145 19.1053564,13.1369812 C19.2300897,12.5218478 19.7899564,10.5255145 19.1568897,10.1342478 C18.0042231,9.42184785 17.0679564,8.37404785 15.9833564,7.56998118 C14.7808231,6.67844785 13.7580231,6.17431452 12.2578231,5.90704785 C11.7165564,5.81071452 11.1680231,5.72511452 10.6193564,5.75898118 C8.00895642,5.92031452 6.01688975,8.22678118 3.97682308,9.57918118" id="Fill-164" fill="#1B1A19"></path>
            <path d="M6.86902308,3.43064785 C6.44222308,4.81271452 6.45882308,6.28724785 6.47935642,7.73364785 C6.51482308,10.2398478 5.34415642,14.4005145 8.72102308,15.3430478 C9.78562308,15.6401812 11.3789564,15.4172478 12.4976897,15.3767145 C13.6851564,15.3337812 15.0066231,15.0840478 15.5380231,13.8773145 C16.1735564,12.4341812 16.1347564,10.5226478 16.1769564,8.97598118 C16.2276897,7.11558118 16.4341564,5.13771452 16.0122231,3.31424785 C15.4220897,0.764247849 12.2660897,-0.644085484 9.90788975,0.289381183 C8.51882308,0.839181183 7.31542308,1.98524785 6.86902308,3.43064785" id="Fill-165" fill="#AB2531"></path>
            <path d="M9.34988975,2.67398118 C9.28042308,2.71718118 9.21175642,2.76311452 9.14382308,2.81191452 C7.65622308,3.88124785 7.22468975,6.03864785 8.05848975,7.65238118 C8.32828975,8.17458118 8.74368975,8.61778118 9.23662308,8.93784785 C10.4119564,9.70124785 12.0362231,9.70318118 13.2133564,8.94264785 C14.3906231,8.18204785 15.0564231,6.70064785 14.8436897,5.31531452 C14.4497564,2.75058118 11.5427564,1.31164785 9.34988975,2.67398118" id="Fill-166" fill="#1B1A19"></path>
            <path d="M9.64515642,3.16191452 C9.58648975,3.19838118 9.52842308,3.23724785 9.47102308,3.27844785 C8.21335642,4.18244785 7.84862308,6.00624785 8.55348975,7.37051452 C8.78155642,7.81198118 9.13268975,8.18658118 9.54942308,8.45718118 C10.5430231,9.10251452 11.9160897,9.10418118 12.9112897,8.46118118 C13.9064897,7.81824785 14.4693564,6.56584785 14.2895564,5.39478118 C13.9564897,3.22658118 11.4990231,2.01011452 9.64515642,3.16191452" id="Fill-167" fill="#DF6F92"></path>
            <path d="M9.79108975,3.40298118 C9.73775642,3.43618118 9.68488975,3.47144785 9.63268975,3.50904785 C8.48875642,4.33131452 8.15695642,5.99024785 8.79808975,7.23118118 C9.00555642,7.63271452 9.32495642,7.97351452 9.70402308,8.21964785 C10.6078231,8.80664785 11.8567564,8.80811452 12.7619564,8.22331452 C13.6672231,7.63844785 14.1792231,6.49924785 14.0156231,5.43404785 C13.7127564,3.46191452 11.4773564,2.35538118 9.79108975,3.40298118" id="Fill-168" fill="#3B3A39"></path>
            <path d="M10.0854897,3.57371452 C10.0438897,3.59964785 10.0026897,3.62718118 9.96195642,3.65651452 C9.06975642,4.29778118 8.81095642,5.59164785 9.31102308,6.55951452 C9.47282308,6.87271452 9.72195642,7.13844785 10.0175564,7.33044785 C10.7224897,7.78824785 11.6966231,7.78944785 12.4026231,7.33324785 C13.1086231,6.87711452 13.5079564,5.98864785 13.3803564,5.15784785 C13.1441564,3.61971452 11.4006897,2.75671452 10.0854897,3.57371452" id="Fill-169" fill="#515251"></path>
            <path d="M10.7416897,3.79871452 C10.3505564,3.85598118 9.99048975,4.22791452 9.78575642,4.54884785 C9.56895642,4.88878118 9.48075642,5.30011452 9.55102308,5.69464785 C9.57755642,5.84371452 9.80295642,5.81678118 9.83448975,5.68584785 C9.91002308,5.37231452 10.0213564,5.07778118 10.2118231,4.81551452 C10.3004897,4.69338118 10.4014897,4.57784785 10.5191564,4.48258118 C10.6481564,4.37818118 10.8027564,4.31758118 10.9258231,4.20711452 C11.0746231,4.07364785 10.9470897,3.76871452 10.7416897,3.79871452" id="Fill-170" fill="#797B7A"></path>
            <path d="M11.4612231,3.63898118 C11.1800231,3.64764785 11.1930231,4.08471452 11.4746897,4.07604785 C11.7559564,4.06731452 11.7428897,3.63024785 11.4612231,3.63898118" id="Fill-171" fill="#797B7A"></path>
            <path d="M21.2459564,33.9497812 C21.1792231,30.4657145 20.5463564,26.9933145 19.3796897,23.7099145 C18.9308231,22.4467145 16.5927564,22.8206478 15.7340897,23.5390478 C15.1384897,24.0375145 14.9682231,24.8694478 14.8478231,25.6366478 C14.4010897,28.4817145 14.1330897,31.3547145 14.0458897,34.2331145 C16.3400897,34.3331145 18.6378897,34.3517812 20.9334231,34.2884478 L21.2459564,33.9497812" id="Fill-172" fill="#1B1A19"></path>
            <path d="M2.80322308,33.9497812 C2.86995642,30.4657145 3.50282308,26.9933145 4.66948975,23.7099145 C5.11835642,22.4467145 7.45642308,22.8206478 8.31502308,23.5390478 C8.91062308,24.0375145 9.08095642,24.8694478 9.20142308,25.6366478 C9.64808975,28.4817145 9.91608975,31.3547145 10.0032897,34.2331145 C7.70902308,34.3331145 5.41128975,34.3517812 3.11575642,34.2884478 L2.80322308,33.9497812" id="Fill-173" fill="#1B1A19"></path>
            <path d="M10.9588231,16.1546478 C10.4906897,16.4297145 10.1911564,16.9918478 10.3133564,17.5351812 C10.4182897,18.0019812 10.8464897,18.3497145 11.3127564,18.3421812 C11.9763564,18.5254478 12.7373564,18.0927145 12.9612231,17.3859145 C13.3390897,16.1928478 11.8322231,15.6413812 10.9588231,16.1546478" id="Fill-174" fill="#AB2531"></path>
            <path d="M12.3976231,19.6775145 C12.3262897,19.4041812 12.0681564,19.2097812 11.7862231,19.2115812 C11.6508897,19.2124478 11.4909564,19.2708478 11.3976231,19.3725812 C11.2956231,19.4835812 11.2454897,19.6097145 11.2366231,19.7611812 C11.2304897,19.8653145 11.2671564,19.9819812 11.3185564,20.0722478 C11.3491564,20.1259812 11.3919564,20.1831812 11.4382897,20.2252478 C11.4857564,20.2683145 11.5388897,20.3069145 11.5960231,20.3375145 C11.6058897,20.3442478 11.6151564,20.3517145 11.6255564,20.3577812 C11.8242897,20.4737145 12.0818897,20.4509812 12.2468231,20.2851812 C12.4004231,20.1307812 12.4519564,19.8856478 12.3976231,19.6775145" id="Fill-175" fill="#AB2531"></path>
            <path d="M20.1937564,22.2775812 C21.0035564,22.0743812 21.8133564,21.8711812 22.6231564,21.6679812 C23.0144231,21.5697812 22.4336897,16.5125145 22.3668897,15.9885812 C22.1398897,14.2073145 21.9288897,12.2284478 21.0068231,10.6743812 C20.4664897,9.76384785 19.9917564,12.2403145 19.9564897,12.4103812 C19.6406897,13.9337145 19.4896231,15.4911145 19.5042231,17.0467145 C19.5082897,17.4857145 19.9536231,22.3377812 20.1937564,22.2775812" id="Fill-176" fill="#1B1A19"></path>
            <path d="M2.77548975,22.2775812 C1.96568975,22.0743812 1.15588975,21.8711812 0.346156416,21.6679812 C-0.0451769176,21.5697812 0.535556416,16.5125145 0.602356416,15.9885812 C0.829356416,14.2073145 1.04035642,12.2284478 1.96248975,10.6743812 C2.50275642,9.76384785 2.97748975,12.2403145 3.01275642,12.4103812 C3.32855642,13.9337145 3.47962308,15.4911145 3.46508975,17.0467145 C3.46095642,17.4857145 3.01562308,22.3377812 2.77548975,22.2775812" id="Fill-177" fill="#1B1A19"></path>
            <path d="M19.6778897,32.3657812 C19.3194231,32.2644478 18.9070897,32.3131145 18.5363564,32.3097812 C18.1214231,32.3064478 17.7070897,32.3124478 17.2922897,32.3197812 C17.1360897,32.3224478 15.6182231,32.2931145 15.8308897,32.6944478 C15.9440897,32.9077812 16.2211564,32.9251145 16.4410231,32.9544478 C16.8092897,33.0037812 17.1834897,33.0097812 17.5541564,33.0284478 C17.9034231,33.0464478 18.2522231,33.0604478 18.6018231,33.0691145 C18.9544231,33.0784478 19.3336897,33.1317812 19.6778897,33.0471145 C20.0216897,32.9617812 20.0062231,32.4591145 19.6778897,32.3657812" id="Fill-178" fill="#AB2531"></path>
            <path d="M7.70468975,32.9031145 C7.44835642,32.5491145 7.08168975,32.6037812 6.68215642,32.5884478 C6.27815642,32.5731145 5.87028975,32.5611145 5.46602308,32.5704478 C5.03695642,32.5797812 3.91988975,32.5137812 3.77088975,33.0591145 C3.75348975,33.1224478 3.78155642,33.2044478 3.84268975,33.2357812 C4.06748975,33.3504478 4.34535642,33.2577812 4.59448975,33.2831145 C4.92922308,33.3164478 5.25982308,33.3791145 5.59402308,33.4164478 C5.93428975,33.4537812 6.27682308,33.4837812 6.61815642,33.5091145 C6.97515642,33.5357812 7.38055642,33.6471145 7.64702308,33.3497812 C7.74788975,33.2377812 7.80268975,33.0384478 7.70468975,32.9031145" id="Fill-179" fill="#AB2531"></path>
            <path d="M21.9686897,18.1910478 C21.8968231,17.6492478 21.8344897,17.1061812 21.7807564,16.5623145 C21.7292231,16.0399145 21.6797564,15.5170478 21.6362231,14.9939145 C21.5980897,14.5358478 21.6076231,13.9665812 21.4166231,13.5450478 C21.3591564,13.4182478 21.1875564,13.4748478 21.1481564,13.5801145 C20.9864231,14.0119812 21.0559564,14.6041812 21.0736231,15.0593812 C21.0948231,15.6049812 21.1290897,16.1487812 21.1770897,16.6927812 C21.2231564,17.2147145 21.2774897,17.7358478 21.3400231,18.2561145 C21.3992897,18.7490478 21.3956231,19.3681145 21.5847564,19.8273145 C21.7108231,20.1335145 22.1394897,20.0973145 22.1678897,19.7484478 C22.2083564,19.2509145 22.0344231,18.6865812 21.9686897,18.1910478" id="Fill-180" fill="#AB2531"></path>
            <path d="M1.77375642,14.6186478 C1.76688975,14.4192478 1.45595642,14.3580478 1.41162308,14.5696478 C1.20028975,15.5783812 1.11728975,16.5854478 1.05095642,17.6129812 C1.01728975,18.1341145 0.984889749,18.6555145 0.963423082,19.1772478 C0.946556416,19.5871812 0.798089749,20.1819812 1.07595642,20.5147145 C1.15528975,20.6097812 1.32188975,20.5981145 1.40295642,20.5147145 C1.57228975,20.3405145 1.56382308,20.1945145 1.57402308,19.9597812 C1.58542308,19.6989145 1.59768975,19.4380478 1.61095642,19.1772478 C1.63622308,18.6775812 1.65795642,18.1777145 1.68528975,17.6781145 C1.74122308,16.6543812 1.80935642,15.6440478 1.77375642,14.6186478" id="Fill-181" fill="#AB2531"></path>
        </g>
    </g>
</svg>