<?xml version="1.0" encoding="UTF-8"?>
<svg width="18px" height="36px" viewBox="0 0 18 36" version="1.1" xmlns="http://www.w3.org/2000/svg" xmlns:xlink="http://www.w3.org/1999/xlink">
    <!-- Generator: Sketch 52.5 (67469) - http://www.bohemiancoding.com/sketch -->
    <title>silverbot</title>
    <desc>Created with Sketch.</desc>
    <defs>
        <polygon id="path-1" points="0.0353683277 0.0455184611 8.73568254 0.0455184611 8.73568254 9.07936508 0.0353683277 9.07936508"></polygon>
    </defs>
    <g id="Page-1" stroke="none" stroke-width="1" fill="none" fill-rule="evenodd">
        <g id="silverbot">
            <path d="M12.2062454,26.9367619 C12.1504359,26.4256508 12.0797692,25.9187937 11.7411025,25.5113651 C11.5438962,25.2740952 11.2065629,25.6146032 11.4023724,25.8501587 C11.7005311,26.2088254 11.7179914,26.771619 11.753547,27.2149841 C11.7958327,27.7419048 11.7924676,28.2704762 11.7510708,28.7973333 C11.7269438,29.1046984 12.2061184,29.1031746 12.2301184,28.7973333 C12.2788803,28.1773968 12.273801,27.5551111 12.2062454,26.9367619" id="Fill-19" fill="#3B3A39"></path>
            <path d="M10.6992613,25.731746 L10.689674,28.5582857 C10.6885946,28.8665397 11.1676422,28.8669841 11.1687216,28.5582857 L11.1783089,25.731746 C11.1793883,25.4234921 10.7003406,25.4230476 10.6992613,25.731746" id="Fill-20" fill="#3B3A39"></path>
            <path d="M7.20434064,25.9067302 C7.15202318,25.6034921 6.6902454,25.7320635 6.74237239,26.0340952 C6.91259461,27.019873 6.92808667,28.0312381 6.78472159,29.0215873 C6.74103905,29.3231746 7.20262636,29.4533333 7.24668985,29.1488889 C7.40332477,28.0670476 7.39037239,26.9841905 7.20434064,25.9067302" id="Fill-21" fill="#3B3A39"></path>
            <path d="M6.30313429,25.7454603 C6.28237239,25.7124444 6.25392794,25.6831746 6.22205493,25.6664127 C6.16649937,25.6370159 6.09913429,25.6222857 6.0374835,25.6422222 C5.98027715,25.6607619 5.9222454,25.6967619 5.8943089,25.7523175 C5.8783089,25.784254 5.8623089,25.816127 5.8462454,25.8480635 C5.81722953,25.9057778 5.80453112,25.9688254 5.82211842,26.0326349 C5.83742001,26.0881905 5.88040413,26.1484444 5.93221366,26.175746 C5.94408667,26.1820952 5.95659461,26.1874921 5.96935651,26.192254 C5.88713429,27.1866667 5.86472159,28.184127 5.90383271,29.1815238 C5.9158962,29.4888254 6.39500731,29.4903492 6.38288032,29.1815238 C6.34084858,28.1095873 6.36891207,27.0375238 6.4670708,25.9692698 C6.47900731,25.8394921 6.40015017,25.7652063 6.30313429,25.7454603" id="Fill-22" fill="#3B3A39"></path>
            <path d="M11.425293,33.0298413 C10.7788803,32.8946032 10.3800867,33.687619 10.7891025,34.1809524 C11.1920867,34.6679365 12.0847216,34.5625397 12.2497375,33.9073016 C12.3872613,33.3619048 11.8993883,32.9479365 11.425293,33.0298413" id="Fill-23" fill="#3B3A39"></path>
            <path d="M7.47659461,33.4488889 C7.30592794,33.1542857 6.9942454,33.0622222 6.71443588,33.1238095 C6.65468985,33.0190476 6.53005493,32.9574603 6.40091207,33.0444444 C5.87811842,33.3968254 5.90554699,34.2298413 6.53157874,34.455873 C7.13894382,34.6755556 7.83551525,34.0685714 7.47659461,33.4488889" id="Fill-24" fill="#3B3A39"></path>
            <path d="M1.95500731,26.5804444 C1.7718962,26.4151111 1.74218191,26.147619 1.70529302,25.9154921 C1.66040413,25.6326984 1.6446581,25.3473016 1.64637239,25.0612698 C1.64815017,24.7528889 1.16910255,24.7525714 1.16726128,25.0612698 C1.16516604,25.419746 1.19481683,25.7763175 1.25811842,26.1293333 C1.31068985,26.4224127 1.38776921,26.7128889 1.61627715,26.9192381 C1.84459461,27.1253968 2.18440413,26.787619 1.95500731,26.5804444" id="Fill-25" fill="#3B3A39"></path>
            <path d="M2.9294835,26.112381 C2.65138826,25.7295238 2.51367398,25.2958095 2.52910255,24.8224127 C2.53913429,24.5140317 2.06002318,24.5144127 2.05005493,24.8224127 C2.03215017,25.3724444 2.19202318,25.908381 2.51576921,26.3541587 C2.69519778,26.6012063 3.11100731,26.3624127 2.9294835,26.112381" id="Fill-26" fill="#3B3A39"></path>
            <path d="M17.0930391,24.9505397 C16.8619279,24.7483175 16.5217375,25.0857778 16.7542454,25.2893333 C17.0964676,25.5887619 17.2782454,26.0316825 17.2004041,26.4864127 C17.1487216,26.788 17.6103724,26.9175238 17.6623724,26.6137778 C17.7684676,25.9942222 17.5710073,25.3688254 17.0930391,24.9505397" id="Fill-27" fill="#3B3A39"></path>
            <path d="M16.7710708,25.5281905 C16.6642137,25.2419048 16.2009756,25.3658413 16.309166,25.6555556 C16.4477057,26.0270476 16.4355787,26.4081905 16.2473883,26.7609524 C16.1023089,27.0328889 16.5157057,27.2751746 16.6611025,27.0027937 C16.905547,26.5444444 16.953674,26.0175873 16.7710708,25.5281905" id="Fill-28" fill="#3B3A39"></path>
            <path d="M15.6843406,25.587873 C15.6427533,26.0172698 15.4898645,26.4102857 15.2488486,26.7663492 C15.0756422,27.0223492 15.4904994,27.2623492 15.6625629,27.008127 C15.9522771,26.58 16.1136105,26.1009524 16.1634518,25.587873 C16.193166,25.2811429 15.7139279,25.2832381 15.6843406,25.587873" id="Fill-29" fill="#3B3A39"></path>
            <path d="M14.9875152,25.0875556 C14.6602137,25.2970794 14.4249121,25.6193651 14.3424994,26.0011429 C14.277674,26.3018413 14.7393883,26.4302222 14.8044676,26.1285079 C14.8608486,25.8672381 15.0025629,25.6463492 15.2293565,25.5012063 C15.4882137,25.3354921 15.2482771,24.9206349 14.9875152,25.0875556" id="Fill-30" fill="#3B3A39"></path>
            <path d="M3.76529302,24.4647619 C3.52440413,23.9630476 3.01684858,23.6510476 2.46497556,23.6328889 C2.40929302,23.6311111 2.3638962,23.6453968 2.32834064,23.6698413 C2.22192794,22.5756825 2.00967398,21.4950476 1.69005493,20.4420952 C1.60072159,20.147873 1.13818191,20.2732063 1.22808667,20.5693968 C1.58186445,21.7346667 1.80510255,22.9318095 1.88891207,24.1467937 C1.91005493,24.4526984 2.38929302,24.4550476 2.36802318,24.1467937 C2.36662636,24.1271746 2.36497556,24.1075556 2.36357874,24.0879365 C2.39253112,24.1020317 2.4263089,24.1107302 2.46497556,24.112 C2.85799144,24.1248889 3.18332477,24.3560635 3.35164223,24.7066032 C3.48503905,24.9844444 3.8982454,24.7416508 3.76529302,24.4647619" id="Fill-31" fill="#3B3A39"></path>
            <path d="M1.17615017,24.4319365 C0.744531118,23.3092063 0.59075334,22.0951111 0.758499372,20.9017143 C0.800848578,20.6001905 0.339324769,20.4698413 0.296531118,20.7743492 C0.11659461,22.0544762 0.249546991,23.3506667 0.714181912,24.5593016 C0.718880324,24.5714921 0.724467626,24.5826667 0.730308896,24.5933333 C0.719134293,24.6063492 0.708785086,24.6211429 0.699388261,24.6380317 C0.336912071,25.2898413 0.240340642,26.0406984 0.427451753,26.7629206 C0.504721594,27.0612063 0.966943817,26.9347302 0.889420007,26.635619 C0.734499372,26.0377778 0.812785086,25.4196825 1.11303905,24.879746 C1.15659461,24.8014603 1.15240413,24.7255238 1.12116604,24.6638095 C1.18332477,24.6136508 1.21500731,24.5329524 1.17615017,24.4319365" id="Fill-32" fill="#3B3A39"></path>
            <path d="M15.9839597,21.0468571 C15.8637692,20.764254 15.4126581,20.9259683 15.5336105,21.2102857 C16.005674,22.320127 16.3226264,23.4829841 16.4728486,24.6798095 C16.5111343,24.9852063 16.9889756,24.948127 16.9504994,24.6418413 C16.7951978,23.4041905 16.4722137,22.1947937 15.9839597,21.0468571" id="Fill-33" fill="#3B3A39"></path>
            <path d="M14.7029438,21.7470476 C14.7944994,22.7711111 14.8993248,23.8136508 15.3400867,24.756254 C15.469674,25.0332698 15.921166,24.8724444 15.7904359,24.5928254 C15.3663089,23.6858413 15.2686581,22.6942222 15.1805946,21.7092063 C15.153166,21.4018413 14.6754518,21.4398095 14.7029438,21.7470476" id="Fill-34" fill="#3B3A39"></path>
            <path d="M11.2706264,21.500381 C11.1896105,21.2032381 10.7273248,21.3293333 10.8086581,21.6276825 C11.0934835,22.672 11.2581819,23.7391746 11.2988168,24.8208889 C11.3104359,25.1281905 11.789547,25.1297778 11.7779279,24.8208889 C11.7356422,23.6980952 11.5663089,22.584381 11.2706264,21.500381" id="Fill-35" fill="#3B3A39"></path>
            <path d="M11.0697375,24.8225397 C11.0144359,23.8164444 10.8757692,22.8171429 10.6544359,21.8341587 C10.5868168,21.5335238 10.1247216,21.6607619 10.1925311,21.9615238 C10.4046581,22.903873 10.537674,23.8580317 10.5906898,24.8225397 C10.6075152,25.1291429 11.0867533,25.1311111 11.0697375,24.8225397" id="Fill-36" fill="#3B3A39"></path>
            <path d="M7.23697556,21.9841905 C7.00218191,22.9934603 6.88142001,24.0248889 6.8790708,25.0612063 C6.87837239,25.3694603 7.35742001,25.3699048 7.35811842,25.0612063 C7.36040413,24.0661587 7.4734835,23.0806984 7.69894382,22.111619 C7.76872159,21.811619 7.30694382,21.6835556 7.23697556,21.9841905" id="Fill-37" fill="#3B3A39"></path>
            <path d="M6.69335651,21.5493333 C6.35615017,22.6925714 6.15500731,23.8702222 6.08878509,25.0601905 C6.07164223,25.368254 6.55075334,25.3673016 6.5678962,25.0601905 C6.63176921,23.9116825 6.82992794,22.7799365 7.15532477,21.6766984 C7.24275334,21.380381 6.78053112,21.2538413 6.69335651,21.5493333" id="Fill-38" fill="#3B3A39"></path>
            <path d="M9.24326128,18.980381 C9.21481683,18.703873 8.8278962,18.6704127 8.77176921,18.9136508 C8.73684858,18.8942857 8.69678509,18.8813968 8.6503089,18.8772698 C8.50510255,18.8646984 8.40859461,18.9454603 8.35888032,19.0584127 C8.3318962,19.0538413 8.3046581,19.0535238 8.2783089,19.0569524 C8.14942001,18.9069841 7.84275334,18.9544127 7.85481683,19.2023492 C7.86522953,19.4152381 7.87557874,19.628 7.88599144,19.8408254 C7.89329302,19.9905397 7.87538826,20.1627937 7.91678509,20.308381 C8.00497556,20.6180317 8.49335651,20.5827302 8.74561048,20.5865397 C9.0510708,20.5911111 9.3726581,20.5686984 9.36751525,20.1857143 C9.36211842,19.7878095 9.28408667,19.3764444 9.24326128,18.980381" id="Fill-39" fill="#3B3A39"></path>
            <path d="M15.7437692,21.1899048 C15.6107533,20.0302857 15.4779279,18.868381 15.2532295,17.7222222 C15.0651025,16.7626667 14.8828803,15.6232381 14.1625629,14.9012698 C13.9444676,14.6827937 13.605674,15.0214603 13.8237692,15.2400635 C14.1479597,15.5648889 14.3217375,15.9832381 14.4506898,16.4169524 C14.5993248,16.9166984 14.7108168,17.4288889 14.8089121,17.9406984 C15.0149438,19.0155556 15.1400867,20.1033016 15.2646581,21.1899048 C15.2994518,21.4926984 15.7789438,21.4961905 15.7437692,21.1899048" id="Fill-40" fill="#3B3A39"></path>
            <path d="M14.7433883,21.1188571 C14.3263724,19.1667302 13.9515787,17.2058413 13.6191343,15.2375873 C13.593547,15.0859048 13.46542,15.0422857 13.3499279,15.0741587 C13.353166,15.0083175 13.345674,14.9420317 13.3249756,14.8780317 C13.2149438,14.5380317 12.881166,14.3382857 12.5293565,14.4262857 C12.2151978,14.5048889 11.9068168,14.6005079 11.6031978,14.7133333 C11.2870073,14.8308571 11.03742,15.156381 11.1514518,15.5088889 C11.2517057,15.8185397 11.6075787,16.0867937 11.9470073,15.9606349 C12.2506898,15.847746 12.5590073,15.7521905 12.8732295,15.6735873 C12.9912613,15.6440635 13.0960867,15.5747937 13.1774835,15.4834921 C13.5049756,17.412 13.8728486,19.3333333 14.28142,21.2462222 C14.345801,21.5475556 14.8077057,21.4200635 14.7433883,21.1188571" id="Fill-41" fill="#3B3A39"></path>
            <path d="M5.75094382,14.6155556 C5.60199144,14.5740317 5.45634064,14.5256508 5.31132477,14.4723175 C5.28853112,14.4639365 5.27259461,14.4582857 5.26161048,14.4545397 C5.25164223,14.4499048 5.23868985,14.4439365 5.22173747,14.436254 C5.14135651,14.399873 5.0623089,14.3612063 4.98376921,14.3210794 C4.68275334,14.1674286 4.26840413,14.2324444 4.09894382,14.5532063 C4.01608667,14.7099048 3.9966581,14.9029841 4.04402318,15.0746032 C3.92649937,14.9926349 3.7182454,15.0100317 3.6470708,15.1873016 C3.25595969,16.1610794 2.81380096,17.1138413 2.32262636,18.0412063 C2.08611842,18.4876825 1.83837239,18.928254 1.57976921,19.3623492 C1.44288032,19.592 1.30440413,19.8212063 1.15976921,20.0460317 C1.12922953,20.0935873 0.83259461,20.4999365 0.773673975,20.3096508 C0.764086674,20.2785397 0.75011842,20.252381 0.733229531,20.2304762 C1.45145175,18.3325079 2.43678509,16.5443175 3.65094382,14.9178413 C3.83551525,14.6706032 3.41983271,14.4315556 3.23729302,14.676 C1.94453112,16.407873 0.917546991,18.3216508 0.177991436,20.3519365 C0.111705721,20.5339048 0.268975563,20.6508571 0.421293023,20.6418413 C0.664404134,20.9266667 1.14675334,20.8309206 1.39551525,20.5365714 C1.59373747,20.3021587 1.74345175,20.0189841 1.90167398,19.7570159 C2.07068985,19.4771429 2.23513429,19.1945397 2.39500731,18.9093968 C3.04484858,17.7500317 3.61373747,16.547746 4.10903905,15.3146032 C4.11761048,15.2933333 4.12262636,15.2730159 4.12510255,15.2535873 C4.17551525,15.3289524 4.24345175,15.3933333 4.33094382,15.4380317 C4.67475334,15.6135873 5.0350708,15.7591111 5.4070708,15.8628571 C5.73272159,15.9536508 6.12529302,15.7509206 6.20262636,15.4111111 C6.28072159,15.068381 6.09970572,14.7128254 5.75094382,14.6155556" id="Fill-42" fill="#3B3A39"></path>
            <path d="M9.35100731,10.4452063 C9.35786445,10.0191111 8.97138826,9.61136508 8.53653112,9.63079365 C8.08935651,9.65085714 7.72954699,9.98857143 7.72211842,10.4452063 C7.70300731,11.6193651 7.70757874,12.7935873 7.73576921,13.9674921 C7.74599144,14.3930159 8.1030708,14.8019683 8.55018191,14.7819048 C8.98268985,14.7625397 9.37557874,14.4238095 9.3646581,13.9674921 C9.33640413,12.7935873 9.33183271,11.6193651 9.35100731,10.4452063" id="Fill-43" fill="#3B3A39"></path>
            <path d="M13.88542,6.55314286 C13.8704994,7.41638095 13.8384359,8.27968254 13.7847851,9.14107937 C13.7406581,9.84387302 13.6822454,10.5461587 13.605166,11.2456508 C13.5667533,11.5972698 13.5241502,11.9479365 13.4762137,12.2981587 C13.4628168,12.4016508 4.51043588,12.6086349 3.69075334,12.5626032 C3.67634064,12.5017778 3.66199144,12.4409524 3.64808667,12.3800635 C3.44929302,11.5177778 3.30268985,10.6439365 3.20783271,9.7648254 C3.18434064,9.54349206 3.16091207,9.31644444 3.13983271,9.08406349 C2.88922953,6.34857143 2.89837239,2.95098413 5.1518962,1.10704762 C7.81361048,-1.07174603 12.1070708,0.215492063 13.4479597,3.29307937 C13.889166,4.30628571 13.9045946,5.44787302 13.88542,6.55314286" id="Fill-44" fill="#797B7A"></path>
            <path d="M7.58326128,13.5886349 C6.54218191,13.7398095 5.50091207,14.3192381 5.08529302,15.2857143 C4.46973747,16.7172063 5.4430708,18.7087619 5.81018191,20.1391746 C6.70453112,19.8566349 7.60973747,19.5914286 8.54218191,19.4696508 C9.28421366,19.3727619 9.96351525,19.5069206 10.6978645,19.6249524 C10.9638327,19.667746 11.4684041,19.7986667 11.6377375,20.0288254 C11.777674,19.4525079 11.905801,18.8733968 12.0412295,18.3025397 C12.2245946,17.5296508 12.5449121,16.5314921 12.3369121,15.739746 C12.1758962,15.1267302 11.7383089,14.5301587 11.2153883,14.180127 C10.1802771,13.4873016 8.78078509,13.4147302 7.58326128,13.5886349" id="Fill-45" fill="#797B7A"></path>
            <path d="M15.3268803,15.6669841 C15.297166,15.3987302 13.0302454,15.9611429 12.7902454,16.1177778 C12.701547,16.0588571 12.6920232,15.479619 12.6776105,15.3747302 C12.6517692,15.1840635 12.6412295,15.0164444 12.6680867,14.8544762 C12.6675787,14.8544762 12.6675787,14.8544762 12.6680867,14.8540317 C12.6925311,14.7088889 12.7475787,14.568 12.8491025,14.4194921 C12.9602771,14.2580317 13.0728486,14.0941587 13.2209121,13.9648254 C13.7037692,13.5432381 14.473674,13.683619 14.8550073,14.1794921 C14.9024359,14.2403175 14.9431978,14.3054603 14.9786264,14.3735238 C15.0504359,14.508127 15.1031343,14.6537778 15.1477692,14.799873 C15.2344359,15.0825397 15.2943089,15.3733333 15.3268803,15.6669841" id="Fill-46" fill="#797B7A"></path>
            <path d="M4.83380096,14.7020952 C4.78015017,15.1592381 4.5583089,15.6483175 4.41176921,16.015746 C4.31926128,15.696254 2.2070708,14.7337143 2.1342454,14.9148571 C2.23919778,14.6532698 2.36897556,14.4022857 2.52034064,14.1650794 C2.55583271,14.1095238 2.59272159,14.0544127 2.63246763,14.0012698 C2.72300731,13.8776508 2.82510255,13.7626667 2.94719778,13.6711746 C3.37742001,13.3487619 4.01170572,13.3928254 4.44288032,13.6913016 C4.80167398,13.9399365 4.88027715,14.3093333 4.83380096,14.7020952" id="Fill-47" fill="#797B7A"></path>
            <path d="M0.680975563,19.0387937 C0.0611025467,19.2777143 -0.202579993,20.2798095 0.174499372,20.808 C0.452467626,21.1974603 1.01684858,21.3509206 1.45380096,21.155873 C1.81011842,20.9967619 2.05780096,20.6339048 2.11011842,20.2471111 C2.22294382,19.4132698 1.47056286,18.7344127 0.680975563,19.0387937" id="Fill-48" fill="#797B7A"></path>
            <path d="M9.85234064,5.59447619 C10.0440867,4.99612698 10.5682137,4.52609524 11.1686581,4.35834921 C12.7171025,3.92596825 13.8969121,6.37974603 12.5784359,7.3015873 C12.0445946,7.67479365 11.2916422,7.80749206 10.7111978,7.4664127 C10.0186898,7.05942857 9.59392794,6.40088889 9.85234064,5.59447619" id="Fill-49" fill="#515251"></path>
            <path d="M4.04776921,5.59447619 C4.23951525,4.99612698 4.76357874,4.52609524 5.36408667,4.35834921 C6.91253112,3.92596825 8.09240413,6.37974603 6.77380096,7.3015873 C6.24002318,7.67479365 5.4870708,7.80749206 4.90662636,7.4664127 C4.21411842,7.05942857 3.78935651,6.40088889 4.04776921,5.59447619" id="Fill-50" fill="#515251"></path>
            <path d="M8.37811842,10.1509841 C8.61792794,10.1406349 8.80173747,10.1336508 8.85164223,10.1321905 C9.02097556,10.1269841 10.4118962,10.1342222 10.417293,10.0952381 C10.4689121,9.7208254 10.4859279,9.34069841 10.4678962,8.96304762 C10.4637057,8.87619048 9.50402318,8.89644444 9.42580096,8.89549206 C9.18726128,8.89269841 8.96529302,8.9448254 8.72878509,8.94533333 C8.41894382,8.94609524 8.10910255,8.9544127 7.79945175,8.97009524 C7.69145175,8.97555556 6.67138826,8.98914286 6.65932477,9.07536508 C6.60726128,9.44812698 6.71716604,9.88977778 6.74154699,10.2659683 C6.73926128,10.228127 7.75049937,10.1779048 8.37811842,10.1509841" id="Fill-51" fill="#515251"></path>
            <path d="M8.41792794,9.97428571 C8.60484858,9.96806349 8.74808667,9.96387302 8.78688032,9.96298413 C8.91881683,9.96 10.0027533,9.9695873 10.0068168,9.94285714 C10.045801,9.68577778 10.057801,9.42457143 10.0424359,9.16501587 C10.0389438,9.10533333 9.29113429,9.11606349 9.23018191,9.11511111 C9.04427715,9.11238095 8.87151525,9.14742857 8.68719778,9.14704762 C8.44573747,9.14653968 8.20434064,9.1512381 7.96313429,9.16095238 C7.87894382,9.16438095 7.08408667,9.17022222 7.07500731,9.22946032 C7.03564223,9.48546032 7.12275334,9.78926984 7.14300731,10.0479365 C7.14116604,10.0218413 7.92897556,9.99073016 8.41792794,9.97428571" id="Fill-52" fill="#1B1A19"></path>
            <path d="M10.1985629,5.67860317 C10.3491025,5.20895238 10.7604676,4.84 11.2317692,4.70838095 C12.4470708,4.36895238 13.373166,6.29492063 12.3382454,7.01847619 C11.9192613,7.31136508 11.3282771,7.41561905 10.8727216,7.14787302 C10.329166,6.82844444 9.99576921,6.31155556 10.1985629,5.67860317" id="Fill-53" fill="#1B1A19"></path>
            <path d="M4.39405493,5.67860317 C4.54453112,5.20895238 4.9558962,4.84 5.42713429,4.70838095 C6.64256286,4.36895238 7.56859461,6.29492063 6.53367398,7.01847619 C6.11468985,7.31136508 5.52370572,7.41561905 5.06815017,7.14787302 C4.52459461,6.82844444 4.19119778,6.31155556 4.39405493,5.67860317" id="Fill-54" fill="#1B1A19"></path>
            <path d="M13.7847851,9.14107937 C13.7406581,9.84387302 13.6822454,10.5461587 13.605166,11.2456508 C13.4844041,11.3146667 13.3579279,11.3754921 13.2309438,11.432 C12.0438327,11.9584762 10.7354518,12.1386032 9.44243588,12.2546032 C7.51659461,12.4269841 5.57926128,12.4691429 3.64808667,12.3800635 C3.44929302,11.5177778 3.30268985,10.6439365 3.20783271,9.7648254 C3.18434064,9.54349206 3.16091207,9.31644444 3.13983271,9.08406349 C3.20973747,9.59853968 3.32186445,10.1068571 3.53646763,10.5777778 C3.58580096,10.6860952 3.64522953,10.7972063 3.7463089,10.86 C3.81532477,10.9026667 3.89722953,10.9179683 3.97722953,10.9318095 C6.97716604,11.4587937 10.0527851,11.0425397 13.0699914,10.6252063 C13.1413565,10.6156825 13.2165946,10.603746 13.2717057,10.5577143 C13.3249121,10.5126984 13.3497375,10.4436825 13.3722771,10.3780317 C13.5131025,9.96749206 13.6544359,9.55549206 13.7847851,9.14107937" id="Fill-55" fill="#676867"></path>
            <path d="M13.7859914,10.9538413 C13.7679597,11.4907302 13.6908803,12.0257143 13.5567851,12.5459048 C10.345547,12.7708571 7.12478509,12.8600635 3.90605493,12.8130159 C3.74688032,12.8107302 3.57018191,12.8009524 3.45843588,12.6876825 C3.38529302,12.6135873 3.35468985,12.5084444 3.33094382,12.4071111 C3.24370572,12.0350476 3.14694382,11.5983492 3.11716604,11.2189841 C3.11754699,11.223746 12.8951978,10.9622857 13.7859914,10.9538413" id="Fill-56" fill="#8F928F"></path>
            <path d="M4.68319778,2.23930159 C4.27716604,2.69612698 3.99634064,3.23771429 3.87208667,3.83714286 C3.80973747,4.13809524 4.27145175,4.26673016 4.33405493,3.96450794 C4.44154699,3.44590476 4.66935651,2.97473016 5.02199144,2.57809524 C5.22618191,2.34831746 4.88853112,2.00831746 4.68319778,2.23930159" id="Fill-57" fill="#8F928F"></path>
            <path d="M5.62034064,1.56095238 C5.57475334,1.51904762 5.51481683,1.48793651 5.45100731,1.49079365 C5.38745175,1.49365079 5.32751525,1.51511111 5.28161048,1.56095238 C5.27100731,1.57161905 5.26034064,1.58228571 5.24967398,1.59288889 C5.2062454,1.63631746 5.17957874,1.7008254 5.17957874,1.76228571 C5.17957874,1.82101587 5.20561048,1.8911746 5.24967398,1.93168254 C5.29532477,1.9735873 5.35526128,2.00463492 5.4190708,2.00184127 C5.48262636,1.99898413 5.54256286,1.97752381 5.58846763,1.93168254 L5.62034064,1.89974603 C5.66383271,1.85625397 5.69049937,1.79174603 5.69049937,1.73034921 C5.69049937,1.67155556 5.66446763,1.60139683 5.62034064,1.56095238" id="Fill-58" fill="#8F928F"></path>
            <path d="M10.98542,13.9812063 C10.181293,13.6165714 9.2742454,13.431619 8.42395969,13.4074921 C7.36929302,13.3775873 6.15062636,13.7186032 5.4550708,14.5605714 C4.70415017,15.4694603 4.50522953,17.0006349 5.42757874,17.8568254 C5.63900731,18.0530794 5.90091207,18.1871746 6.17011842,18.2908571 C7.09405493,18.6468571 8.11545175,18.6639365 9.10027715,18.5608254 C9.95151525,18.4716825 10.8221184,18.284127 11.5165946,17.7839365 C11.7842771,17.5911111 12.0236422,17.3506032 12.1757057,17.0579048 C12.7744359,15.9052698 12.1045311,14.4886984 10.98542,13.9812063" id="Fill-59" fill="#8F928F"></path>
            <path d="M14.9786264,14.3735238 C14.945547,14.5627302 14.8099279,14.7333333 14.657674,14.8587937 C14.1114518,15.3091429 13.0163406,15.336 12.6680867,14.8544762 C12.6675787,14.8544762 12.6675787,14.8544762 12.6680867,14.8540317 C12.6925311,14.7088889 12.7475787,14.568 12.8491025,14.4194921 C12.9602771,14.2580317 13.0728486,14.0941587 13.2209121,13.9648254 C13.7037692,13.5432381 14.473674,13.683619 14.8550073,14.1794921 C14.9024359,14.2403175 14.9431978,14.3054603 14.9786264,14.3735238" id="Fill-60" fill="#8F928F"></path>
            <path d="M4.83380096,14.7020952 C4.82903905,14.707873 4.82421366,14.7136508 4.81894382,14.7194286 C4.71208667,14.8410794 4.55068985,14.9019048 4.39113429,14.9292063 C3.95329302,15.0044444 3.50103905,14.859746 3.12205493,14.628381 C2.91557874,14.5023492 2.71392794,14.3346667 2.65018191,14.1018413 C2.64110255,14.0688254 2.63532477,14.0352381 2.63246763,14.0012698 C2.72300731,13.8776508 2.82510255,13.7626667 2.94719778,13.6711746 C3.37742001,13.3487619 4.01170572,13.3928254 4.44288032,13.6913016 C4.80167398,13.9399365 4.88027715,14.3093333 4.83380096,14.7020952" id="Fill-61" fill="#8F928F"></path>
            <path d="M1.1414835,23.1379048 C0.452404134,23.4034921 0.159134293,24.5176508 0.578372388,25.1049524 C0.887515245,25.5379048 1.51500731,25.7085714 2.00084858,25.4916825 C2.39697556,25.3148571 2.67234064,24.9113651 2.73056286,24.4813333 C2.85595969,23.5541587 2.01945175,22.7994921 1.1414835,23.1379048" id="Fill-62" fill="#797B7A"></path>
            <path d="M1.54535651,23.2266667 C0.891007309,23.2353016 0.59043588,23.9845714 0.941800959,24.4992381 C1.15634064,24.8134603 1.55481683,24.9217143 1.8926581,24.8264762 C2.13494382,24.8073016 2.36199144,24.6659683 2.47183271,24.3804444 C2.70357874,23.7783492 2.13615017,23.2189206 1.54535651,23.2266667" id="Fill-63" fill="#8F928F"></path>
            <path d="M15.2968486,23.6855873 C14.7397057,24.1703492 14.8442137,25.3177778 15.4386898,25.7267302 C15.8770391,26.028254 16.5250391,25.9744762 16.9077057,25.6048889 C17.2197057,25.3034921 17.3409756,24.8303492 17.2489121,24.4061587 C17.0504359,23.4919365 16.0066264,23.067873 15.2968486,23.6855873" id="Fill-64" fill="#797B7A"></path>
            <path d="M15.7066898,23.6312381 C15.0946264,23.8626667 15.0677057,24.6695238 15.573674,25.0333968 C15.8824994,25.2554921 16.2939914,25.2213333 16.5790708,25.0165079 C16.8002137,24.915873 16.96542,24.7055238 16.9712613,24.3996825 C16.9837057,23.7546032 16.2594518,23.4222857 15.7066898,23.6312381" id="Fill-65" fill="#8F928F"></path>
            <path d="M14.3089756,19.9580317 C13.8078327,20.3940317 13.9018645,21.4260317 14.4364676,21.7938413 C14.8307533,22.0650159 15.4136105,22.0166984 15.757801,21.684254 C16.0384359,21.4132063 16.1474518,20.9875556 16.0646581,20.6061587 C15.8861184,19.7838095 14.9473248,19.4024762 14.3089756,19.9580317" id="Fill-66" fill="#797B7A"></path>
            <path d="M14.6776105,19.9091429 C14.1270073,20.1172063 14.1028803,20.8429206 14.5579279,21.1702222 C14.8357057,21.3700317 15.2058645,21.3393016 15.4621819,21.1550476 C15.661166,21.0645079 15.809674,20.8753651 15.8149438,20.600254 C15.8261184,20.0200635 15.1746898,19.7212063 14.6776105,19.9091429" id="Fill-67" fill="#8F928F"></path>
            <path d="M1.54688032,19.3206984 C1.21018191,18.8573968 0.615070801,19.0383492 0.319007309,19.4256508 C0.318054928,19.4265397 0.317039055,19.4273651 0.316086674,19.428254 C-0.17724666,19.8782857 0.214689848,20.6382857 0.858880324,20.5666667 C1.40611842,20.5057778 1.91780096,19.8312381 1.54688032,19.3206984" id="Fill-68" fill="#8F928F"></path>
            <path d="M10.6026898,20.2591746 C11.0881502,20.2827302 11.4654835,20.3633651 11.5108168,20.5526984 C11.6150708,20.988 11.6316422,21.4441905 11.5591978,21.8859683 C11.5538645,21.9186667 11.5470073,21.9533968 11.5237692,21.9771429 C11.4958327,22.0057778 11.4522771,22.0105397 11.4123406,22.0135873 C10.5510708,22.08 9.63176921,22.060127 8.78357874,22.2063492 C7.98846763,22.3433651 7.14154699,22.2531429 6.34395969,22.1334603 C5.81754699,22.0544762 5.98643588,20.864127 6.31659461,20.6609524 C6.72268985,20.4109841 7.73678509,20.4353651 8.21868985,20.3885079 C8.4454835,20.3664762 9.70776921,20.215746 10.6026898,20.2591746" id="Fill-69" fill="#8F928F"></path>
            <path d="M10.9088486,23.9894603 C10.2890391,24.2283175 10.0253565,25.2304762 10.4023724,25.7586667 C10.6804041,26.148127 11.2447851,26.3015873 11.6817375,26.1064762 C12.0380549,25.9474921 12.285674,25.5846349 12.3381184,25.1977778 C12.4508803,24.3639365 11.6984994,23.6851429 10.9088486,23.9894603" id="Fill-70" fill="#797B7A"></path>
            <path d="M11.2720867,24.0693968 C10.6835787,24.0771429 10.4132295,24.7510476 10.729293,25.2139048 C10.9222454,25.4965079 11.2805946,25.5939048 11.5844676,25.508254 C11.8023724,25.4909206 12.0065629,25.3638095 12.10542,25.1070476 C12.313801,24.5655238 11.8035152,24.0623492 11.2720867,24.0693968" id="Fill-71" fill="#8F928F"></path>
            <path d="M6.24757874,24.2287619 C5.62776921,24.4676825 5.36402318,25.4697778 5.74110255,25.9979683 C6.01913429,26.3874286 6.58345175,26.5408889 7.02040413,26.3458413 C7.37672159,26.1867937 7.62440413,25.823873 7.67678509,25.4371429 C7.78954699,24.6032381 7.03716604,23.924381 6.24757874,24.2287619" id="Fill-72" fill="#797B7A"></path>
            <path d="M6.61075334,24.3086984 C6.0222454,24.3164444 5.7518962,24.9902857 6.06795969,25.4532063 C6.26091207,25.735873 6.61926128,25.8332698 6.92313429,25.7475556 C7.14103905,25.7302857 7.34522953,25.6031746 7.44408667,25.3464127 C7.65246763,24.8048254 7.14218191,24.3017143 6.61075334,24.3086984" id="Fill-73" fill="#8F928F"></path>
            <path d="M12.1884676,27.1259048 C12.0712613,27.0455238 11.9422454,26.9669206 11.8000232,26.9661587 C11.6790073,26.9655238 11.5657375,27.0215238 11.4585629,27.0778413 C11.0278962,27.3044444 10.6115152,27.5582222 10.2128486,27.8372698 C10.0993883,27.9166349 9.98218191,28.004381 9.9278962,28.1318095 C9.87170572,28.2635556 9.89272159,28.4137778 9.91481683,28.5553016 C10.1303089,29.9399365 10.3459279,31.3245714 10.5614835,32.7092063 C10.5841502,32.8539683 10.6073883,33.0019048 10.6701819,33.1339683 C10.8959597,33.6114286 11.5127851,33.7219048 12.0381184,33.7720635 C12.1584359,33.7834921 12.2900549,33.791746 12.3892295,33.7231746 C12.47342,33.6647619 12.5148168,33.5631746 12.5510708,33.4679365 C13.00542,32.2673016 13.3444676,31.0234286 13.5625629,29.7586667 C13.6562771,29.2148571 13.7842137,28.8275556 13.4784359,28.3619683 C13.1588168,27.8754286 12.6642771,27.4523175 12.1884676,27.1259048" id="Fill-74" fill="#8F928F"></path>
            <g id="Group-79" transform="translate(4.541039, 26.920635)">
                <mask id="mask-2" fill="white">
                    <use xlink:href="#path-1"></use>
                </mask>
                <g id="Clip-76"></g>
                <path d="M1.51765079,0.205269841 C1.63492063,0.124888889 1.76387302,0.0462857143 1.90609524,0.0455238095 C2.02711111,0.0448888889 2.14044444,0.100888889 2.24755556,0.157206349 C2.67822222,0.383809524 3.09460317,0.637587302 3.49326984,0.916634921 C3.60679365,0.996 3.72393651,1.08374603 3.77828571,1.2111746 C3.83447619,1.34292063 3.81339683,1.49314286 3.79136508,1.63466667 C3.57574603,3.01930159 3.36019048,4.40393651 3.14463492,5.78857143 C3.12203175,5.93333333 3.09873016,6.08126984 3.03593651,6.21333333 C2.81022222,6.69079365 2.19333333,6.80126984 1.66793651,6.85142857 C1.54774603,6.86285714 1.41606349,6.87111111 1.3168254,6.80253968 C1.23269841,6.74412698 1.19130159,6.64253968 1.15504762,6.54730159 C0.700698413,5.34666667 0.361587302,4.10279365 0.143555556,2.83803175 C0.0498412698,2.29422222 -0.0780952381,1.90692063 0.22768254,1.44133333 C0.547301587,0.954793651 1.04184127,0.53168254 1.51765079,0.205269841" id="Fill-75" fill="#8F928F" mask="url(#mask-2)"></path>
                <path d="M5.77079365,7.95746032 C5.53974603,8.1784127 5.39231746,8.47809524 5.38926984,8.8647619 C5.38901587,8.9015873 5.38939683,8.94095238 5.40926984,8.97206349 C5.44031746,9.01968254 5.50514286,9.02984127 5.56209524,9.03492063 C6.62044444,9.12825397 7.69149206,9.07555556 8.73568254,8.87936508 C8.70266667,8.88571429 8.68146032,8.07936508 8.65301587,8.01714286 C8.56273016,7.82031746 8.48457143,7.78222222 8.29352381,7.6768254 C7.94539683,7.48444444 7.41968254,7.45650794 7.03269841,7.47746032 C6.55936508,7.50285714 6.08685714,7.65650794 5.77079365,7.95746032" id="Fill-77" fill="#8F928F" mask="url(#mask-2)"></path>
                <path d="M0.697269841,7.95746032 C0.466285714,8.1784127 0.318793651,8.47809524 0.315809524,8.8647619 C0.315492063,8.9015873 0.315873016,8.94095238 0.335809524,8.97206349 C0.366793651,9.01968254 0.431619048,9.02984127 0.488571429,9.03492063 C1.54698413,9.12825397 2.61796825,9.07555556 3.66222222,8.87936508 C3.62920635,8.88571429 3.608,8.07936508 3.57955556,8.01714286 C3.48926984,7.82031746 3.41104762,7.78222222 3.22,7.6768254 C2.87187302,7.48444444 2.34622222,7.45650794 1.9591746,7.47746032 C1.48584127,7.50285714 1.01333333,7.65650794 0.697269841,7.95746032" id="Fill-78" fill="#8F928F" mask="url(#mask-2)"></path>
            </g>
            <path d="M6.3878962,32.5180952 C6.04142001,31.3851429 5.81767398,30.2217778 5.72605493,29.0406984 C5.70237239,28.7353016 5.22313429,28.7327619 5.24700731,29.0406984 C5.34186445,30.264 5.56700731,31.471746 5.92592794,32.6450794 C6.0158962,32.9390476 6.47849937,32.8139683 6.3878962,32.5180952" id="Fill-80" fill="#3B3A39"></path>
            <path d="M12.4597692,29.231619 C12.3557057,30.3915556 12.0909438,31.528254 11.6829438,32.6190476 C11.5748168,32.9079365 12.037674,33.0330159 12.1449756,32.7460317 C12.5684041,31.6146032 12.8308168,30.4349206 12.9388168,29.231619 C12.9663724,28.9246349 12.4871343,28.9265397 12.4597692,29.231619" id="Fill-81" fill="#3B3A39"></path>
            <path d="M9.85462636,15.0653968 C9.6342454,14.7426667 9.29615017,14.5533333 8.93595969,14.5233016 C8.83538826,14.491619 8.72922953,14.471873 8.6190708,14.4662222 C8.02192794,14.4358095 7.47062636,14.8099048 7.27170572,15.3700952 C7.06122953,15.9627302 7.31361048,16.6620952 7.87526128,16.9585397 C9.00961048,17.5573333 10.681547,16.2765714 9.85462636,15.0653968" id="Fill-82" fill="#3B3A39"></path>
            <path d="M9.57227715,15.683746 C9.54554699,15.444254 9.41646763,15.252 9.24078509,15.1255873 C8.88999144,14.7143492 8.21761048,14.7516825 7.87995969,15.1930794 C7.49373747,15.6979048 7.71119778,16.5928254 8.3774835,16.7274921 C8.97843588,16.8489524 9.64237239,16.3108571 9.57227715,15.683746" id="Fill-83" fill="#CDCECA"></path>
            <path d="M8.43640413,16.2231111 C8.16249937,16.0307937 8.11964223,15.6664127 8.33722953,15.412127 C8.43697556,15.2955556 8.26834064,15.1253333 8.1678962,15.2427302 C7.84522953,15.619746 7.90929302,16.1446984 8.31545175,16.4299683 C8.44186445,16.5187937 8.56167398,16.3111746 8.43640413,16.2231111" id="Fill-84" fill="#FFFFFE"></path>
        </g>
    </g>
</svg>