<?xml version="1.0" encoding="UTF-8"?>
<svg width="37px" height="34px" viewBox="0 0 37 34" version="1.1" xmlns="http://www.w3.org/2000/svg" xmlns:xlink="http://www.w3.org/1999/xlink">
    <!-- Generator: Sketch 52.5 (67469) - http://www.bohemiancoding.com/sketch -->
    <title>bluebot</title>
    <desc>Created with Sketch.</desc>
    <g id="Page-1" stroke="none" stroke-width="1" fill="none" fill-rule="evenodd">
        <g id="bluebot" transform="translate(-1.000000, 0.000000)">
            <g id="body" transform="translate(9.000000, 0.000000)">
                <path d="M15.762195,0.339521964 C15.5771635,0.295088894 15.3321792,0.329246374 15.2035572,0.487207004 C14.431754,1.43412039 13.8482422,2.52099441 13.4350926,3.66782118 C13.3188013,3.99047472 13.7841792,4.15148259 13.9633288,3.90047472 C13.9374627,3.95929362 13.9111713,4.01782905 13.8855178,4.07671881 C13.5775336,4.78396291 14.4980847,5.36421488 14.938943,4.69247472 C15.2011477,4.29307315 15.4632816,3.89374244 15.7253446,3.49441173 C15.9713918,3.1196007 16.2537934,2.74982118 16.4534233,2.34765582 C16.8185257,1.61227787 16.6833839,0.560624327 15.762195,0.339521964" id="Fill-1" fill="#1B1A19"></path>
                <path d="M6.18470678,2.91082905 C5.65108473,2.11649047 4.91967528,1.41399441 4.29187213,0.691939287 C4.08671465,0.455884169 3.6705178,0.417970783 3.41093513,0.57819913 C3.13129733,0.750829051 2.85428158,0.927498342 2.57634458,1.10275031 C2.26510048,1.29904952 2.08885639,1.76074244 2.31711623,2.09126212 C2.64898237,2.57152196 3.00154143,3.03711252 3.40080127,3.46393929 C3.8015493,3.89246685 4.21625796,4.22121488 4.75703749,4.43969519 C5.03603749,4.55251409 5.3905808,4.20675818 5.27188001,3.92492354 C5.2645808,3.9076322 5.25636032,3.89076606 5.24891938,3.87354559 C5.46187213,3.98615189 5.69927371,3.98246685 5.93348631,3.86908102 C6.04786426,3.81359283 6.11632095,3.72033299 6.18470678,3.61778968 C6.31510048,3.42248259 6.31595087,3.10613614 6.18470678,2.91082905" id="Fill-2" fill="#1B1A19"></path>
                <path d="M7.43223434,17.788396 C7.0417619,17.5870653 6.6277619,18.0029078 6.38724221,18.3704196 C6.06260442,18.86627 5.74030521,19.3754432 5.57795087,19.9454196 C5.41552568,20.515396 5.43189576,21.1635377 5.75504536,21.6603094 C6.09364379,22.1811046 6.70068316,22.4523802 7.28398237,22.6660416 C8.69832883,23.1840023 10.2220217,23.5284826 11.7091477,23.289522 C13.1962737,23.0504905 14.6393918,22.1361046 15.1897383,20.7340889 C15.280943,20.5018605 15.347628,20.2546086 15.3343052,20.0054432 C15.3182186,19.7005062 15.1838564,19.4139235 15.0232737,19.1543409 C14.3821477,18.1182779 13.2633839,17.3916873 12.0561084,17.2274196 L7.43223434,17.788396" id="Fill-15" fill="#1B1A19"></path>
                <path d="M2.89169891,6.06423063 C2.08375402,6.70351409 1.37849418,7.47227 0.811068985,8.33223063 C0.471832764,8.84636448 0.175754024,9.4116637 0.117643788,10.0248684 C0.0252343391,10.9992779 0.563462686,11.9536322 1.31627371,12.5790259 C2.0691556,13.2044905 3.01309261,13.5496086 3.95405324,13.8191834 C7.00689576,14.6937424 10.2527776,14.8870653 13.3878958,14.3812228 C14.7332186,14.164018 16.0908013,13.8051519 17.2056674,13.0213724 C18.3207462,12.2375928 19.1612186,10.9618605 19.1293288,9.59938811 C19.0868091,7.78351409 17.6085414,6.36916763 16.2393367,5.17542748 L2.89169891,6.06423063" id="Fill-16" fill="#1B1A19"></path>
                <path d="M6.09456505,15.1598291 C6.22127371,15.7768605 6.3479115,16.393892 6.47462017,17.0109235 C6.57461229,17.4981283 6.67573828,17.9888763 6.86665166,18.4480889 C7.64646269,20.3232779 10.3859351,21.5580495 12.0968564,20.0692936 C13.4310532,18.9084354 13.2392186,16.6660889 13.3037068,15.0770574 L6.09456505,15.1598291" id="Fill-17" fill="#286AA6"></path>
                <path d="M7.9055493,0.462262122 C6.77048631,1.06497866 5.96027371,2.11989204 5.03667528,3.01358496 C3.94824221,4.06679755 2.66676977,4.91974244 1.27510048,5.51721488 C2.69525796,6.95069519 4.11541544,8.38417551 5.53557292,9.81772669 C8.16463591,9.61497866 10.8367147,9.98915189 13.30888,10.9063724 C13.5726438,9.59343535 14.3219824,8.70711252 15.3122658,7.87238023 C15.7601399,7.4948763 18.0847619,5.31475031 18.6424784,5.49850622 C16.9557225,4.9426322 15.5675965,3.74882118 14.2278013,2.58314401 C12.4545178,1.04031724 10.4755808,-0.902265437 7.9055493,0.462262122" id="Fill-18" fill="#286AA6"></path>
            </g>
            <g id="left_leg" transform="translate(29.407227, 19.913086) rotate(-81.000000) translate(-29.407227, -19.913086) translate(25.907227, 11.913086)">
                <path d="M3.3940375,13.6392385 C4.5043682,14.1891598 5.6261792,14.7156952 6.7586202,15.2181361 C6.6154706,15.4165613 6.4716123,15.6156952 6.327754,15.8141204 C6.2937383,15.860892 6.2575965,15.9104983 6.2044469,15.9331755 C6.1548406,15.9544354 6.0981477,15.9494747 6.0442895,15.9445141 C4.6432658,15.8112857 3.2416044,15.6780574 1.8402973,15.5448291 C1.8471713,14.875144 1.8540454,14.205459 1.8609902,13.5350653 C1.861628,13.4698684 1.9006753,13.3770338 1.9604154,13.4039629 L3.3940375,13.6392385" id="Fill-3" fill="#286AA6"></path>
                <path d="M2.6566753,3.5710023 C2.5748958,3.2161755 2.484754,2.8632621 2.386321,2.5126165 C2.2742107,2.1132857 2.0883997,1.3463015 1.7934548,1.0366165 C1.6483918,0.8842542 1.5717147,0.8167188 1.340195,0.8276322 C1.1201556,0.8381204 0.9283918,1.1680731 0.8181241,1.1732464 C0.5844784,1.1843724 0.3760611,1.3312779 0.3408406,1.5910731 C0.1905336,1.6301204 0.0740296,1.7577503 0.1420611,1.9458999 C0.2708249,2.3017188 0.4929902,2.568955 0.6512343,2.8920338 C0.8583761,3.3149629 0.9244233,3.8205928 1.0129351,4.2820731 C1.2217776,5.3702936 1.3425336,6.4754511 1.3732895,7.583018 C1.8981241,7.4001834 2.4229587,7.2173487 2.9478643,7.0344432 C3.0188721,7.0097818 3.0954784,6.980585 3.1339587,6.9158842 C3.1681162,6.8585535 3.1635808,6.7869078 3.157628,6.7203645 C3.0632343,5.6607739 2.8956359,4.6076322 2.6566753,3.5710023" id="Fill-13" fill="#286AA6"></path>
                <path d="M4.7502737,10.8352779 C4.670195,9.8374826 4.5610611,8.8418842 4.4275493,7.8497582 C4.3185572,7.042522 4.3263524,5.9636558 3.9598328,5.224522 C3.9302107,5.1647109 3.8939273,5.1037661 3.8351792,5.0721598 C3.7401477,5.0210653 3.6231477,5.0637267 3.527691,5.1141125 C2.9487855,5.4196873 2.4774548,5.9082385 1.8961399,6.2217503 C1.6426517,6.3583802 1.3628013,6.4576637 1.1166123,6.6047109 C0.7714942,6.8108605 0.6457776,7.1576086 0.6612973,7.5436165 C0.7233761,9.0921125 0.9224391,10.6533645 1.0674312,12.1964039 C1.1027934,12.5727031 1.1363131,12.9482936 1.1735178,13.3245928 C1.2104391,13.6973487 1.2648643,14.0481361 1.6291871,14.2423094 C1.9154863,14.3939629 2.2942658,14.3379787 2.6062895,14.3365613 C2.9708249,14.335144 3.3362107,14.3486086 3.7006044,14.341522 C4.4597225,14.3273487 4.896258,13.8645928 4.8842107,13.1056165 C4.8721635,12.3494747 4.8112186,11.589081 4.7502737,10.8352779" id="Fill-183" fill="#1B1A19"></path>
            </g>
            <g id="right_leg" transform="translate(9.445312, 21.666992) rotate(72.000000) translate(-9.445312, -21.666992) translate(5.945312, 13.666992)">
                <path d="M3.91563591,13.6392385 C2.80530521,14.1891598 1.68335245,14.7156952 0.55084064,15.2181361 C0.69448631,15.4165613 0.83799024,15.6156952 0.98170678,15.8141204 C1.0155808,15.860892 1.05214772,15.9104983 1.1053682,15.9331755 C1.1549745,15.9544354 1.21152568,15.9494747 1.26531308,15.9445141 C2.66669103,15.8112857 4.06799812,15.6780574 5.46937607,15.5448291 C5.46250206,14.875144 5.45555717,14.205459 5.44868316,13.5350653 C5.44804536,13.4698684 5.40899812,13.3770338 5.34918709,13.4039629 L3.91563591,13.6392385" id="Fill-4" fill="#286AA6"></path>
                <path d="M6.42684851,0.9328684 C6.30538395,0.7118369 6.14664379,0.5268763 5.9917304,0.5022857 C5.67616347,0.4522542 5.44067528,0.7781676 5.29929733,1.0647503 C4.40985639,2.8683645 3.96403749,4.8888999 4.01187213,6.8993724 C4.01463591,7.0131834 4.02165166,7.1350731 4.09081702,7.2255692 C4.14084851,7.2909078 4.21660442,7.330522 4.28988001,7.3680102 C4.64428158,7.5494983 4.99875402,7.7309157 5.3531556,7.9124039 C5.50799812,6.7916558 5.70621072,5.6770023 5.94722647,4.5715613 C6.16131308,3.5894275 6.51472253,2.6445692 6.63647056,1.6479787 C6.65624221,1.4861913 6.56588788,1.1857897 6.42684851,0.9328684" id="Fill-14" fill="#286AA6"></path>
                <path d="M4.09348709,9.7928369 C4.09928709,9.8811361 4.10518709,9.9695062 4.11088709,10.0578054 C4.09968709,10.0921755 4.08848709,10.1264747 4.07748709,10.1607739 C4.08228709,10.0381046 4.08758709,9.9155062 4.09348709,9.7928369 Z M6.3655493,7.4095377 C6.31650993,7.3243566 6.25053355,7.2439944 6.1625178,7.1697976 C5.98818709,7.0228212 5.7799115,6.9232542 5.58013985,6.8131283 C4.91945481,6.4489472 4.3313367,5.953522 3.86014772,5.3643409 C3.77517922,5.2581834 3.68985639,5.1454354 3.56881702,5.0834983 C3.44777765,5.0215613 3.27869103,5.0287897 3.19825796,5.1383487 C3.16502174,5.1835613 3.15099024,5.2396165 3.1387304,5.294396 C2.93201387,6.2221755 2.97184064,7.3403015 2.92039182,8.2973487 C2.8605808,9.4086716 2.83308473,10.5217661 2.83960442,11.6344354 C2.84343119,12.2786086 2.71395875,13.1977424 3.22022647,13.700892 C3.52410048,14.0020731 3.97098237,14.0318369 4.37307686,14.0750653 C4.8135808,14.1218369 5.25167528,14.1182936 5.69373828,14.1027031 C6.0281556,14.0906558 6.27377765,13.8383724 6.29036032,13.5060102 C6.37221072,11.8626243 6.45278552,10.2198054 6.48162804,8.5745062 C6.48878552,8.1659629 6.56149418,7.7494826 6.3655493,7.4095377 Z" id="Fill-182" fill="#1B1A19" fill-rule="nonzero"></path>
            </g>
            <g id="left_arm" transform="translate(25.629883, 26.722656) rotate(-49.000000) translate(-25.629883, -26.722656) translate(23.629883, 21.722656)">
                <path d="M3.782006,7.7387109 C3.6530296,7.1110495 3.4127934,6.5243487 3.1151556,5.9585535 C2.9861792,5.7139235 2.5794076,5.8815928 2.6658643,6.1479787 C2.8486989,6.7126401 2.9734233,7.2994826 3.0499587,7.887955 C3.0875178,8.1739708 3.1073603,8.4626794 3.1272028,8.7502542 C3.145628,9.0113251 3.1186989,9.2804039 3.3369666,9.4599787 C3.4574391,9.5587661 3.5864154,9.5546558 3.7083052,9.4599787 C4.1207462,9.1390968 3.8727147,8.1807031 3.782006,7.7387109" id="Fill-5" fill="#1B1A19"></path>
                <path d="M2.7005887,6.4481676 C2.6417698,6.1687424 2.2633446,6.2649078 2.2378328,6.5108842 C2.1421635,7.4178999 2.1513761,8.3371046 2.212321,9.2473094 C2.2215336,9.3796165 2.2803524,9.5338212 2.4107462,9.5937031 C2.5652343,9.6642857 2.6630296,9.6817188 2.8161005,9.5937031 C2.9351556,9.5253881 3.0194863,9.3863487 3.0145257,9.2473094 C2.9819273,8.3095377 2.8940532,7.3662385 2.7005887,6.4481676" id="Fill-6" fill="#1B1A19"></path>
                <path d="M1.97988,8.3319314 C1.9869666,7.7963251 1.9805887,7.261144 1.986258,6.7254668 C1.9883839,6.4682228 1.5603524,6.3933881 1.5227934,6.6627503 C1.4490926,7.1946716 1.3804233,7.7253881 1.3546989,8.2620574 C1.3354942,8.6636558 1.1635021,9.3014511 1.5454706,9.5617424 C1.6028721,9.6010023 1.6992501,9.6008605 1.7566517,9.5617424 C2.1209036,9.3144905 1.9749194,8.7197109 1.97988,8.3319314" id="Fill-7" fill="#1B1A19"></path>
                <path d="M3.775628,6.0807267 C3.4092501,4.3492542 2.9897225,2.6309629 2.570195,0.9108999 C2.5078328,0.6564196 2.2250769,0.4218527 1.9543682,0.4421913 C1.446258,0.4803881 1.0966044,0.7905692 0.9651477,1.2820968 C0.9635887,1.2879078 0.9625257,1.2937897 0.9610375,1.2996007 C0.7286674,1.2317818 0.4415178,1.4069629 0.5129509,1.7217503 C0.8757147,3.3197818 1.1542186,4.9335456 1.2426595,6.571333 C1.2617934,6.9262306 1.5603524,7.1472621 1.9054706,7.0762542 C2.3979902,6.9747031 2.8905099,6.8732228 3.3837383,6.7716716 C3.6934233,6.707892 3.8351556,6.3617109 3.775628,6.0807267" id="Fill-11" fill="#286AA6"></path>
            </g>
            <g id="right_arm" transform="translate(11.366211, 29.246094) rotate(-51.000000) translate(-11.366211, -29.246094) translate(9.866211, 23.246094)">
                <path d="M2.58917135,9.3587188 C2.54771465,9.0855298 2.49874615,8.8135456 2.4423367,8.5431204 C2.39003749,8.2921834 2.38479339,8.147333 2.17580914,7.999081 C2.10253355,7.9471361 2.00225796,7.9898684 1.95768316,8.0563409 C1.82225796,8.2581676 1.88759654,8.4531913 1.9109115,8.6846401 C1.93649418,8.9368527 1.95513198,9.1896322 1.96781702,9.4427661 C1.9921241,9.9286952 1.89872253,10.5225535 2.05987213,10.9821204 C2.16206111,11.2738763 2.56280914,11.2825928 2.66202174,10.9821204 C2.82302961,10.4949157 2.66457292,9.8553487 2.58917135,9.3587188" id="Fill-8" fill="#1B1A19"></path>
                <path d="M1.76414772,9.8676086 C1.75365954,9.3356873 1.73289576,8.814892 1.65572253,8.288144 C1.62319497,8.0657661 1.25299024,8.0729944 1.2137304,8.288144 C1.11784851,8.8127661 1.08163591,9.3355456 1.05272253,9.8676086 C1.0293367,10.2993251 0.864856386,10.9631283 1.19665166,11.3003094 C1.30061229,11.4058291 1.47225009,11.3999472 1.57720284,11.3003094 C1.91785639,10.9772306 1.7725808,10.2967031 1.76414772,9.8676086" id="Fill-9" fill="#1B1A19"></path>
                <path d="M0.520234339,7.9717976 C0.339313079,8.4978369 0.233651662,9.0220338 0.186242213,9.5764905 C0.142872134,10.0835377 0.09170678,10.696459 0.30182489,11.1689235 C0.349234339,11.2753645 0.49266741,11.3462306 0.604423315,11.3424039 C0.635604418,11.3413409 0.667210717,11.3372306 0.697541426,11.3299314 C0.807313079,11.3034983 0.921478434,11.1993251 0.942313079,11.0851598 C1.02636032,10.6253094 0.909643788,10.1143645 0.911131977,9.643955 C0.912761898,9.1348527 0.956982371,8.6154747 1.02643119,8.111333 C1.07150206,7.7837188 0.633194969,7.6437582 0.520234339,7.9717976" id="Fill-10" fill="#1B1A19"></path>
                <path d="M2.62269103,2.4269472 C2.59675402,2.0838133 2.31810835,1.8867346 2.00948631,1.8392542 C2.02656505,1.6362228 2.03790363,1.4331913 2.04116347,1.2301598 C2.04761229,0.8349393 1.42625796,0.8160889 1.27219497,1.1427109 C0.78747056,2.1704826 0.603998119,3.3088054 0.419604418,4.3978763 C0.231738276,5.5068605 0.0902894572,6.6198842 0.00135244933,7.7376558 C-0.0252223538,8.072144 0.344486308,8.301396 0.70058867,8.3249944 C1.12288001,8.3529865 1.54538395,8.3795613 1.96774615,8.4067739 C2.36388788,8.4322857 2.66195087,8.1119708 2.67881702,7.8093724 C2.77944694,6.0140495 2.75804536,4.2207109 2.62269103,2.4269472" id="Fill-12" fill="#286AA6"></path>
            </g>
            <g id="head" transform="translate(12.000000, 4.000000)">
                <path d="M3.78302961,1.35634874 C3.65788001,1.41665582 3.5333682,1.48171094 3.40970678,1.55193929 C0.70063591,3.0886007 -0.42138771,6.6565692 0.69418709,9.5360023 C1.05510835,10.4676794 1.67653355,11.2923487 2.45145481,11.9231991 C4.29921859,13.4274039 7.0441477,13.7263172 9.1723288,12.6550338 C11.3005808,11.5838212 12.6956517,9.2009472 12.5882186,6.8208369 C12.3892973,2.41409677 7.7375729,-0.54725756 3.78302961,1.35634874" id="Fill-144" fill="#349FCD"></path>
                <path d="M4.19341544,2.2346637 C4.08754143,2.28561645 3.98230521,2.34075031 3.87777765,2.39999441 C1.58759654,3.69911252 0.63905324,6.7153172 1.58213985,9.1495692 C1.88721859,9.9372464 2.41262017,10.6343566 3.06770678,11.1676243 C4.62973828,12.4392464 6.95032095,12.691955 8.7493997,11.7863566 C10.5484784,10.8807582 11.7279036,8.8663881 11.6371241,6.8542149 C11.4688879,3.12892354 7.5364548,0.62536448 4.19341544,2.2346637" id="Fill-145" fill="#293478"></path>
                <path d="M4.39623434,2.66878968 C4.29992725,2.71513614 4.20418709,2.7652385 4.10908473,2.8192385 C2.0259745,4.00078968 1.16317922,6.7443724 2.020943,8.958585 C2.29852568,9.6751125 2.77637607,10.3091519 3.37228946,10.7942306 C4.79308473,11.9509078 6.90390363,12.1807267 8.5403446,11.3569787 C10.1768564,10.5333015 11.249628,8.7009865 11.1669981,6.8707267 C11.0139981,3.48212039 7.4370296,1.20497866 4.39623434,2.66878968" id="Fill-146" fill="#3B3A39"></path>
                <path d="M4.86274615,3.01107315 C4.78762804,3.04714401 4.71300599,3.08626212 4.63880914,3.12828574 C3.01406111,4.04989992 2.34118709,6.1897739 3.01016347,7.9166401 C3.22665954,8.4754905 3.59941544,8.9699944 4.06408473,9.3483487 C5.17228946,10.2505456 6.81850993,10.4297661 8.09488,9.7872936 C9.3712501,9.1448212 10.2080375,7.7157346 10.1434784,6.2882779 C10.0242107,3.64539598 7.2344233,1.86934874 4.86274615,3.01107315" id="Fill-147" fill="#515251"></path>
                <path d="M5.93084064,3.51067944 C5.25931308,3.53626212 4.58303749,4.09936448 4.17860442,4.60471094 C3.75028946,5.13975031 3.52635245,5.81893141 3.57326584,6.4984668 C3.59098237,6.7552857 3.97691938,6.750892 4.05402174,6.5353172 C4.23869891,6.0191283 4.48056505,5.54149047 4.85013198,5.13294716 C5.0223367,4.9426007 5.21402961,4.76564795 5.43031308,4.62611252 C5.66728946,4.47311252 5.93969891,4.39877393 6.16774615,4.23457708 C6.44355717,4.03601015 6.28354143,3.49735661 5.93084064,3.51067944" id="Fill-148" fill="#797B7A"></path>
                <path d="M7.1761005,3.37164007 C6.69924221,3.33514401 6.64169891,4.07626212 7.1194076,4.11275818 C7.5962658,4.14925425 7.6538091,3.408207 7.1761005,3.37164007" id="Fill-149" fill="#797B7A"></path>
            </g>
        </g>
    </g>
</svg>