<?xml version="1.0" encoding="UTF-8"?>
<svg width="30px" height="36px" viewBox="0 0 30 36" version="1.1" xmlns="http://www.w3.org/2000/svg" xmlns:xlink="http://www.w3.org/1999/xlink">
    <!-- Generator: Sketch 52.5 (67469) - http://www.bohemiancoding.com/sketch -->
    <title>pinkbot</title>
    <desc>Created with Sketch.</desc>
    <g id="Page-1" stroke="none" stroke-width="1" fill="none" fill-rule="evenodd">
        <g id="pinkbot">
            <path d="M7.66976471,4.10942104 C7.86663529,2.58669162 9.06571765,1.33142104 10.4658353,0.701209272 C11.8658824,0.0710680952 13.4448,-0.0265554342 14.9798118,0.00527985988 C17.2639059,0.0525739775 20.2758353,0.861868095 20.9601882,3.40953868 L7.66976471,4.10942104" id="Fill-87" fill="#AB2531"></path>
            <path d="M2.27011765,20.8010681 C2.02969412,20.7055622 2.03145882,20.4047152 2.02355294,20.1820799 C2.01155294,19.8448799 2.0856,19.5127622 2.10889412,19.1774681 C2.12371765,18.9648563 1.83028235,18.7625504 1.68345882,18.9854681 C1.3776,19.4498681 1.29769412,20.072174 1.38190588,20.6189504 C1.44289412,21.0146681 1.78051765,21.5872799 2.256,21.3272328 C2.45202353,21.2199387 2.52282353,20.9015152 2.27011765,20.8010681" id="Fill-89" fill="#3B3A39"></path>
            <path d="M3.79242353,20.6532563 C3.63402353,20.4291387 3.41011765,20.263821 3.27134118,20.0236093 C3.12776471,19.7749975 3.05527059,19.4932799 3.04771765,19.2081034 C3.04030588,18.9333034 2.60978824,18.9279387 2.56948235,19.1931387 C2.46148235,19.9037504 2.75647059,20.8766681 3.52630588,21.0850446 C3.76807059,21.1504799 3.91983529,20.8335387 3.79242353,20.6532563" id="Fill-90" fill="#3B3A39"></path>
            <path d="M4.66891765,18.672621 C4.47345882,18.3469269 4.13244706,18.0640799 3.74032941,18.0654916 C3.54917647,18.0662681 3.44865882,18.3264563 3.56216471,18.4669269 C3.72635294,18.6700799 3.93091765,18.8133034 4.04294118,19.0583152 C4.15764706,19.3092563 4.13844706,19.5743857 4.34301176,19.7800093 C4.42376471,19.8611152 4.5912,19.8590681 4.67738824,19.7884093 C5.02538824,19.5031622 4.86741176,19.0033975 4.66891765,18.672621" id="Fill-91" fill="#3B3A39"></path>
            <path d="M28.6411765,18.5329975 C28.452,18.2494446 28.0108235,18.5057504 28.1265882,18.8157034 C28.2204706,19.0683387 28.2670588,19.321821 28.2734118,19.5915387 C28.2790588,19.8557504 28.2,20.1043622 28.1809412,20.365821 C28.1583529,20.6786681 28.5938824,20.9795152 28.8091765,20.6491622 C29.2270588,20.0058916 29.0463529,19.1400563 28.6411765,18.5329975" id="Fill-92" fill="#3B3A39"></path>
            <path d="M27.6748235,18.6278681 C27.4884706,18.4091152 27.1334118,18.5892563 27.2294118,18.8723857 C27.3091765,19.1075857 27.3310588,19.3814681 27.2901176,19.6266916 C27.2470588,19.8829975 27.0804706,20.0778916 27.0105882,20.3232563 C26.9167059,20.6497269 27.3324706,20.8005034 27.5625882,20.663774 C27.8823529,20.4739622 28.0002353,20.004974 28.0192941,19.6575387 C28.0404706,19.2684563 27.9275294,18.924974 27.6748235,18.6278681" id="Fill-93" fill="#3B3A39"></path>
            <path d="M26.4395294,17.4525034 C25.9588235,17.043021 24.9183529,17.4956328 25.0630588,18.1775857 C25.1272941,18.4789269 25.4865882,18.6223622 25.7054118,18.3688799 C25.7505882,18.3166446 25.788,18.2603857 25.8289412,18.2050446 C25.8289412,18.2049034 25.8832941,18.1402446 25.8776471,18.1415152 C25.8995294,18.1247152 25.9496471,18.088574 25.9305882,18.1004328 C26.0329412,18.0369034 26.1197647,18.0282916 26.2701176,18.022221 C26.5595294,18.010574 26.6407059,17.6235387 26.4395294,17.4525034" id="Fill-94" fill="#3B3A39"></path>
            <path d="M28.8423529,17.3408328 C28.4075294,16.275374 26.8327059,16.1738681 26.3075294,17.2191387 C26.1345882,17.5634681 26.1296471,17.964974 26.2842353,18.2992093 C26.3752941,18.6009034 26.6018824,18.8643387 26.8898824,19.0153269 C27.3797647,19.2718446 28.1167059,19.228221 28.5712941,18.9037975 C29.0774118,18.543021 29.0562353,17.8659387 28.8423529,17.3408328" id="Fill-95" fill="#AB2531"></path>
            <path d="M1.45376471,17.4363387 C1.35028235,17.5756799 1.28604706,17.7283622 1.25717647,17.8826681 C1.20077647,18.053421 1.19068235,18.2341975 1.24108235,18.401421 C1.1844,18.8919387 1.49025882,19.3780799 1.92416471,19.5997975 C2.92927059,20.1134681 4.09835294,19.2539152 3.94362353,18.1427152 C3.78345882,16.9919857 2.17948235,16.4592563 1.45376471,17.4363387 Z" id="Fill-96" fill="#AB2531" fill-rule="nonzero"></path>
            <path d="M28.5832941,12.3462916 C27.9734118,11.812574 27.3070588,11.3388563 26.6901176,10.8109975 C26.3964706,10.559774 26.1028235,10.3088328 25.8077647,10.0587387 C25.4971765,9.7946681 25.1527059,9.4682681 24.7644706,9.32617398 C24.3988235,9.19205633 24.0127059,9.51556221 24.1552941,9.90393868 C24.3035294,10.3079152 24.6381176,10.6489269 24.9303529,10.9552093 C25.2127059,11.2502681 25.4978824,11.5406681 25.7957647,11.8198446 C26.3964706,12.3829269 27.0056471,12.9833504 27.6741176,13.4657504 C28.4251765,14.0076563 29.2863529,12.9610446 28.5832941,12.3462916" id="Fill-97" fill="#3B3A39"></path>
            <path d="M4.65324706,10.5791857 C4.61230588,10.452621 4.47409412,10.3405269 4.34188235,10.3261975 C3.87621176,10.2759387 3.57141176,10.665374 3.27663529,10.9717269 C2.9784,11.2816093 2.69343529,11.6027857 2.40148235,11.9186681 C2.10995294,12.2343387 1.81362353,12.5456328 1.51157647,12.8512799 C1.19054118,13.1761269 0.775270588,13.4626446 0.679694118,13.9280328 C0.603952941,14.2970681 0.968611765,14.743821 1.36602353,14.6585504 C1.68232941,14.5907152 1.86529412,14.4481269 2.08327059,14.2170916 C2.21689412,14.075421 2.3496,13.9328328 2.48124706,13.7893269 C2.78435294,13.4591152 3.08357647,13.1251622 3.37743529,12.7867622 C3.65894118,12.462621 3.93938824,12.1380563 4.19421176,11.7924563 C4.45468235,11.4391622 4.80310588,11.0417504 4.65324706,10.5791857" id="Fill-98" fill="#3B3A39"></path>
            <path d="M25.4301176,9.30965633 C25.2444706,8.77424457 24.7842353,8.29480927 24.2096471,8.20332692 C23.9287059,8.15857398 23.6442353,8.24137398 23.4352941,8.43471515 C23.2369412,8.61817398 23.2157647,8.85612692 23.2171765,9.11109162 C23.2171765,9.11342104 23.2171765,9.11539751 23.2171765,9.11772692 C22.9404706,9.4478681 22.9912941,10.0171622 23.1967059,10.3909269 C23.3258824,10.8031622 23.5807059,11.1658446 23.9181176,11.3188799 C24.4658824,11.5669269 25.0524706,11.3217034 25.3383529,10.8159387 C25.5931765,10.3658681 25.5974118,9.79085633 25.4301176,9.30965633" id="Fill-99" fill="#AB2531"></path>
            <path d="M5.73910588,9.04720927 C4.55357647,8.44876221 3.46757647,9.72993868 3.60903529,10.8637975 C3.67595294,11.4000563 3.95604706,11.8861975 4.41014118,12.1842916 C4.85357647,12.4753269 5.54767059,12.6169269 5.97663529,12.2184563 C6.16044706,12.0476328 6.18105882,11.754974 5.96152941,11.6141504 C6.69501176,10.9724328 6.66162353,9.51287986 5.73910588,9.04720927" id="Fill-100" fill="#AB2531"></path>
            <path d="M24.0402353,35.0480328 C23.5898824,34.032621 23.2835294,32.9564328 22.8275294,31.9417975 C22.7392941,31.7439387 22.5707294,31.6434916 22.3958118,31.6259857 C22.3132941,31.5760799 22.2073412,31.559774 22.1068941,31.590621 C21.8473412,31.6704563 21.6204,31.8208799 21.3961412,31.977021 C21.6374824,31.247421 21.0544941,30.3218681 20.2956,30.216974 C20.1066353,30.1773034 19.8916941,30.2061034 19.7289176,30.3004093 C19.3291765,30.4901504 19.1144471,30.942621 19.1589882,31.3901504 C19.1625176,31.425374 19.1678118,31.4609504 19.1745882,31.4965975 C19.1755059,31.5131857 19.1761412,31.5298446 19.1777647,31.5461504 C19.2234353,32.0252328 19.5129176,32.4645034 19.9776706,32.6216328 C20.1506824,32.6801504 20.3354824,32.6991387 20.514,32.6783857 C20.5045412,32.7076093 20.4985412,32.7376799 20.4947294,32.7682446 C20.4219529,32.8478681 20.3863765,32.9603152 20.4340235,33.0698681 C20.5881176,33.4234446 22.3227529,36.0357034 22.5747529,35.9402681 C23.0632941,35.7551857 23.5468235,35.5581034 24.0261176,35.3490916 C24.0571765,35.3354681 24.0903529,35.3197975 24.1065882,35.2896563 C24.1277647,35.2489975 24.1087059,35.1997975 24.0896471,35.1581504 C24.0727059,35.1215152 24.0564706,35.0848093 24.0402353,35.0480328" id="Fill-101" fill="#AB2531"></path>
            <path d="M10.1440941,29.4772093 C9.64623529,29.447421 9.16496471,29.6865034 8.94931765,30.1494916 C8.92574118,30.200174 8.90710588,30.2513504 8.89263529,30.3028093 C8.71207059,30.5371622 8.62454118,30.8356799 8.67388235,31.1485975 C8.68355294,31.2096563 8.69830588,31.2690916 8.71743529,31.3269034 C8.24590588,31.2906916 7.82442353,31.6578916 7.79343529,32.1364799 C7.36757647,32.4511622 6.99472941,32.8193504 6.61305882,33.1889504 C6.36141176,33.4325504 5.53567059,33.9537034 5.46035294,34.291821 C5.3652,34.7191622 6.03515294,35.1025269 6.37567059,35.4088799 C6.73955294,35.7361269 7.04611765,35.6351857 7.44712941,35.4537034 C7.99898824,35.203821 8.54816471,34.9475152 9.09854118,34.6945269 C9.36430588,34.5723387 9.63007059,34.4501504 9.89583529,34.3280328 C10.1570824,34.2079622 10.4380235,34.1096328 10.6123765,33.8685034 C10.7932941,33.6181269 10.7648471,33.3402916 10.6887529,33.0599152 C10.6148471,32.7875857 10.5583765,32.5122916 10.4895529,32.2379857 C10.4767765,32.1867387 10.4646353,32.1359857 10.4519294,32.0859387 C10.6606588,31.9934681 10.8484235,31.8493269 10.9951059,31.6692563 C11.6523529,30.8617269 11.2449176,29.5432093 10.1440941,29.4772093" id="Fill-102" fill="#AB2531"></path>
            <path d="M9.33151765,22.5721063 C9.32841765,22.5426063 9.32541765,22.5131063 9.32231765,22.4836063 L9.33151765,22.5721063" id="Fill-103" fill="#DF6F92"></path>
            <path d="M22.8190588,27.2725975 C22.6637647,26.4708563 22.3718824,25.6835857 22.1462824,24.8989269 C21.9284471,24.1409504 21.7617882,23.3177504 21.4056706,22.6107387 C21.1439294,22.0909975 20.3892706,22.2504563 20.4084706,22.8522916 C20.4342353,23.6562916 20.7027529,24.4771622 20.9050588,25.2511622 C21.1060941,26.0199387 21.2644941,26.8393269 21.5604,27.5776093 C21.8246824,28.2366916 22.9637647,28.0188563 22.8190588,27.2725975" id="Fill-104" fill="#3B3A39"></path>
            <path d="M8.94981176,22.4060328 C8.87110588,22.0931152 8.40762353,22.0645975 8.23094118,22.2937269 C7.96927059,22.6331857 7.89875294,23.123774 7.78814118,23.5310681 C7.67710588,23.9398446 7.5768,24.3511622 7.47098824,24.7612093 C7.36524706,25.1711857 7.2564,25.5803152 7.14451765,25.9885975 C7.01738824,26.4521504 6.78352941,26.9054681 7.07195294,27.3474916 C7.19075294,27.5295387 7.50741176,27.6393034 7.70943529,27.5330681 C7.97781176,27.3919622 8.10465882,27.2523387 8.1816,26.955021 C8.23687059,26.7412093 8.28324706,26.5246446 8.33265882,26.3094916 C8.43162353,25.8785504 8.52712941,25.4469034 8.61924706,25.0144799 C8.71143529,24.5819152 8.80298824,24.149421 8.87597647,23.7131152 C8.94776471,23.2840799 9.05745882,22.8337269 8.94981176,22.4060328" id="Fill-105" fill="#3B3A39"></path>
            <path d="M21.4650353,20.8936799 C21.1542353,20.7647857 20.8157647,20.8139857 20.4971294,20.877374 C20.1309176,20.950221 19.7264471,21.0182681 19.3869176,21.1764563 C19.0866353,21.3164328 18.9801882,21.6082446 19.0828941,21.8917975 C19.0383529,22.3242916 19.5800471,22.8289269 19.9120235,22.9631857 C20.5189412,23.2086916 21.2184706,22.968974 21.6374824,22.4914446 C22.0632,22.0062916 22.1673882,21.1849975 21.4650353,20.8936799" id="Fill-106" fill="#AB2531"></path>
            <path d="M9.02287059,20.8555622 C8.51752941,20.7243387 7.86903529,20.6329269 7.44282353,21.0025975 C7.38790588,21.0502446 7.34244706,21.1067857 7.30672941,21.1681975 C7.29275294,21.1825975 7.27898824,21.197774 7.26578824,21.2147857 C6.88821176,21.6969034 7.1256,22.3393975 7.55188235,22.7028563 C7.93764706,23.0317269 8.48089412,23.1841269 8.97945882,23.0843152 C9.53943529,22.972221 10.0708235,22.4962446 10.0415294,21.8869975 C10.0137882,21.311421 9.53463529,20.9885504 9.02287059,20.8555622" id="Fill-107" fill="#AB2531"></path>
            <path d="M5.92312941,20.7321034 C5.93174118,20.7934446 5.94035294,20.8547152 5.94896471,20.9161975 C6.12522353,22.1553034 12.0093882,22.3183622 12.9134118,22.3790681 C16.0068706,22.5866681 19.1616,22.4704799 22.1436706,21.5529034 C22.6623529,21.3933034 23.7035294,21.0207387 23.9654118,20.5345269 C24.1030588,20.2792093 24.1087059,19.9758916 24.1108235,19.6859857 C24.1355294,16.6026916 24.1524706,13.5277269 24.0952941,10.4511387 C24.0635294,8.74516221 23.9887059,7.04200927 23.9110588,5.33772692 C23.8454118,3.87831515 24.0204706,3.47560927 22.5611294,3.15344457 C21.5931529,2.93984457 20.6138118,2.77311515 19.6309412,2.64513868 C17.8600235,2.41459751 16.0716706,2.31859751 14.2862118,2.3570681 C12.7005882,2.3912328 11.1172235,2.53142104 9.55058824,2.77791515 C8.71087059,2.90998574 6.57105882,2.92967986 5.94797647,3.57351515 C5.80545882,3.72090339 5.75632941,3.93273868 5.71616471,4.13384457 C4.62656471,9.59850339 5.15548235,15.2452093 5.92312941,20.7321034" id="Fill-108" fill="#DF6F92"></path>
            <path d="M10.9035529,31.3420093 C10.4481176,30.422174 9.96875294,29.5148328 9.46814118,28.6187857 C9.22171765,28.1776799 8.96929412,27.739821 8.71129412,27.3053504 C8.47595294,26.9092093 8.25811765,26.4835622 7.92388235,26.1597034 C7.57870588,25.8251857 7.10343529,25.684221 6.63148235,25.7751387 C6.18522353,25.8611152 5.57964706,26.0712563 5.38609412,26.5199152 C5.20708235,26.9348328 5.36851765,27.5191622 5.45632941,27.9422681 C5.5572,28.4287622 5.69068235,28.9084799 5.85522353,29.3771857 C6.03536471,29.8901504 6.26089412,30.3931622 6.51684706,30.8726681 C6.64687059,31.1161975 6.77872941,31.3585975 6.91214118,31.6003622 C7.05063529,31.8514446 7.24094118,32.0747152 7.40788235,32.3084328 C7.48305882,32.4136799 7.58202353,32.4529975 7.67781176,32.4471387 C7.93221176,32.6538916 8.24216471,32.7857504 8.61444706,32.8087622 C9.37115294,32.8556328 10.0960235,32.5710916 10.6820471,32.1028799 C10.8912706,31.9356563 11.0332235,31.6037504 10.9035529,31.3420093" id="Fill-109" fill="#DF6F92"></path>
            <path d="M23.8362353,25.9077034 C23.6244706,25.5604799 23.2672941,25.2949269 22.8571765,25.2505269 C22.6623529,25.229421 22.4875059,25.2621034 22.3336235,25.3338916 C22.3060235,25.3418681 22.2789882,25.355774 22.2533647,25.375821 C22.0276941,25.5074681 21.852,25.7269975 21.7294588,25.9833034 C21.7144941,26.0146446 21.7002353,26.0464093 21.6856941,26.0780328 C21.6013412,26.1971857 21.5215765,26.321421 21.4483765,26.4570916 C21.2431765,26.8372093 21.0679765,27.2408328 20.9217176,27.6471387 C20.6294824,28.4590446 20.4182118,29.3088563 20.2317176,30.1504093 C20.1408706,30.5602446 20.0584235,30.9722681 19.9773176,31.384221 C19.8968471,31.7924328 19.8362824,32.2416563 20.0688706,32.6147857 C20.2879765,32.9663152 20.6517882,33.0946446 21.0445412,33.1441975 C21.4767529,33.1987622 22.0164706,33.3351387 22.4306824,33.1490681 C23.16,32.8215387 23.4698824,31.8450916 23.6604706,31.1359622 C23.9068235,30.2218446 24.0049412,29.2747622 24.0783529,28.3335387 C24.1418824,27.528621 24.2788235,26.6337034 23.8362353,25.9077034" id="Fill-110" fill="#DF6F92"></path>
            <g id="Group-114" transform="translate(0.000000, 11.217868)" fill="#DF6F92">
                <path d="M0.0807529412,3.7416 C0.184094118,4.42545882 0.287364706,5.10924706 0.390705882,5.79310588 C0.447529412,6.16898824 0.516211765,6.57021176 0.778235294,6.84557647 C1.18743529,7.2756 1.88145882,7.22272941 2.45887059,7.08487059 C2.95828235,6.96564706 3.5088,6.75338824 3.69684706,6.27557647 C3.86167059,5.85670588 3.68470588,5.38778824 3.49729412,4.97851765 C2.89771765,3.66924706 2.17072941,2.41821176 1.33009412,1.24905882 C1.22089412,1.09722353 1.08571765,0.932823529 0.8988,0.920470588 C-0.147882353,0.852070588 -0.00310588235,3.18621176 0.0807529412,3.7416" id="Fill-111"></path>
                <path d="M26.4021176,4.30009412 C26.2835294,4.7976 26.1670588,5.32856471 26.3378824,5.81054118 C26.5341176,6.36395294 27.1094118,6.74287059 27.6967059,6.76016471 C28.2832941,6.77745882 28.8564706,6.46023529 29.2023529,5.98609412 C29.6336471,5.3964 29.7211765,4.62705882 29.7303529,3.89682353 C29.7423529,2.98376471 29.8291765,-0.0944470588 28.2197647,0.0501882353 C27.0458824,0.155788235 26.6188235,3.38830588 26.4021176,4.30009412" id="Fill-113"></path>
            </g>
            <path d="M10.9346118,5.30384457 C10.8366353,5.37499751 10.7400706,5.45024457 10.6450588,5.52958574 C8.56192941,7.26838574 8.15534118,10.5013975 9.55962353,12.7960093 C10.014,13.5385269 10.6749882,14.1486916 11.4374118,14.5689034 C13.2553412,15.5707622 15.6548471,15.3998681 17.3124706,14.1504563 C18.9700235,12.900974 19.7951294,10.641374 19.3326353,8.61782104 C18.4764,4.87135045 14.0282118,3.0566681 10.9346118,5.30384457" id="Fill-115" fill="#AB2531"></path>
            <path d="M11.4230824,5.99292692 C11.3402118,6.0530681 11.2586118,6.1166681 11.1782118,6.18372692 C9.41724706,7.65365633 9.07348235,10.3867622 10.2606353,12.3265975 C10.6448471,12.9543387 11.2036235,13.4701269 11.8481647,13.8253269 C13.3849412,14.6723152 15.4133647,14.527821 16.8146824,13.4716093 C18.216,12.4153975 18.9134824,10.5051387 18.5224941,8.79450339 C17.7986118,5.62727986 14.0383059,4.09325633 11.4230824,5.99292692" id="Fill-116" fill="#771D27"></path>
            <path d="M11.6644235,6.33344457 C11.5891765,6.38815045 11.5148471,6.44596221 11.4417882,6.50702104 C9.83992941,7.84410339 9.52729412,10.3301504 10.6071529,12.0946446 C10.9565647,12.6655622 11.4648,13.1347622 12.0511059,13.4579152 C13.4489647,14.2282446 15.2940706,14.0968093 16.5687529,13.1361034 C17.8432941,12.1753975 18.4777412,10.4377975 18.1221176,8.88175045 C17.4636706,6.00090339 14.0432471,4.60551515 11.6644235,6.33344457" id="Fill-117" fill="#3B3A39"></path>
            <path d="M7.37032941,19.8611857 C7.26931765,19.7860799 7.15044706,19.7444328 7.02268235,19.7577034 C6.90183529,19.7701975 6.78035294,19.8359152 6.70369412,19.930221 C6.66218824,19.9777269 6.63487059,20.0316563 6.62188235,20.0920093 C6.59830588,20.1513034 6.59096471,20.2132093 6.60014118,20.2778681 C6.61828235,20.3992093 6.67136471,20.5214681 6.77272941,20.5968563 C6.87374118,20.6719622 6.99261176,20.7136799 7.12030588,20.7004093 C7.24122353,20.6879152 7.36277647,20.6221975 7.43936471,20.527821 C7.48087059,20.4803857 7.50811765,20.4264563 7.52110588,20.3660328 C7.54482353,20.3068093 7.55202353,20.2449034 7.54284706,20.1802446 C7.52484706,20.0589034 7.47169412,19.936574 7.37032941,19.8611857" id="Fill-118" fill="#ECA8C1"></path>
            <path d="M8.80969412,20.0983622 C8.25049412,20.1563152 8.33950588,21.0253269 8.89962353,20.967374 C9.45875294,20.9094916 9.36967059,20.0404093 8.80969412,20.0983622" id="Fill-119" fill="#ECA8C1"></path>
            <path d="M11.1652235,20.2893034 C10.5472941,20.3532563 10.6456941,21.3136799 11.2646118,21.2495857 C11.8825412,21.1856328 11.7841412,20.2252093 11.1652235,20.2893034" id="Fill-120" fill="#ECA8C1"></path>
            <path d="M13.9771059,20.3973034 C13.8566118,20.3077269 13.7148,20.2581034 13.5625412,20.2738446 C13.4848235,20.2789269 13.4143059,20.302574 13.3509882,20.3447152 C13.2836471,20.374574 13.2273176,20.4195387 13.1820706,20.4796799 C13.1325176,20.536221 13.1000471,20.6005975 13.0845882,20.6725975 C13.0563529,20.7432563 13.0476706,20.8170916 13.0586118,20.894174 C13.0801412,21.0388799 13.1435294,21.1847152 13.2643765,21.2746446 C13.3848,21.364221 13.5266118,21.4139152 13.6789412,21.3981034 C13.7566588,21.393021 13.8271765,21.3694446 13.8904941,21.3273034 C13.9578353,21.297374 14.0141647,21.2524093 14.0594118,21.1923387 C14.1089647,21.1357269 14.1414353,21.071421 14.1568941,20.9993504 C14.1851294,20.9287622 14.1938118,20.8548563 14.1828706,20.777774 C14.1612706,20.6330681 14.0979529,20.4872328 13.9771059,20.3973034" id="Fill-121" fill="#ECA8C1"></path>
            <path d="M17.0202353,20.595374 C16.9104706,20.4456563 16.7256,20.3635622 16.5408706,20.3826916 C16.3561412,20.401821 16.1920235,20.5200563 16.1152235,20.6891152 C16.0762588,20.7757975 16.0615765,20.8664328 16.0711059,20.961021 C16.0811294,21.0556093 16.1140941,21.1413034 16.17,21.218174 C16.1794588,21.2291152 16.1889176,21.2401269 16.1983765,21.2511387 C16.2501176,21.321021 16.3155529,21.374174 16.3945412,21.4104563 C16.4764941,21.4473034 16.5621176,21.4612093 16.6515529,21.4522446 C16.7410588,21.4427152 16.8220235,21.4115152 16.8947294,21.3587152 C16.9646118,21.3069034 17.0177647,21.2415387 17.0541176,21.1625504 C17.0610353,21.149774 17.0680235,21.1371387 17.0750118,21.1243622 C17.1139765,21.0377504 17.1287294,20.9471152 17.1192,20.8524563 C17.1091059,20.7579387 17.0761412,20.6722446 17.0202353,20.595374" id="Fill-122" fill="#ECA8C1"></path>
            <path d="M19.6226118,20.3488093 C19.5304235,20.2801975 19.4218588,20.2421504 19.3052471,20.254221 C19.1949176,20.2656563 19.0839529,20.3257269 19.0139294,20.4118446 C18.9470824,20.494221 18.9035294,20.6224799 18.9194118,20.7292093 C18.936,20.8400328 18.9844235,20.9516328 19.0770353,21.0204563 C19.1692235,21.0890681 19.2777882,21.1271152 19.3944,21.1150446 C19.5047294,21.1036093 19.6156941,21.0435387 19.6857176,20.957421 C19.7525647,20.8751152 19.7961176,20.7467857 19.7802353,20.6400563 C19.7636471,20.5293034 19.7152235,20.4176328 19.6226118,20.3488093" id="Fill-123" fill="#ECA8C1"></path>
            <path d="M21.9734824,19.9478681 C21.8907529,19.8863152 21.7934824,19.8522916 21.6889412,19.8630916 C21.5899765,19.8733269 21.4905176,19.9271152 21.4277647,20.0043387 C21.3678353,20.078174 21.3288,20.1932328 21.3429882,20.2888799 C21.3578118,20.3881975 21.4012941,20.4882916 21.4843059,20.5499857 C21.5669647,20.6114681 21.6643059,20.6455622 21.7688471,20.6346916 C21.8677412,20.6244563 21.9672,20.5706681 22.0299529,20.4934446 C22.0898824,20.4196799 22.1289882,20.304621 22.1147294,20.208974 C22.0999059,20.1096563 22.0564235,20.0095622 21.9734824,19.9478681" id="Fill-124" fill="#ECA8C1"></path>
            <path d="M23.3724706,19.294574 C22.8564706,19.3479387 22.9383529,20.1503152 23.4557647,20.0967387 C23.9717647,20.0433034 23.8891765,19.2409975 23.3724706,19.294574" id="Fill-125" fill="#ECA8C1"></path>
            <path d="M6.51077647,3.99464457 C6.07376471,4.03989162 6.14336471,4.7192328 6.58115294,4.67391515 C7.01823529,4.62859751 6.94856471,3.94925633 6.51077647,3.99464457" id="Fill-126" fill="#ECA8C1"></path>
            <path d="M8.49875294,3.62038574 C8.40218824,3.54859751 8.28847059,3.50871515 8.16628235,3.52135045 C8.05072941,3.53335045 7.93447059,3.59617398 7.86112941,3.68645633 C7.82145882,3.73184457 7.79541176,3.78337398 7.78298824,3.84118574 C7.76025882,3.8978681 7.75334118,3.95709162 7.76209412,4.01892692 C7.77938824,4.13497398 7.83028235,4.25200927 7.9272,4.32407986 C8.02376471,4.39593868 8.13748235,4.43582104 8.25974118,4.42311515 C8.37529412,4.41111515 8.49155294,4.34829162 8.56482353,4.25800927 C8.60456471,4.21262104 8.63068235,4.16109162 8.64303529,4.10327986 C8.66569412,4.04659751 8.67261176,3.98737398 8.66385882,3.92560927 C8.64656471,3.80949162 8.59574118,3.69252692 8.49875294,3.62038574" id="Fill-127" fill="#ECA8C1"></path>
            <path d="M10.9869176,3.26158574 C10.8979059,3.19537398 10.7930118,3.15859751 10.6804235,3.17031515 C10.5737647,3.18132692 10.4665412,3.23927986 10.3989882,3.32250339 C10.3343294,3.40205633 10.2923294,3.52600927 10.3076471,3.6290681 C10.3236,3.73607986 10.3704706,3.84393868 10.4599059,3.9104328 C10.5489176,3.97671515 10.6538824,4.01349162 10.7664706,4.00177398 C10.8730588,3.99076221 10.9802824,3.93273868 11.0479059,3.84958574 C11.1124941,3.76996221 11.1544941,3.64607986 11.1391765,3.54302104 C11.1232235,3.43593868 11.0763529,3.32807986 10.9869176,3.26158574" id="Fill-128" fill="#ECA8C1"></path>
            <path d="M13.7720471,3.06570339 C13.7301882,3.00916221 13.6772471,2.96617398 13.6132235,2.93673868 C13.6039765,2.93342104 13.5945882,2.93010339 13.5852706,2.92678574 C13.5620471,2.91287986 13.5374824,2.90193868 13.5100941,2.89720927 C13.4556706,2.8754681 13.3987059,2.86876221 13.3393412,2.87716221 C13.3014353,2.88633868 13.2636,2.89544457 13.2257647,2.90462104 C13.1927294,2.92276221 13.1597647,2.94090339 13.1268,2.95897398 C13.0790824,2.99144457 13.0424471,3.03287986 13.0167529,3.08320927 C12.9926824,3.11299751 12.9774353,3.14680927 12.9709412,3.18457398 C12.9491294,3.23899751 12.9424941,3.29596221 12.9508941,3.35539751 C12.9623294,3.43191515 12.9896471,3.50356221 13.0327059,3.56793868 C13.0651765,3.61565633 13.1066118,3.65229162 13.1569412,3.67798574 C13.1866588,3.70205633 13.2204706,3.71730339 13.2582353,3.72379751 C13.3127294,3.74560927 13.3696235,3.75224457 13.4290588,3.74384457 C13.4668941,3.7346681 13.5048,3.72556221 13.5426353,3.71645633 C13.5756706,3.69831515 13.6086353,3.68010339 13.6416706,3.6620328 C13.6512,3.65497398 13.6597412,3.6470681 13.6685647,3.63944457 C13.674,3.63612692 13.6795059,3.63273868 13.6849412,3.62942104 C13.7415529,3.58749162 13.7845412,3.53462104 13.8139765,3.47059751 C13.8437647,3.40431515 13.8550588,3.33492692 13.8477882,3.26250339 C13.8400235,3.19007986 13.8148235,3.12450339 13.7720471,3.06570339" id="Fill-129" fill="#ECA8C1"></path>
            <path d="M16.8676941,3.27407986 C16.8379765,3.21238574 16.8189882,3.17998574 16.776,3.13480927 C16.7542588,3.10558574 16.7269412,3.08327986 16.6938353,3.06810339 C16.6775294,3.05278574 16.6588941,3.04233868 16.6381412,3.03676221 C16.5686824,3.00556221 16.4959765,2.99370339 16.4201647,3.00132692 C16.3443529,3.00944457 16.2756,3.03591515 16.2140471,3.0806681 C16.0939765,3.16869162 16.0281176,3.31685633 16.0435059,3.46502104 C16.0588235,3.61311515 16.1536235,3.74469162 16.2892235,3.80624457 C16.3586118,3.83744457 16.4312471,3.8492328 16.5072,3.84160927 C16.5830118,3.83356221 16.6516235,3.80709162 16.7132471,3.76233868 C16.7952,3.71377398 16.8451765,3.62857398 16.8719294,3.54069162 C16.8981882,3.45478574 16.9085647,3.35913868 16.8676941,3.27407986" id="Fill-130" fill="#ECA8C1"></path>
            <path d="M19.8805412,3.46911515 C19.8604235,3.42789162 19.8387529,3.37911515 19.8117882,3.34233868 C19.7828471,3.31191515 19.7539059,3.28156221 19.7249647,3.25120927 C19.6757647,3.20807986 19.6197882,3.17977398 19.5571059,3.16636221 C19.5177176,3.15436221 19.4872941,3.14462104 19.4479765,3.14215045 C19.3568471,3.12753868 19.2681882,3.13671515 19.1820706,3.16967986 C19.0997647,3.20222104 19.0307294,3.25269162 18.9747529,3.32116221 C18.8950588,3.42831515 18.8508706,3.55445633 18.8648471,3.68991515 C18.8781176,3.81817398 18.9478588,3.9470681 19.0479529,4.02838574 C19.1167059,4.0838681 19.1947765,4.11916221 19.2818824,4.13412692 C19.3730118,4.14880927 19.4616,4.13956221 19.5477882,4.10659751 C19.5595765,4.10335045 19.5709412,4.0994681 19.5823765,4.09530339 C19.6523294,4.06967986 19.6999059,4.0352328 19.7511529,3.98645633 C19.7856,3.96090339 19.8118588,3.92864457 19.8297882,3.88960927 C19.8681176,3.8378681 19.8915529,3.77942104 19.9000941,3.71419751 C19.9187294,3.6422681 19.9135059,3.53695045 19.8805412,3.46911515" id="Fill-131" fill="#ECA8C1"></path>
            <path d="M22.5088941,3.69732692 C22.4774118,3.67777398 22.4457882,3.65822104 22.4142353,3.6386681 C22.3425176,3.60647986 22.2676235,3.5942681 22.1894118,3.60210339 C22.1563059,3.60196221 22.1486824,3.60570339 22.1070353,3.61579751 C22.0830353,3.61833868 22.0602353,3.62447986 22.0386353,3.63422104 C22.0057412,3.65236221 21.9727765,3.67050339 21.9398118,3.68857398 L21.8593412,3.7652328 C21.8212941,3.80878574 21.7962353,3.8582681 21.7843765,3.91360927 C21.7647529,3.97791515 21.7521882,4.00544457 21.7639765,4.08415045 C21.7677882,4.10970339 21.7834588,4.17344457 21.7917176,4.19744457 C21.8109176,4.25236221 21.8418353,4.2986681 21.8843294,4.33650339 C21.9069176,4.36699751 21.9354353,4.39022104 21.9698824,4.4060328 C22.0224,4.43857398 22.0727294,4.4630681 22.1368941,4.47047986 C22.1822824,4.47577398 22.2341647,4.47845633 22.2791294,4.46878574 C22.3390588,4.4648328 22.3933412,4.44662104 22.4422588,4.41415045 C22.4941412,4.39113868 22.5374824,4.35647986 22.5723529,4.31010339 C22.6396941,4.22716221 22.6835294,4.09798574 22.6672941,3.99055045 C22.6509882,3.87902104 22.6020706,3.76657398 22.5088941,3.69732692" id="Fill-132" fill="#ECA8C1"></path>
            <path d="M12.1176,6.55417398 C12.0588706,6.59687986 12.0009176,6.64198574 11.9438824,6.6896328 C10.6946118,7.7324328 10.4507294,9.67142104 11.2929176,11.0476093 C11.5654588,11.4928799 11.9618824,11.8588093 12.4190824,12.1108093 C13.5094588,12.7116563 14.9484706,12.6091622 15.9425647,11.8598681 C16.9367294,11.110574 17.4315529,9.75535045 17.1542118,8.54179751 C16.6406824,6.2948328 13.9729412,5.20650339 12.1176,6.55417398" id="Fill-133" fill="#515251"></path>
            <path d="M13.1109176,6.81640927 C12.5392941,6.94269162 12.0472235,7.53069162 11.7791294,8.02678574 C11.4952941,8.5520328 11.4089647,9.16904457 11.5548706,9.74433868 C11.6101412,9.96167986 11.9401412,9.8978681 11.9727529,9.7010681 C12.0508235,9.22982104 12.1837412,8.78278574 12.4369412,8.3750681 C12.5548941,8.18518574 12.6917647,8.0036328 12.8553882,7.85031515 C13.0347529,7.68231515 13.2566824,7.57615045 13.4266588,7.39996221 C13.6322118,7.18685633 13.4111294,6.75005633 13.1109176,6.81640927" id="Fill-134" fill="#797B7A"></path>
            <path d="M14.1567529,6.50335045 C13.7422588,6.5462681 13.8082588,7.19052692 14.2234588,7.14753868 C14.6378824,7.10455045 14.5718824,6.46036221 14.1567529,6.50335045" id="Fill-135" fill="#797B7A"></path>
            <path d="M15.2470588,16.0201975 C14.7141176,15.7547857 14.0034353,15.7756093 13.5214588,16.1449269 C13.0956706,16.4711152 12.8463529,17.0440093 12.9573882,17.5643857 C12.9614118,17.8125034 13.0265647,18.0596328 13.1600471,18.2775387 C13.5286588,18.8793034 14.4305647,19.0595152 15.0721412,18.8514916 C15.6307059,18.6704328 16.0065882,18.1203387 16.0718824,17.5510446 C16.1454353,16.9086916 15.8277882,16.3095387 15.2470588,16.0201975" id="Fill-136" fill="#AB2531"></path>
            <path d="M15.5348471,16.9973504 C15.3866118,16.6164563 15.0382588,16.4008799 14.6750118,16.3657269 C14.5897412,16.3460328 14.5012235,16.3367152 14.4104471,16.3402446 C14.2900941,16.3448328 14.1703765,16.3992563 14.0718353,16.4814916 C13.8199765,16.5759387 13.6557176,16.8225034 13.6112471,17.0897504 C13.5146118,17.4509504 13.6071529,17.8525975 13.9056706,18.1008563 C14.1876706,18.3353504 14.6048471,18.401774 14.9416235,18.2504328 C15.2218588,18.124574 15.4113176,17.8778681 15.4757647,17.5976328 C15.5745882,17.409374 15.6117176,17.1949269 15.5348471,16.9973504" id="Fill-137" fill="#3B3A39"></path>
            <path d="M15.1520471,17.1335152 C15.1318588,17.0498681 15.1024235,16.9838681 15.0516,16.9111622 C14.9956235,16.8311152 14.9011059,16.7579152 14.8133647,16.7164093 C14.7619765,16.6919857 14.7007765,16.6753269 14.6450824,16.663821 C14.6708471,16.6691152 14.5291059,16.653374 14.4832941,16.6604328 L14.3421176,16.6945269 C14.3366118,16.6957269 14.3316,16.6978446 14.3269412,16.7009504 C14.2585412,16.7248799 14.2008706,16.7633504 14.1537882,16.8163622 C14.0990118,16.8604093 14.058,16.9155387 14.0306824,16.981821 C14.0149412,17.0208563 14.0025176,17.0627152 13.9938353,17.1056328 C13.9896706,17.114174 13.9850824,17.1224328 13.9814824,17.1313269 C13.9680706,17.1756563 13.9544471,17.2199152 13.9409647,17.264174 C13.9253647,17.3613034 13.9351765,17.4557504 13.9703294,17.5475857 C13.9955294,17.6463387 14.0795294,17.7430446 14.1538588,17.8091152 C14.2036235,17.8533034 14.2641882,17.8846446 14.3210118,17.9183152 C14.4093882,17.9580563 14.5017882,17.973021 14.5982824,17.9633504 C14.6947059,17.9530446 14.7820941,17.9194446 14.8603765,17.8624799 C14.9667529,17.7663387 15.0410118,17.6962446 15.1065882,17.5681975 C15.1348235,17.5129975 15.1548706,17.4517975 15.1649647,17.3908799 C15.1807059,17.295374 15.1735059,17.2223857 15.1520471,17.1335152" id="Fill-138" fill="#515251"></path>
            <path d="M14.7851294,16.8673975 C14.7291529,16.825821 14.6476941,16.7881975 14.5764,16.8052093 C14.5224,16.8181269 14.4721412,16.8251857 14.4265412,16.861821 C14.3930118,16.8886446 14.3684471,16.9176563 14.3461412,16.9535857 C14.3188941,16.9976328 14.3061882,17.0449269 14.2994824,17.0957504 C14.2867765,17.1914681 14.3188235,17.2861269 14.3948471,17.3478916 C14.4708706,17.4096563 14.5700471,17.4215152 14.6611765,17.3895387 C14.7095294,17.3725269 14.7526588,17.3509269 14.7907059,17.3147152 C14.8231765,17.2837975 14.8454118,17.2634681 14.8641176,17.2172328 C14.8857882,17.163374 14.8870588,17.1177034 14.8887529,17.058974 C14.8905176,16.9943857 14.8351765,16.9046681 14.7851294,16.8673975" id="Fill-139" fill="#797B7A"></path>
            <path d="M9.95315294,31.2995152 C9.21345882,29.7290681 8.46007059,28.1365975 7.54058824,26.6622916 C7.42976471,26.484621 7.16265882,26.6478916 7.22837647,26.8336799 C7.79992941,28.4496563 8.56574118,30.0095152 9.32230588,31.5457269 C9.51254118,31.931774 10.1402824,31.6969269 9.95315294,31.2995152" id="Fill-140" fill="#ECA8C1"></path>
            <path d="M22.0499294,26.5501975 C21.5869412,27.3946446 21.2745176,28.3109504 20.9827059,29.2263387 C20.8426588,29.6654681 20.7187765,30.1098916 20.6025176,30.5558681 C20.4804,31.0242916 20.3276471,31.5121269 20.2760471,31.9938916 C20.2385647,32.3444328 20.7902824,32.5662916 20.9071765,32.1862446 C21.0423529,31.7466916 21.1133647,31.2856799 21.2208,30.838221 C21.3354353,30.3604093 21.4651059,29.8868328 21.5964,29.4133269 C21.8522824,28.4905975 22.1787529,27.5896799 22.4241176,26.6641975 C22.4846824,26.4357034 22.1506588,26.3663857 22.0499294,26.5501975" id="Fill-141" fill="#ECA8C1"></path>
            <path d="M27.7087059,12.4802681 C27.0127059,13.7133034 26.6287059,15.2323622 26.6174118,16.6503387 C26.6152941,16.9585269 27.1270588,16.9719387 27.1602353,16.6673504 C27.2343529,15.9841269 27.2950588,15.3131857 27.4454118,14.6403387 C27.5985882,13.957821 27.7990588,13.2833504 28.0087059,12.6164328 C28.0722353,12.4155387 27.8145882,12.2924328 27.7087059,12.4802681" id="Fill-142" fill="#ECA8C1"></path>
            <path d="M3.41894118,16.9280328 C3.13588235,16.3391152 2.84442353,15.7543622 2.544,15.1740563 C2.40289412,14.9015857 2.24710588,14.6368093 2.09597647,14.369774 C1.92331765,14.0644799 1.69185882,13.7843857 1.53508235,13.4723857 C1.48341176,13.3694681 1.31802353,13.4288328 1.36503529,13.5388093 C1.49251765,13.8371152 1.54750588,14.1657034 1.66051765,14.4712093 C1.77338824,14.776221 1.88117647,15.0837034 2.00414118,15.3848328 C2.25021176,15.9875857 2.51075294,16.584621 2.77722353,17.178621 C2.95856471,17.5830916 3.61058824,17.3267857 3.41894118,16.9280328" id="Fill-143" fill="#ECA8C1"></path>
        </g>
    </g>
</svg>