<?xml version="1.0" encoding="UTF-8"?>
<svg width="48px" height="19px" viewBox="0 0 48 19" version="1.1" xmlns="http://www.w3.org/2000/svg" xmlns:xlink="http://www.w3.org/1999/xlink">
    <!-- Generator: Sketch 52.5 (67469) - http://www.bohemiancoding.com/sketch -->
    <title>redbot</title>
    <desc>Created with Sketch.</desc>
    <g id="Page-1" stroke="none" stroke-width="1" fill="none" fill-rule="evenodd">
        <g id="redbot" transform="translate(-1.000000, -15.000000)">
            <g id="left_arm" transform="translate(42.257812, 26.830078) rotate(-122.000000) translate(-42.257812, -26.830078) translate(40.257812, 18.830078)">
                <path d="M3.5064897,13.4333812 C3.3446231,13.2367145 3.0078231,13.4479145 3.0834231,13.6796478 C3.1641564,13.9269812 3.1852897,14.2145145 3.1205564,14.4689145 C3.0504897,14.7442478 2.8806897,14.9371812 2.9280897,15.2339145 C2.9576231,15.4185145 3.1738231,15.4931145 3.3317564,15.4630478 C3.7457564,15.3841812 3.8714231,14.8427145 3.8839564,14.4819812 C3.8979564,14.0775812 3.7602231,13.7415812 3.5064897,13.4333812" id="Fill-150" fill="#1B1A19"></path>
                <path d="M2.6992897,13.5680478 C2.6232897,13.4840478 2.4958897,13.5179812 2.4391564,13.6014478 C2.2953564,13.8132478 2.3036231,14.1429812 2.2037564,14.3877145 C2.0970231,14.6492478 1.8584897,14.8875145 1.8628231,15.1745145 C1.8655564,15.3569812 2.0425564,15.5006478 2.2227564,15.4487145 C2.5791564,15.3461812 2.7396231,14.8900478 2.8071564,14.5541145 C2.8666231,14.2578478 2.9153564,13.8066478 2.6992897,13.5680478" id="Fill-151" fill="#1B1A19"></path>
                <path d="M1.9142897,12.9283145 C1.8036897,12.9179812 1.6998231,12.8896478 1.5875564,12.9012478 C1.4352231,12.9169145 1.3080897,12.9781145 1.1972897,13.0835812 C0.9958231,13.2753145 0.8435564,13.6224478 1.0348897,13.8727812 C1.1355564,14.0044478 1.3530231,14.0466478 1.4450231,13.8727812 C1.5194231,13.7322478 1.5402897,13.5703812 1.6288231,13.4403145 C1.6885564,13.3525145 1.7952231,13.1831145 1.9142897,13.1845812 C2.0818231,13.1865812 2.0756897,12.9433812 1.9142897,12.9283145" id="Fill-152" fill="#1B1A19"></path>
                <path d="M3.8689564,12.8204478 C3.8780897,12.7426478 3.8810897,12.6626478 3.8754231,12.5805812 C3.8380897,12.0389145 3.4758897,11.5621812 2.9821564,11.3502478 C2.3994897,11.1001145 1.8276897,11.3484478 1.5284897,11.8894478 C1.0041564,12.8376478 1.5426897,14.4580478 2.8090231,14.3281812 C3.4243564,14.2651145 3.8694231,13.7003812 3.8912897,13.0973812 C3.8944897,13.0097812 3.8866231,12.9163145 3.8689564,12.8204478" id="Fill-156" fill="#AB2531"></path>
                <path d="M1.1937564,12.2775812 C2.0035564,12.0743812 2.8133564,11.8711812 3.6231564,11.6679812 C4.0144231,11.5697812 3.4336897,6.5125145 3.3668897,5.9885812 C3.1398897,4.2073145 2.9288897,2.2284478 2.0068231,0.6743812 C1.4664897,-0.23615215 0.9917564,2.2403145 0.9564897,2.4103812 C0.6406897,3.9337145 0.4896231,5.4911145 0.5042231,7.0467145 C0.5082897,7.4857145 0.9536231,12.3377812 1.1937564,12.2775812" id="Fill-176" fill="#1B1A19"></path>
                <path d="M2.9686897,8.1910478 C2.8968231,7.6492478 2.8344897,7.1061812 2.7807564,6.5623145 C2.7292231,6.0399145 2.6797564,5.5170478 2.6362231,4.9939145 C2.5980897,4.5358478 2.6076231,3.9665812 2.4166231,3.5450478 C2.3591564,3.4182478 2.1875564,3.4748478 2.1481564,3.5801145 C1.9864231,4.0119812 2.0559564,4.6041812 2.0736231,5.0593812 C2.0948231,5.6049812 2.1290897,6.1487812 2.1770897,6.6927812 C2.2231564,7.2147145 2.2774897,7.7358478 2.3400231,8.2561145 C2.3992897,8.7490478 2.3956231,9.3681145 2.5847564,9.8273145 C2.7108231,10.1335145 3.1394897,10.0973145 3.1678897,9.7484478 C3.2083564,9.2509145 3.0344231,8.6865812 2.9686897,8.1910478" id="Fill-180" fill="#AB2531"></path>
            </g>
            <g id="right_arm" transform="translate(6.958008, 26.314453) rotate(36.000000) translate(-6.958008, -26.314453) translate(4.958008, 17.814453)">
                <path d="M0.795156416,14.6177145 C0.778756416,14.3423812 0.850156416,14.0755812 0.821289749,13.8029812 C0.802356416,13.6233812 0.610756416,13.5333812 0.469223082,13.6571145 C-0.032910251,14.0961145 -0.00617691763,15.1626478 0.408756416,15.6433812 C0.577356416,15.8387812 0.932689749,15.6831145 0.920889749,15.4313145 C0.907823082,15.1542478 0.811689749,14.8941812 0.795156416,14.6177145" id="Fill-153" fill="#1B1A19"></path>
                <path d="M2.25348975,15.7627145 C2.22415642,15.4081812 1.97082308,15.1144478 1.91815642,14.7548478 C1.89575642,14.6019812 1.99495642,14.1201145 1.69695642,14.1656478 C1.68108975,14.1681145 1.66528975,14.1705145 1.64942308,14.1729812 C1.57435642,14.1844478 1.52602308,14.2563145 1.50188975,14.3205145 C1.31882308,14.8062478 1.25888975,15.7369812 1.82562308,16.0083145 C2.00222308,16.0929145 2.27275642,15.9957145 2.25348975,15.7627145" id="Fill-154" fill="#1B1A19"></path>
                <path d="M3.36848975,13.7641145 C3.26188975,13.2898478 2.76022308,12.9555145 2.31535642,12.8541812 C2.07368975,12.7990478 1.89982308,13.1478478 2.13962308,13.2710478 C2.30335642,13.3552478 2.43322308,13.4673812 2.56375642,13.5958478 C2.69775642,13.7276478 2.77775642,13.8942478 2.89242308,14.0411812 C3.08068975,14.2824478 3.42468975,14.0142478 3.36848975,13.7641145" id="Fill-155" fill="#1B1A19"></path>
                <path d="M1.90042308,11.7998478 C1.86602308,11.7853145 1.83088975,11.7730478 1.79542308,11.7617812 C1.72708975,11.5980478 1.57275642,11.4669145 1.38388975,11.4728478 C0.884023082,11.4885812 0.488689749,11.9535145 0.256289749,12.3597145 C0.0192230824,12.7741145 -0.0691769176,13.2973812 0.0583564157,13.7617812 C0.333623082,14.7643145 1.69562308,15.2003145 2.35915642,14.2995145 C2.90095642,13.5639812 2.82862308,12.1910478 1.90042308,11.7998478" id="Fill-157" fill="#AB2531"></path>
                <path d="M2.77548975,12.2775812 C1.96568975,12.0743812 1.15588975,11.8711812 0.346156416,11.6679812 C-0.0451769176,11.5697812 0.535556416,6.5125145 0.602356416,5.9885812 C0.829356416,4.2073145 1.04035642,2.2284478 1.96248975,0.6743812 C2.50275642,-0.23615215 2.97748975,2.2403145 3.01275642,2.4103812 C3.32855642,3.9337145 3.47962308,5.4911145 3.46508975,7.0467145 C3.46095642,7.4857145 3.01562308,12.3377812 2.77548975,12.2775812" id="Fill-177" fill="#1B1A19"></path>
                <path d="M1.77375642,4.6186478 C1.76688975,4.4192478 1.45595642,4.3580478 1.41162308,4.5696478 C1.20028975,5.5783812 1.11728975,6.5854478 1.05095642,7.6129812 C1.01728975,8.1341145 0.984889749,8.6555145 0.963423082,9.1772478 C0.946556416,9.5871812 0.798089749,10.1819812 1.07595642,10.5147145 C1.15528975,10.6097812 1.32188975,10.5981145 1.40295642,10.5147145 C1.57228975,10.3405145 1.56382308,10.1945145 1.57402308,9.9597812 C1.58542308,9.6989145 1.59768975,9.4380478 1.61095642,9.1772478 C1.63622308,8.6775812 1.65795642,8.1777145 1.68528975,7.6781145 C1.74122308,6.6543812 1.80935642,5.6440478 1.77375642,4.6186478" id="Fill-181" fill="#AB2531"></path>
            </g>
            <g id="left_leg" transform="translate(31.000000, 15.000000)">
                <path d="M2.1276897,13.5844478 C1.4444231,14.3091145 0.8162897,15.0851145 0.2504231,15.9044478 C2.5134231,15.9971145 4.7812897,15.9691145 7.0413564,15.8217812 C6.6803564,15.1764478 6.3174897,14.5324478 5.9527564,13.8891145 L2.1276897,13.5844478" id="Fill-160" fill="#AB2531"></path>
                <path d="M3.8894231,2.6735145 C3.5680897,1.6399145 2.8758897,0.7833812 1.9935564,0.1721812 C1.6712231,-0.0511522 1.2615564,0.1030478 1.0370231,0.3839812 C0.9395564,0.4271812 0.8504231,0.4958478 0.7766231,0.5945812 C0.5800897,0.8575812 0.5597564,1.2913812 0.8319564,1.5236478 C1.4883564,2.0836478 2.0014897,2.7277812 2.4048897,3.4903145 C2.6808231,4.0117145 3.3010897,3.8643812 3.5449564,3.4753812 C3.8136897,3.3215812 3.9984897,3.0243812 3.8894231,2.6735145" id="Fill-162" fill="#AB2531"></path>
                <path d="M7.2459564,13.9497812 C7.1792231,10.4657145 6.5463564,6.9933145 5.3796897,3.7099145 C4.9308231,2.4467145 2.5927564,2.8206478 1.7340897,3.5390478 C1.1384897,4.0375145 0.9682231,4.8694478 0.8478231,5.6366478 C0.4010897,8.4817145 0.1330897,11.3547145 0.0458897,14.2331145 C2.3400897,14.3331145 4.6378897,14.3517812 6.9334231,14.2884478 L7.2459564,13.9497812" id="Fill-172" fill="#1B1A19"></path>
                <path d="M5.6778897,12.3657812 C5.3194231,12.2644478 4.9070897,12.3131145 4.5363564,12.3097812 C4.1214231,12.3064478 3.7070897,12.3124478 3.2922897,12.3197812 C3.1360897,12.3224478 1.6182231,12.2931145 1.8308897,12.6944478 C1.9440897,12.9077812 2.2211564,12.9251145 2.4410231,12.9544478 C2.8092897,13.0037812 3.1834897,13.0097812 3.5541564,13.0284478 C3.9034231,13.0464478 4.2522231,13.0604478 4.6018231,13.0691145 C4.9544231,13.0784478 5.3336897,13.1317812 5.6778897,13.0471145 C6.0216897,12.9617812 6.0062231,12.4591145 5.6778897,12.3657812" id="Fill-178" fill="#AB2531"></path>
            </g>
            <g id="right_leg" transform="translate(13.771484, 27.320312) rotate(-93.000000) translate(-13.771484, -27.320312) translate(9.271484, 19.320312)">
                <path d="M2.61875642,13.5844478 C1.93548975,14.3091145 1.30735642,15.0851145 0.74155642,15.9044478 C3.00455642,15.9971145 5.27235642,15.9691145 7.53242308,15.8217812 C7.17148975,15.1764478 6.80862308,14.5324478 6.44382308,13.8891145 L2.61875642,13.5844478" id="Fill-161" fill="#AB2531"></path>
                <path d="M5.31688975,0.2602478 C5.20648975,0.2894478 5.13942308,0.3981145 5.08355642,0.4977145 C4.89342308,0.8367812 4.70328975,1.1757812 4.51308975,1.5148478 C4.15988975,2.1446478 3.79515642,2.8242478 3.85755642,3.5436478 C4.48522308,3.7178478 5.11288975,3.8919145 5.74055642,4.0660478 C5.86568975,2.9588478 6.47582308,1.9743145 7.07062308,1.0320478 L5.31688975,0.2602478" id="Fill-163" fill="#AB2531"></path>
                <path d="M0.80322308,13.9497812 C0.86995642,10.4657145 1.50282308,6.9933145 2.66948975,3.7099145 C3.11835642,2.4467145 5.45642308,2.8206478 6.31502308,3.5390478 C6.91062308,4.0375145 7.08095642,4.8694478 7.20142308,5.6366478 C7.64808975,8.4817145 7.91608975,11.3547145 8.0032897,14.2331145 C5.70902308,14.3331145 3.41128975,14.3517812 1.11575642,14.2884478 L0.80322308,13.9497812" id="Fill-173" fill="#1B1A19"></path>
                <path d="M5.70468975,12.9031145 C5.44835642,12.5491145 5.08168975,12.6037812 4.68215642,12.5884478 C4.27815642,12.5731145 3.87028975,12.5611145 3.46602308,12.5704478 C3.03695642,12.5797812 1.91988975,12.5137812 1.77088975,13.0591145 C1.75348975,13.1224478 1.78155642,13.2044478 1.84268975,13.2357812 C2.06748975,13.3504478 2.34535642,13.2577812 2.59448975,13.2831145 C2.92922308,13.3164478 3.25982308,13.3791145 3.59402308,13.4164478 C3.93428975,13.4537812 4.27682308,13.4837812 4.61815642,13.5091145 C4.97515642,13.5357812 5.38055642,13.6471145 5.64702308,13.3497812 C5.74788975,13.2377812 5.80268975,13.0384478 5.70468975,12.9031145" id="Fill-179" fill="#AB2531"></path>
            </g>
            <g id="head" transform="translate(25.500000, 25.784180) rotate(-44.000000) translate(-25.500000, -25.784180) translate(20.000000, 17.784180)">
                <path d="M0.86902308,3.43064785 C0.44222308,4.81271452 0.45882308,6.28724785 0.47935642,7.73364785 C0.51482308,10.2398478 -0.65584358,14.4005145 2.72102308,15.3430478 C3.78562308,15.6401812 5.3789564,15.4172478 6.4976897,15.3767145 C7.6851564,15.3337812 9.0066231,15.0840478 9.5380231,13.8773145 C10.1735564,12.4341812 10.1347564,10.5226478 10.1769564,8.97598118 C10.2276897,7.11558118 10.4341564,5.13771452 10.0122231,3.31424785 C9.4220897,0.764247849 6.2660897,-0.644085484 3.90788975,0.289381183 C2.51882308,0.839181183 1.31542308,1.98524785 0.86902308,3.43064785" id="Fill-165" fill="#AB2531"></path>
                <path d="M3.34988975,2.67398118 C3.28042308,2.71718118 3.21175642,2.76311452 3.14382308,2.81191452 C1.65622308,3.88124785 1.22468975,6.03864785 2.05848975,7.65238118 C2.32828975,8.17458118 2.74368975,8.61778118 3.23662308,8.93784785 C4.4119564,9.70124785 6.0362231,9.70318118 7.2133564,8.94264785 C8.3906231,8.18204785 9.0564231,6.70064785 8.8436897,5.31531452 C8.4497564,2.75058118 5.5427564,1.31164785 3.34988975,2.67398118" id="Fill-166" fill="#1B1A19"></path>
                <path d="M3.64515642,3.16191452 C3.58648975,3.19838118 3.52842308,3.23724785 3.47102308,3.27844785 C2.21335642,4.18244785 1.84862308,6.00624785 2.55348975,7.37051452 C2.78155642,7.81198118 3.13268975,8.18658118 3.54942308,8.45718118 C4.5430231,9.10251452 5.9160897,9.10418118 6.9112897,8.46118118 C7.9064897,7.81824785 8.4693564,6.56584785 8.2895564,5.39478118 C7.9564897,3.22658118 5.4990231,2.01011452 3.64515642,3.16191452" id="Fill-167" fill="#DF6F92"></path>
                <path d="M3.79108975,3.40298118 C3.73775642,3.43618118 3.68488975,3.47144785 3.63268975,3.50904785 C2.48875642,4.33131452 2.15695642,5.99024785 2.79808975,7.23118118 C3.00555642,7.63271452 3.32495642,7.97351452 3.70402308,8.21964785 C4.6078231,8.80664785 5.8567564,8.80811452 6.7619564,8.22331452 C7.6672231,7.63844785 8.1792231,6.49924785 8.0156231,5.43404785 C7.7127564,3.46191452 5.4773564,2.35538118 3.79108975,3.40298118" id="Fill-168" fill="#3B3A39"></path>
                <path d="M4.0854897,3.57371452 C4.0438897,3.59964785 4.0026897,3.62718118 3.96195642,3.65651452 C3.06975642,4.29778118 2.81095642,5.59164785 3.31102308,6.55951452 C3.47282308,6.87271452 3.72195642,7.13844785 4.0175564,7.33044785 C4.7224897,7.78824785 5.6966231,7.78944785 6.4026231,7.33324785 C7.1086231,6.87711452 7.5079564,5.98864785 7.3803564,5.15784785 C7.1441564,3.61971452 5.4006897,2.75671452 4.0854897,3.57371452" id="Fill-169" fill="#515251"></path>
                <path d="M4.7416897,3.79871452 C4.3505564,3.85598118 3.99048975,4.22791452 3.78575642,4.54884785 C3.56895642,4.88878118 3.48075642,5.30011452 3.55102308,5.69464785 C3.57755642,5.84371452 3.80295642,5.81678118 3.83448975,5.68584785 C3.91002308,5.37231452 4.0213564,5.07778118 4.2118231,4.81551452 C4.3004897,4.69338118 4.4014897,4.57784785 4.5191564,4.48258118 C4.6481564,4.37818118 4.8027564,4.31758118 4.9258231,4.20711452 C5.0746231,4.07364785 4.9470897,3.76871452 4.7416897,3.79871452" id="Fill-170" fill="#797B7A"></path>
            </g>
        </g>
    </g>
</svg>