<?xml version="1.0" encoding="UTF-8"?>
<svg width="26px" height="13px" viewBox="0 0 26 13" version="1.1" xmlns="http://www.w3.org/2000/svg" xmlns:xlink="http://www.w3.org/1999/xlink">
    <!-- Generator: Sketch 52.5 (67469) - http://www.bohemiancoding.com/sketch -->
    <title>silverbot</title>
    <desc>Created with Sketch.</desc>
    <g id="Page-1" stroke="none" stroke-width="1" fill="none" fill-rule="evenodd">
        <g id="silverbot" transform="translate(-1.000000, -9.000000)">
            <g id="right_arm" transform="translate(4.559974, 16.865234) rotate(-36.000000) translate(-4.559974, -16.865234) translate(2.559974, 12.865234)">
                <path d="M1.95500731,7.5804444 C1.7718962,7.4151111 1.74218191,7.147619 1.70529302,6.9154921 C1.66040413,6.6326984 1.6446581,6.3473016 1.64637239,6.0612698 C1.64815017,5.7528889 1.16910255,5.7525714 1.16726128,6.0612698 C1.16516604,6.419746 1.19481683,6.7763175 1.25811842,7.1293333 C1.31068985,7.4224127 1.38776921,7.7128889 1.61627715,7.9192381 C1.84459461,8.1253968 2.18440413,7.787619 1.95500731,7.5804444" id="Fill-25" fill="#3B3A39"></path>
                <path d="M2.9294835,7.112381 C2.65138826,6.7295238 2.51367398,6.2958095 2.52910255,5.8224127 C2.53913429,5.5140317 2.06002318,5.5144127 2.05005493,5.8224127 C2.03215017,6.3724444 2.19202318,6.908381 2.51576921,7.3541587 C2.69519778,7.6012063 3.11100731,7.3624127 2.9294835,7.112381" id="Fill-26" fill="#3B3A39"></path>
                <path d="M3.76529302,5.4647619 C3.52440413,4.9630476 3.01684858,4.6510476 2.46497556,4.6328889 C2.40929302,4.6311111 2.3638962,4.6453968 2.32834064,4.6698413 C2.22192794,3.5756825 2.00967398,2.4950476 1.69005493,1.4420952 C1.60072159,1.147873 1.13818191,1.2732063 1.22808667,1.5693968 C1.58186445,2.7346667 1.80510255,3.9318095 1.88891207,5.1467937 C1.91005493,5.4526984 2.38929302,5.4550476 2.36802318,5.1467937 C2.36662636,5.1271746 2.36497556,5.1075556 2.36357874,5.0879365 C2.39253112,5.1020317 2.4263089,5.1107302 2.46497556,5.112 C2.85799144,5.1248889 3.18332477,5.3560635 3.35164223,5.7066032 C3.48503905,5.9844444 3.8982454,5.7416508 3.76529302,5.4647619" id="Fill-31" fill="#3B3A39"></path>
                <path d="M1.17615017,5.4319365 C0.744531118,4.3092063 0.59075334,3.0951111 0.758499372,1.9017143 C0.800848578,1.6001905 0.339324769,1.4698413 0.296531118,1.7743492 C0.11659461,3.0544762 0.249546991,4.3506667 0.714181912,5.5593016 C0.718880324,5.5714921 0.724467626,5.5826667 0.730308896,5.5933333 C0.719134293,5.6063492 0.708785086,5.6211429 0.699388261,5.6380317 C0.336912071,6.2898413 0.240340642,7.0406984 0.427451753,7.7629206 C0.504721594,8.0612063 0.966943817,7.9347302 0.889420007,7.635619 C0.734499372,7.0377778 0.812785086,6.4196825 1.11303905,5.879746 C1.15659461,5.8014603 1.15240413,5.7255238 1.12116604,5.6638095 C1.18332477,5.6136508 1.21500731,5.5329524 1.17615017,5.4319365" id="Fill-32" fill="#3B3A39"></path>
                <path d="M1.1414835,4.1379048 C0.452404134,4.4034921 0.159134293,5.5176508 0.578372388,6.1049524 C0.887515245,6.5379048 1.51500731,6.7085714 2.00084858,6.4916825 C2.39697556,6.3148571 2.67234064,5.9113651 2.73056286,5.4813333 C2.85595969,4.5541587 2.01945175,3.7994921 1.1414835,4.1379048" id="Fill-62" fill="#797B7A"></path>
                <path d="M1.54535651,4.2266667 C0.891007309,4.2353016 0.59043588,4.9845714 0.941800959,5.4992381 C1.15634064,5.8134603 1.55481683,5.9217143 1.8926581,5.8264762 C2.13494382,5.8073016 2.36199144,5.6659683 2.47183271,5.3804444 C2.70357874,4.7783492 2.13615017,4.2189206 1.54535651,4.2266667" id="Fill-63" fill="#8F928F"></path>
                <path d="M1.54688032,0.3206984 C1.21018191,-0.1426032 0.615070801,0.0383492 0.319007309,0.4256508 C0.318054928,0.4265397 0.317039055,0.4273651 0.316086674,0.428254 C-0.17724666,0.8782857 0.214689848,1.6382857 0.858880324,1.5666667 C1.40611842,1.5057778 1.91780096,0.8312381 1.54688032,0.3206984" id="Fill-68" fill="#8F928F"></path>
            </g>
            <g id="head" transform="translate(14.696701, 15.500000) rotate(90.000000) translate(-14.696701, -15.500000) translate(9.196701, 8.000000)">
                <path d="M6.35100731,10.4452063 C6.35786445,10.0191111 5.97138826,9.61136508 5.53653112,9.63079365 C5.08935651,9.65085714 4.72954699,9.98857143 4.72211842,10.4452063 C4.70300731,11.6193651 4.70757874,12.7935873 4.73576921,13.9674921 C4.74599144,14.3930159 5.1030708,14.8019683 5.55018191,14.7819048 C5.98268985,14.7625397 6.37557874,14.4238095 6.3646581,13.9674921 C6.33640413,12.7935873 6.33183271,11.6193651 6.35100731,10.4452063" id="Fill-43" fill="#3B3A39"></path>
                <path d="M10.88542,6.55314286 C10.8704994,7.41638095 10.8384359,8.27968254 10.7847851,9.14107937 C10.7406581,9.84387302 10.6822454,10.5461587 10.605166,11.2456508 C10.5667533,11.5972698 10.5241502,11.9479365 10.4762137,12.2981587 C10.4628168,12.4016508 1.51043588,12.6086349 0.69075334,12.5626032 C0.67634064,12.5017778 0.66199144,12.4409524 0.64808667,12.3800635 C0.44929302,11.5177778 0.30268985,10.6439365 0.20783271,9.7648254 C0.18434064,9.54349206 0.16091207,9.31644444 0.13983271,9.08406349 C-0.11077047,6.34857143 -0.10162761,2.95098413 2.1518962,1.10704762 C4.81361048,-1.07174603 9.1070708,0.215492063 10.4479597,3.29307937 C10.889166,4.30628571 10.9045946,5.44787302 10.88542,6.55314286" id="Fill-44" fill="#797B7A"></path>
                <path d="M6.85234064,5.59447619 C7.0440867,4.99612698 7.5682137,4.52609524 8.1686581,4.35834921 C9.7171025,3.92596825 10.8969121,6.37974603 9.5784359,7.3015873 C9.0445946,7.67479365 8.2916422,7.80749206 7.7111978,7.4664127 C7.0186898,7.05942857 6.59392794,6.40088889 6.85234064,5.59447619" id="Fill-49" fill="#515251"></path>
                <path d="M1.04776921,5.59447619 C1.23951525,4.99612698 1.76357874,4.52609524 2.36408667,4.35834921 C3.91253112,3.92596825 5.09240413,6.37974603 3.77380096,7.3015873 C3.24002318,7.67479365 2.4870708,7.80749206 1.90662636,7.4664127 C1.21411842,7.05942857 0.78935651,6.40088889 1.04776921,5.59447619" id="Fill-50" fill="#515251"></path>
                <path d="M5.37811842,10.1509841 C5.61792794,10.1406349 5.80173747,10.1336508 5.85164223,10.1321905 C6.02097556,10.1269841 7.4118962,10.1342222 7.417293,10.0952381 C7.4689121,9.7208254 7.4859279,9.34069841 7.4678962,8.96304762 C7.4637057,8.87619048 6.50402318,8.89644444 6.42580096,8.89549206 C6.18726128,8.89269841 5.96529302,8.9448254 5.72878509,8.94533333 C5.41894382,8.94609524 5.10910255,8.9544127 4.79945175,8.97009524 C4.69145175,8.97555556 3.67138826,8.98914286 3.65932477,9.07536508 C3.60726128,9.44812698 3.71716604,9.88977778 3.74154699,10.2659683 C3.73926128,10.228127 4.75049937,10.1779048 5.37811842,10.1509841" id="Fill-51" fill="#515251"></path>
                <path d="M5.41792794,9.97428571 C5.60484858,9.96806349 5.74808667,9.96387302 5.78688032,9.96298413 C5.91881683,9.96 7.0027533,9.9695873 7.0068168,9.94285714 C7.045801,9.68577778 7.057801,9.42457143 7.0424359,9.16501587 C7.0389438,9.10533333 6.29113429,9.11606349 6.23018191,9.11511111 C6.04427715,9.11238095 5.87151525,9.14742857 5.68719778,9.14704762 C5.44573747,9.14653968 5.20434064,9.1512381 4.96313429,9.16095238 C4.87894382,9.16438095 4.08408667,9.17022222 4.07500731,9.22946032 C4.03564223,9.48546032 4.12275334,9.78926984 4.14300731,10.0479365 C4.14116604,10.0218413 4.92897556,9.99073016 5.41792794,9.97428571" id="Fill-52" fill="#1B1A19"></path>
                <path d="M7.1985629,5.67860317 C7.3491025,5.20895238 7.7604676,4.84 8.2317692,4.70838095 C9.4470708,4.36895238 10.373166,6.29492063 9.3382454,7.01847619 C8.9192613,7.31136508 8.3282771,7.41561905 7.8727216,7.14787302 C7.329166,6.82844444 6.99576921,6.31155556 7.1985629,5.67860317" id="Fill-53" fill="#1B1A19"></path>
                <path d="M1.39405493,5.67860317 C1.54453112,5.20895238 1.9558962,4.84 2.42713429,4.70838095 C3.64256286,4.36895238 4.56859461,6.29492063 3.53367398,7.01847619 C3.11468985,7.31136508 2.52370572,7.41561905 2.06815017,7.14787302 C1.52459461,6.82844444 1.19119778,6.31155556 1.39405493,5.67860317" id="Fill-54" fill="#1B1A19"></path>
                <path d="M10.7847851,9.14107937 C10.7406581,9.84387302 10.6822454,10.5461587 10.605166,11.2456508 C10.4844041,11.3146667 10.3579279,11.3754921 10.2309438,11.432 C9.0438327,11.9584762 7.7354518,12.1386032 6.44243588,12.2546032 C4.51659461,12.4269841 2.57926128,12.4691429 0.64808667,12.3800635 C0.44929302,11.5177778 0.30268985,10.6439365 0.20783271,9.7648254 C0.18434064,9.54349206 0.16091207,9.31644444 0.13983271,9.08406349 C0.20973747,9.59853968 0.32186445,10.1068571 0.53646763,10.5777778 C0.58580096,10.6860952 0.64522953,10.7972063 0.7463089,10.86 C0.81532477,10.9026667 0.89722953,10.9179683 0.97722953,10.9318095 C3.97716604,11.4587937 7.0527851,11.0425397 10.0699914,10.6252063 C10.1413565,10.6156825 10.2165946,10.603746 10.2717057,10.5577143 C10.3249121,10.5126984 10.3497375,10.4436825 10.3722771,10.3780317 C10.5131025,9.96749206 10.6544359,9.55549206 10.7847851,9.14107937" id="Fill-55" fill="#676867"></path>
                <path d="M10.7859914,10.9538413 C10.7679597,11.4907302 10.6908803,12.0257143 10.5567851,12.5459048 C7.345547,12.7708571 4.12478509,12.8600635 0.90605493,12.8130159 C0.74688032,12.8107302 0.57018191,12.8009524 0.45843588,12.6876825 C0.38529302,12.6135873 0.35468985,12.5084444 0.33094382,12.4071111 C0.24370572,12.0350476 0.14694382,11.5983492 0.11716604,11.2189841 C0.11754699,11.223746 9.8951978,10.9622857 10.7859914,10.9538413" id="Fill-56" fill="#8F928F"></path>
                <path d="M1.68319778,2.23930159 C1.27716604,2.69612698 0.99634064,3.23771429 0.87208667,3.83714286 C0.80973747,4.13809524 1.27145175,4.26673016 1.33405493,3.96450794 C1.44154699,3.44590476 1.66935651,2.97473016 2.02199144,2.57809524 C2.22618191,2.34831746 1.88853112,2.00831746 1.68319778,2.23930159" id="Fill-57" fill="#8F928F"></path>
                <path d="M2.62034064,1.56095238 C2.57475334,1.51904762 2.51481683,1.48793651 2.45100731,1.49079365 C2.38745175,1.49365079 2.32751525,1.51511111 2.28161048,1.56095238 C2.27100731,1.57161905 2.26034064,1.58228571 2.24967398,1.59288889 C2.2062454,1.63631746 2.17957874,1.7008254 2.17957874,1.76228571 C2.17957874,1.82101587 2.20561048,1.8911746 2.24967398,1.93168254 C2.29532477,1.9735873 2.35526128,2.00463492 2.4190708,2.00184127 C2.48262636,1.99898413 2.54256286,1.97752381 2.58846763,1.93168254 L2.62034064,1.89974603 C2.66383271,1.85625397 2.69049937,1.79174603 2.69049937,1.73034921 C2.69049937,1.67155556 2.66446763,1.60139683 2.62034064,1.56095238" id="Fill-58" fill="#8F928F"></path>
            </g>
            <g id="left_leg" transform="translate(23.412109, 14.530273) rotate(-16.000000) translate(-23.412109, -14.530273) translate(20.912109, 8.030273)">
                <path d="M3.2062454,3.9367619 C3.1504359,3.4256508 3.0797692,2.9187937 2.7411025,2.5113651 C2.5438962,2.2740952 2.2065629,2.6146032 2.4023724,2.8501587 C2.7005311,3.2088254 2.7179914,3.771619 2.753547,4.2149841 C2.7958327,4.7419048 2.7924676,5.2704762 2.7510708,5.7973333 C2.7269438,6.1046984 3.2061184,6.1031746 3.2301184,5.7973333 C3.2788803,5.1773968 3.273801,4.5551111 3.2062454,3.9367619" id="Fill-19" fill="#3B3A39"></path>
                <path d="M1.6992613,2.731746 L1.689674,5.5582857 C1.6885946,5.8665397 2.1676422,5.8669841 2.1687216,5.5582857 L2.1783089,2.731746 C2.1793883,2.4234921 1.7003406,2.4230476 1.6992613,2.731746" id="Fill-20" fill="#3B3A39"></path>
                <path d="M2.425293,10.0298413 C1.7788803,9.8946032 1.3800867,10.687619 1.7891025,11.1809524 C2.1920867,11.6679365 3.0847216,11.5625397 3.2497375,10.9073016 C3.3872613,10.3619048 2.8993883,9.9479365 2.425293,10.0298413" id="Fill-23" fill="#3B3A39"></path>
                <path d="M1.9088486,0.9894603 C1.2890391,1.2283175 1.0253565,2.2304762 1.4023724,2.7586667 C1.6804041,3.148127 2.2447851,3.3015873 2.6817375,3.1064762 C3.0380549,2.9474921 3.285674,2.5846349 3.3381184,2.1977778 C3.4508803,1.3639365 2.6984994,0.6851429 1.9088486,0.9894603" id="Fill-70" fill="#797B7A"></path>
                <path d="M2.2720867,1.0693968 C1.6835787,1.0771429 1.4132295,1.7510476 1.729293,2.2139048 C1.9222454,2.4965079 2.2805946,2.5939048 2.5844676,2.508254 C2.8023724,2.4909206 3.0065629,2.3638095 3.10542,2.1070476 C3.313801,1.5655238 2.8035152,1.0623492 2.2720867,1.0693968" id="Fill-71" fill="#8F928F"></path>
                <path d="M3.1884676,4.1259048 C3.0712613,4.0455238 2.9422454,3.9669206 2.8000232,3.9661587 C2.6790073,3.9655238 2.5657375,4.0215238 2.4585629,4.0778413 C2.0278962,4.3044444 1.6115152,4.5582222 1.2128486,4.8372698 C1.0993883,4.9166349 0.98218191,5.004381 0.9278962,5.1318095 C0.87170572,5.2635556 0.89272159,5.4137778 0.91481683,5.5553016 C1.1303089,6.9399365 1.3459279,8.3245714 1.5614835,9.7092063 C1.5841502,9.8539683 1.6073883,10.0019048 1.6701819,10.1339683 C1.8959597,10.6114286 2.5127851,10.7219048 3.0381184,10.7720635 C3.1584359,10.7834921 3.2900549,10.791746 3.3892295,10.7231746 C3.47342,10.6647619 3.5148168,10.5631746 3.5510708,10.4679365 C4.00542,9.2673016 4.3444676,8.0234286 4.5625629,6.7586667 C4.6562771,6.2148571 4.7842137,5.8275556 4.4784359,5.3619683 C4.1588168,4.8754286 3.6642771,4.4523175 3.1884676,4.1259048" id="Fill-74-2" fill="#8F928F"></path>
                <path d="M1.31183265,11.8780953 C1.08078503,12.0990477 0.93335646,12.3987302 0.93030884,12.7853969 C0.93005487,12.8222223 0.93043583,12.8615874 0.95030884,12.8926985 C0.98135646,12.9403175 1.04618186,12.9504763 1.10313424,12.9555556 C2.16148344,13.048889 3.23253106,12.9961906 4.27672154,12.8000001 C4.24370567,12.8063493 4.22249932,12.0000001 4.19405487,11.9377779 C4.10376916,11.7409525 4.02561043,11.7028572 3.83456281,11.5974604 C3.48643583,11.4050794 2.96072154,11.3771429 2.57373741,11.3980953 C2.10040408,11.4234921 1.62789614,11.5771429 1.31183265,11.8780953" id="Fill-77" fill="#8F928F"></path>
            </g>
        </g>
    </g>
</svg>