<?xml version="1.0" encoding="UTF-8"?>
<svg width="27px" height="36px" viewBox="0 0 27 36" version="1.1" xmlns="http://www.w3.org/2000/svg" xmlns:xlink="http://www.w3.org/1999/xlink">
    <!-- Generator: Sketch 52.5 (67469) - http://www.bohemiancoding.com/sketch -->
    <title>yellowbot</title>
    <desc>Created with Sketch.</desc>
    <g id="Page-1" stroke="none" stroke-width="1" fill="none" fill-rule="evenodd">
        <g id="yellowbot">
            <path d="M24.7203981,26.9758209 C24.4251443,26.9643582 24.2225772,27.3901791 24.4657115,27.5907761 C24.782816,27.8525373 25.0444876,28.1285373 25.1941294,28.5203284 C25.3418011,28.9062985 25.2715921,29.324597 25.2645175,29.7279403 C25.2569951,30.1562687 25.8121294,30.3823881 26.1098906,30.0781791 C27.1330249,29.0329254 26.0932339,27.0291045 24.7203981,26.9758209" id="Fill-212" fill="#3B3A39"></path>
            <path d="M23.3057414,26.7302687 C22.7398608,26.9541493 22.3093831,27.466209 22.0112637,27.9840896 C21.7244279,28.4827164 21.4363384,29.1885672 21.6612936,29.7560597 C21.7746667,30.0418209 22.1523981,30.1290448 22.3294428,29.8434627 C22.5866369,29.4287463 22.6368757,28.9163284 22.86201,28.4814627 C23.0949354,28.0318209 23.4545772,27.7067463 23.7475025,27.3048358 C23.9409354,27.0394925 23.6157712,26.6076716 23.3057414,26.7302687" id="Fill-213" fill="#3B3A39"></path>
            <path d="M4.97618912,27.8471642 C4.6394727,27.3535522 3.99836822,26.943403 3.39317419,26.9225373 C3.10732345,26.9127761 2.97684583,27.2784179 3.16526374,27.4727463 C3.43839807,27.7545672 3.8174727,27.9186269 4.04798016,28.2493433 C4.14639807,28.3905672 4.2256518,28.5641194 4.23380106,28.7372239 C4.24481598,28.9722985 4.13601001,29.1317015 4.22708464,29.3725075 C4.33786076,29.6653433 4.61242792,29.7774627 4.89693539,29.6450149 C5.54744285,29.3422388 5.29230852,28.3106866 4.97618912,27.8471642" id="Fill-214" fill="#3B3A39"></path>
            <path d="M2.05015927,27.0037612 C1.58448762,26.7308955 0.90989061,27.2579104 0.605771207,27.5915821 C0.213621953,28.0216119 -0.101512376,28.5964478 0.0305771767,29.189194 C0.113233893,29.5600299 0.664427923,29.6243284 0.842457774,29.2953134 C1.03911449,28.9317313 1.10663688,28.5281194 1.37287568,28.1991045 C1.61224882,27.903403 2.08033837,27.7327164 2.20015927,27.3720896 C2.24529359,27.2360597 2.17006971,27.0739701 2.05015927,27.0037612" id="Fill-215" fill="#3B3A39"></path>
            <path d="M24.1009652,17.2299403 C24.0244876,16.7257612 23.7712339,16.2188955 23.5729652,15.7520597 C23.3876817,15.3155821 23.1905772,14.8842985 22.9620399,14.4685075 C22.5087264,13.6444478 21.8852637,12.7850149 20.9798906,12.4324478 C20.5847861,12.2786866 20.3383384,12.7708657 20.4826966,13.079194 C20.8484279,13.8598209 21.3710548,14.5560896 21.7173533,15.3521194 C22.0677712,16.1574627 22.2149951,17.0785075 22.6354428,17.8477612 C22.8251145,18.1947761 23.2838906,18.3309851 23.636816,18.1758806 C24.0297712,18.0030448 24.1629354,17.637403 24.1009652,17.2299403" id="Fill-216" fill="#3B3A39"></path>
            <path d="M4.88645777,11.5398806 C4.10403986,12.1350448 3.59663688,13.1614925 3.25544285,14.0654328 C3.09129359,14.5006567 2.98392046,14.9634627 2.91201001,15.4224179 C2.86884583,15.6976119 2.82666673,15.9785373 2.81377121,16.2571343 C2.79756225,16.6071045 2.88684583,16.8198806 3.09890553,17.0938209 C3.31580106,17.3736716 3.85150255,17.3491343 4.07171151,17.0938209 C4.41827867,16.6919104 4.36042792,16.2633134 4.42723389,15.768806 C4.4836518,15.3513134 4.59326374,14.9427761 4.71621897,14.5407761 C4.83478613,14.1529254 4.96651748,13.7746567 5.14624882,13.4104478 C5.34523389,13.0072836 5.60081598,12.6361791 5.77006971,12.2191343 C5.9596518,11.7520299 5.29239807,11.2311045 4.88645777,11.5398806" id="Fill-217" fill="#3B3A39"></path>
            <path d="M16.0593533,21.2364179 C16.2539503,21.2361493 16.3684876,21.2436716 16.3680399,21.2635522 C16.3746667,20.9858507 17.0226667,16.7827164 17.0806966,16.7824478 C16.7037712,16.7841493 9.87648762,16.956 9.92833837,17.2270746 C10.2003085,18.6070746 10.6259503,19.9274328 11.313622,21.1611045 C11.4866369,21.471403 14.9881294,21.2375821 16.0593533,21.2364179" id="Fill-218" fill="#EB8D30"></path>
            <path d="M20.8564876,26.5978209 C21.0923682,25.6724776 21.0543085,24.6154925 21.0053234,23.6681194 C20.9549951,22.6930746 20.8271145,21.7134627 20.6031443,20.7627761 C20.16201,18.8903284 19.4082488,17.0993731 18.1551443,15.6244478 C17.8949055,15.3180896 17.3018906,15.645403 17.4586966,16.0297612 C18.1300697,17.6741194 18.778607,19.3482985 19.1246369,21.096 C19.292816,21.9452239 19.4002787,22.8027761 19.431622,23.6681194 C19.4647563,24.582806 19.3247861,25.4820896 19.3277414,26.3909552 C19.3291742,26.8509851 19.6969652,27.1237612 20.0749652,27.1500896 C20.009413,27.1704179 19.9504876,27.205791 19.9068757,27.2573731 C19.36401,27.9011642 19.2978309,28.8699403 19.1233831,29.6668657 C19.0321294,30.0844478 18.9487563,30.5036418 18.8569652,30.9210448 C18.75801,31.3707761 18.5804279,31.8570448 18.6035324,32.3188657 C18.6402488,33.0548955 19.7276817,33.4864478 20.0987861,32.7239104 C20.3078906,32.2940597 20.3466667,31.8212239 20.4203682,31.3520597 C20.4935324,30.8858507 20.5669652,30.4189254 20.6253533,29.9505672 C20.7291443,29.1174627 20.9568757,28.1379403 20.5983085,27.3464776 C20.5450249,27.228806 20.424219,27.1576119 20.2939205,27.1366567 C20.5488757,27.0870448 20.7758906,26.9142985 20.8564876,26.5978209" id="Fill-219" fill="#3B3A39"></path>
            <path d="M9.64938315,29.2310149 C9.44672643,28.5621493 9.34302494,27.6306269 8.91738315,27.066806 C8.88630852,27.0257015 8.85111449,26.9898806 8.81430852,26.9568358 C8.84771151,26.9166269 8.87798016,26.8718507 8.90206971,26.8187463 C9.12344285,26.3302388 9.07992046,25.9053134 9.0475921,25.3812537 C9.02027867,24.9393134 8.99932345,24.4971045 8.98454733,24.0546269 C8.95409956,23.1431642 8.95803986,22.2239104 9.07230852,21.3177313 C9.16812942,20.5579701 9.35403986,19.7942687 9.61248762,19.0737313 C9.86645777,18.366 10.41801,17.6444776 10.4518608,16.8861493 C10.4664578,16.5569552 10.1073533,16.286597 9.79499509,16.3858209 C8.98830852,16.6421194 8.50678613,17.5955821 8.19326374,18.3217612 C7.84257718,19.1341791 7.60427867,19.9699701 7.47227867,20.8449851 C7.32845777,21.7988955 7.27499509,22.7587164 7.28860703,23.7229254 C7.2955921,24.2211045 7.32245777,24.7184776 7.3555921,25.2154925 C7.3915921,25.7554925 7.36186076,26.3502985 7.66660703,26.8187463 C7.71263688,26.8895821 7.7735324,26.9507463 7.84275628,27.0019701 C7.79654733,27.0633134 7.75795031,27.135403 7.73198016,27.2217313 C7.51230852,27.9511343 7.80066673,28.8883881 7.96293539,29.6145672 C8.13371151,30.3788955 8.36609956,31.1313134 8.61774136,31.8723582 C8.77598016,32.3383881 9.24442792,32.6449254 9.73902494,32.5089851 C10.1786369,32.3881791 10.5527861,31.8498806 10.3756518,31.3877015 C10.1035921,30.6778209 9.86986076,29.9583582 9.64938315,29.2310149" id="Fill-220" fill="#3B3A39"></path>
            <path d="M15.6301294,0.394835821 C10.843204,-0.911820896 5.68992046,1.73023881 4.59290553,6.69608955 C3.97033837,9.5141194 4.35639807,12.5830746 5.85138315,15.0516716 C7.34645777,17.5202687 9.98242792,19.3184776 12.8549951,19.5982388 C18.1823682,20.1171045 21.6512637,15.7206269 22.4729055,10.8740597 C23.3212339,5.86979104 20.4800996,1.71904478 15.6301294,0.394835821" id="Fill-221" fill="#F6BE2F"></path>
            <path d="M10.6139503,25.6192836 C10.2281593,24.560597 9.07463688,23.9174328 7.97198016,24.1972836 C6.94006971,24.4592239 6.18012942,25.4205672 6.23923389,26.4944776 C6.29833837,27.5665075 7.08245777,28.4625672 8.16568165,28.5568657 C8.35929359,28.573791 8.55227867,28.5625075 8.73908464,28.5264179 C9.09586076,28.5048358 9.44806971,28.3982687 9.75263688,28.1989254 C10.5746369,27.6608955 10.9505772,26.5428358 10.6139503,25.6192836" id="Fill-222" fill="#F6BE2F"></path>
            <path d="M21.5897414,24.7049552 C20.8203085,23.9245075 19.7182787,23.9338209 18.94401,24.5799403 C18.1363384,25.0376418 17.708816,26.0481493 17.7613831,26.9571045 C17.821204,27.9915224 18.5296518,28.7858507 19.5560996,28.9430149 C20.5803085,29.0999104 21.5716518,28.5920597 22.0440399,27.6631343 C22.5393533,26.6889851 22.3598011,25.4858507 21.5897414,24.7049552" id="Fill-223" fill="#F6BE2F"></path>
            <path d="M17.8645473,31.267791 C17.9383384,30.7289552 18.6975623,30.4904776 19.112816,30.7600299 C19.2259205,30.8333731 19.3377712,30.9088657 19.4498011,30.9840896 C20.1807264,31.2873134 20.8692936,31.6491045 21.5405772,32.0949851 C22.3748458,32.6492239 23.1745473,33.2549552 23.9432637,33.8967761 C24.2009951,34.1119701 24.2129055,34.5365373 24.0611145,34.8104776 C23.9580399,34.9965672 23.8772637,35.1752239 23.8109951,35.3771642 C23.6849055,35.7610746 23.2861294,36.0301791 22.8760697,35.9080299 C21.5124578,35.5018209 20.1310249,35.1225672 18.782816,34.6680896 C17.265622,34.1567463 17.6959205,32.4998507 17.8645473,31.267791" id="Fill-224" fill="#F6BE2F"></path>
            <path d="M11.4799205,31.267791 C11.4061294,30.7289552 10.6469951,30.4904776 10.2316518,30.7600299 C10.1185473,30.8333731 10.0066966,30.9088657 9.89466673,30.9840896 C9.16374136,31.2873134 8.47508464,31.6491045 7.80389061,32.0949851 C6.96962195,32.6492239 6.16992046,33.2549552 5.40120404,33.8967761 C5.1434727,34.1119701 5.13156225,34.5365373 5.2833533,34.8104776 C5.38642792,34.9965672 5.46711449,35.1752239 5.53338315,35.3771642 C5.65956225,35.7610746 6.05833837,36.0301791 6.46839807,35.9080299 C7.83201001,35.5018209 9.21344285,35.1225672 10.5616518,34.6680896 C12.0788458,34.1567463 11.6485473,32.4998507 11.4799205,31.267791" id="Fill-225" fill="#F6BE2F"></path>
            <path d="M16.4036817,5.60659701 C16.3410846,5.652 16.2793831,5.70008955 16.2186667,5.75077612 C14.8876518,6.86185075 14.6278608,8.92764179 15.5251742,10.393791 C15.8155025,10.8682388 16.2378309,11.2581493 16.7249055,11.5266269 C17.8865772,12.1667463 19.4197115,12.0575821 20.4788458,11.2592239 C21.5379802,10.4608657 22.0651742,9.01710448 21.7696518,7.72414925 C21.2225772,5.33023881 18.3803682,4.17071642 16.4036817,5.60659701" id="Fill-226" fill="#EB8D30"></path>
            <path d="M16.7157712,6.04683582 C16.6628458,6.08525373 16.6107264,6.12591045 16.5593234,6.16880597 C15.4340996,7.10802985 15.2145175,8.85438806 15.9731145,10.0938806 C16.2184876,10.4949851 16.5755324,10.8245373 16.9873831,11.0514627 C17.969413,11.5926269 19.265413,11.5003881 20.1607563,10.8254328 C21.0561891,10.1505672 21.5018906,8.92997015 21.2520399,7.83698507 C20.7895921,5.81328358 18.386816,4.83304478 16.7157712,6.04683582" id="Fill-227" fill="#DC3F39"></path>
            <path d="M16.8699802,6.26444776 C16.8218906,6.29937313 16.7744279,6.33644776 16.7276817,6.37540299 C15.7042787,7.22973134 15.5043981,8.81820896 16.1943981,9.94567164 C16.4176518,10.3104179 16.7423682,10.6102388 17.1170548,10.8166567 C18.0102488,11.3089254 19.189204,11.2249254 20.0035921,10.6110448 C20.8180697,9.99716418 21.2234727,8.88698507 20.9961891,7.89268657 C20.5754727,6.0519403 18.3899503,5.16035821 16.8699802,6.26444776" id="Fill-228" fill="#3B3A39"></path>
            <path d="M17.1595921,6.40549254 C17.1220697,6.43280597 17.0849951,6.46155224 17.0485473,6.492 C16.2502787,7.15835821 16.0944578,8.39731343 16.6326667,9.27662687 C16.8067563,9.56113433 17.06001,9.79495522 17.352219,9.95597015 C18.0488458,10.3399701 18.9683682,10.2744179 19.6036518,9.79558209 C20.2387563,9.31683582 20.5549652,8.45095522 20.3777414,7.67552239 C20.049622,6.23973134 18.3449951,5.54435821 17.1595921,6.40549254" id="Fill-229" fill="#515251"></path>
            <path d="M17.7942488,6.57304478 C17.4289652,6.65373134 17.1145473,7.02940299 16.9433234,7.34641791 C16.7618906,7.6820597 16.7067264,8.07626866 16.8000399,8.4438806 C16.8353234,8.58277612 17.046219,8.5419403 17.0669951,8.41620896 C17.1168757,8.11513433 17.2017712,7.82946269 17.3635921,7.56895522 C17.4389951,7.44761194 17.5263981,7.33164179 17.6309951,7.23367164 C17.745622,7.12629851 17.8873831,7.05850746 17.99601,6.9459403 C18.1272936,6.80973134 17.9860697,6.53059701 17.7942488,6.57304478" id="Fill-230" fill="#797B7A"></path>
            <path d="M18.4624876,6.37307463 C18.1975921,6.40047761 18.2398608,6.8120597 18.5051145,6.78456716 C18.7699205,6.75716418 18.7277414,6.34558209 18.4624876,6.37307463" id="Fill-231" fill="#797B7A"></path>
            <path d="M6.8973533,5.60659701 C6.83484583,5.652 6.77305479,5.70008955 6.71233837,5.75077612 C5.38132345,6.86185075 5.1215324,8.92764179 6.01875628,10.393791 C6.30917419,10.8682388 6.73150255,11.2581493 7.21866673,11.5266269 C8.38024882,12.1667463 9.9134727,12.0575821 10.972607,11.2592239 C12.0316518,10.4608657 12.5589354,9.01710448 12.263413,7.72414925 C11.7162488,5.33023881 8.87403986,4.17071642 6.8973533,5.60659701" id="Fill-232" fill="#EB8D30"></path>
            <path d="M7.20944285,6.04683582 C7.15651748,6.08525373 7.10439807,6.12591045 7.05299509,6.16880597 C5.92786076,7.10802985 5.70818912,8.85438806 6.46669658,10.0938806 C6.71224882,10.4949851 7.06920404,10.8245373 7.48105479,11.0514627 C8.46299509,11.5926269 9.75917419,11.5003881 10.6545175,10.8254328 C11.5498608,10.1505672 11.9955623,8.92997015 11.7458011,7.83698507 C11.2832637,5.81328358 8.88048762,4.83304478 7.20944285,6.04683582" id="Fill-233" fill="#DC3F39"></path>
            <path d="M7.3636518,6.26444776 C7.31556225,6.29937313 7.26809956,6.33644776 7.22144285,6.37540299 C6.19795031,7.22973134 5.99815927,8.81820896 6.68815927,9.94567164 C6.911413,10.3104179 7.23612942,10.6102388 7.61072643,10.8166567 C8.50392046,11.3089254 9.68287568,11.2249254 10.4973533,10.6110448 C11.3117414,9.99716418 11.7171443,8.88698507 11.4899503,7.89268657 C11.0692339,6.0519403 8.88371151,5.16035821 7.3636518,6.26444776" id="Fill-234" fill="#3B3A39"></path>
            <path d="M7.65326374,6.40549254 C7.61574136,6.43280597 7.57866673,6.46155224 7.54230852,6.492 C6.74403986,7.15835821 6.58821897,8.39731343 7.12633837,9.27662687 C7.30042792,9.56113433 7.55377121,9.79495522 7.84589061,9.95597015 C8.54260703,10.3399701 9.46212942,10.2744179 10.0973234,9.79558209 C10.7325175,9.31683582 11.0486369,8.45095522 10.871413,7.67552239 C10.5432936,6.23973134 8.83875628,5.54435821 7.65326374,6.40549254" id="Fill-235" fill="#515251"></path>
            <path d="M8.28792046,6.57304478 C7.92272643,6.65373134 7.60821897,7.02940299 7.43699509,7.34641791 C7.25556225,7.6820597 7.20048762,8.07626866 7.29371151,8.4438806 C7.32899509,8.58277612 7.53989061,8.5419403 7.56075628,8.41620896 C7.61054733,8.11513433 7.6955324,7.82946269 7.8573533,7.56895522 C7.93266673,7.44761194 8.02015927,7.33164179 8.12475628,7.23367164 C8.23929359,7.12629851 8.38105479,7.05850746 8.48968165,6.9459403 C8.62105479,6.80973134 8.47983091,6.53059701 8.28792046,6.57304478" id="Fill-236" fill="#797B7A"></path>
            <path d="M8.95615927,6.37307463 C8.6913533,6.40047761 8.7335324,6.8120597 8.99878613,6.78456716 C9.2635921,6.75716418 9.22150255,6.34558209 8.95615927,6.37307463" id="Fill-237" fill="#797B7A"></path>
            <path d="M14.7158906,12.3603582 C14.7090846,11.8626269 14.4069354,11.361403 13.8800996,11.1987761 C12.8043981,10.8668955 11.8465473,12.1455224 12.4927563,13.0766866 C12.8513234,13.5933134 13.5436518,13.8099403 14.1111443,13.4929254 C14.5231742,13.2627761 14.7791145,12.7964776 14.7158906,12.3603582" id="Fill-238" fill="#DC3F39"></path>
            <path d="M23.5078608,28.7415224 C23.621413,28.7155522 21.1214727,18.2627463 20.7190249,17.3043582 C22.6581891,16.1414328 24.2815025,14.6158209 25.4682488,12.6743284 C26.26401,14.9000597 26.2364279,17.327194 26.1137414,19.6877015 C25.9633831,22.5809552 25.6844279,25.467403 25.2780399,28.3358507 C24.6879802,28.4710746 24.0979205,28.6062985 23.5078608,28.7415224" id="Fill-239" fill="#EB8D30"></path>
            <path d="M3.49401001,28.7415224 C3.38045777,28.7155522 5.88039807,18.2627463 6.28293539,17.3043582 C4.34368165,16.1414328 2.72036822,14.6158209 1.53362195,12.6743284 C0.737860759,14.9000597 0.765442848,17.327194 0.888039863,19.6877015 C1.03848762,22.5809552 1.3173533,25.467403 1.72383091,28.3358507 C2.31389061,28.4710746 2.90395031,28.6062985 3.49401001,28.7415224" id="Fill-240" fill="#EB8D30"></path>
            <path d="M8.84081598,2.43304478 C8.74060703,2.34107463 8.61738315,2.28304478 8.47866673,2.28304478 C8.34738315,2.28304478 8.20938315,2.3401791 8.11660703,2.43304478 C8.02777121,2.5218806 7.96078613,2.66758209 7.96651748,2.79519403 C7.97242792,2.92764179 8.01595031,3.06501493 8.11660703,3.15734328 C8.21672643,3.24931343 8.33986076,3.30734328 8.47866673,3.30734328 C8.60995031,3.30734328 8.74786076,3.25020896 8.84081598,3.15734328 C8.9296518,3.06850746 8.99645777,2.92271642 8.99081598,2.79519403 C8.98481598,2.66274627 8.94138315,2.52537313 8.84081598,2.43304478" id="Fill-241" fill="#FBD77E"></path>
            <path d="M11.3305473,1.26644776 C11.2241593,1.16883582 11.093413,1.10722388 10.9460996,1.10722388 C10.8066667,1.10722388 10.6602488,1.16785075 10.5616518,1.26644776 C10.4673533,1.36074627 10.3963384,1.51549254 10.4024279,1.65089552 C10.4086966,1.79149254 10.4549055,1.93737313 10.5616518,2.03534328 C10.6680399,2.13295522 10.7987861,2.19456716 10.9460996,2.19456716 C11.0855324,2.19456716 11.2319503,2.1339403 11.3305473,2.03534328 C11.4248458,1.94104478 11.4958608,1.78629851 11.4897712,1.65089552 C11.4835025,1.51029851 11.4372936,1.36441791 11.3305473,1.26644776" id="Fill-242" fill="#FBD77E"></path>
            <path d="M14.7149055,0.917104478 C14.5917712,0.804 14.4403384,0.732716418 14.2697414,0.732716418 C14.1082787,0.732716418 13.9386667,0.802925373 13.8244876,0.917104478 C13.7630548,0.974149254 13.7197115,1.04167164 13.6942787,1.11976119 C13.6547861,1.19480597 13.6367861,1.27567164 13.64001,1.36235821 C13.6473533,1.52516418 13.700816,1.69414925 13.8244876,1.80761194 C13.947622,1.92071642 14.0990548,1.992 14.2697414,1.992 C14.4311145,1.992 14.6007264,1.92179104 14.7149055,1.80761194 C14.7763384,1.75056716 14.8197712,1.68304478 14.8451145,1.60495522 C14.8845175,1.52991045 14.9026966,1.44904478 14.8993831,1.36235821 C14.8920399,1.19955224 14.8385772,1.03056716 14.7149055,0.917104478" id="Fill-243" fill="#FBD77E"></path>
            <path d="M17.8387563,1.84110448 C17.7332637,1.74438806 17.6037712,1.68331343 17.4578011,1.68331343 C17.319622,1.68331343 17.1745473,1.74340299 17.0768458,1.84110448 C16.9834428,1.93459701 16.9130548,2.0878209 16.9190548,2.2220597 C16.9252339,2.36140299 16.9710846,2.50585075 17.0768458,2.60301493 C17.1822488,2.69973134 17.3118309,2.76080597 17.4578011,2.76080597 C17.5958906,2.76080597 17.7410548,2.70062687 17.8387563,2.60301493 C17.9321593,2.50952239 18.0025473,2.35629851 17.9964578,2.2220597 C17.9902787,2.08271642 17.9444279,1.93826866 17.8387563,1.84110448" id="Fill-244" fill="#FBD77E"></path>
            <path d="M20.2167264,3.59444776 C20.1075623,3.49414925 19.9732339,3.43092537 19.8219802,3.43092537 C19.6788757,3.43092537 19.5284279,3.49325373 19.4272339,3.59444776 C19.3303384,3.69125373 19.2573533,3.8501194 19.263622,3.98928358 C19.2700697,4.13364179 19.3175324,4.28337313 19.4272339,4.38402985 C19.5363981,4.48423881 19.6707264,4.54755224 19.8219802,4.54755224 C19.9650846,4.54755224 20.1154428,4.48522388 20.2167264,4.38402985 C20.3135324,4.28713433 20.3865175,4.12826866 20.3802488,3.98928358 C20.3738011,3.84483582 20.3263384,3.69510448 20.2167264,3.59444776" id="Fill-245" fill="#FBD77E"></path>
            <path d="M6.57102494,12.9485373 C6.43992046,12.9908955 6.32627867,13.0700597 6.2553533,13.1912239 C6.16212942,13.3505373 6.15595031,13.5658209 6.2553533,13.7245075 C6.32968165,13.8430746 6.43598016,13.9300299 6.57102494,13.9672836 C6.90209956,14.0584478 7.23980106,13.8009851 7.23980106,13.4578209 C7.23980106,13.1270149 6.90075628,12.841791 6.57102494,12.9485373" id="Fill-246" fill="#FBD77E"></path>
            <path d="M8.36815927,14.9267463 C8.35705479,14.9224478 8.34586076,14.9182388 8.33475628,14.9139403 C7.54105479,14.6109851 7.53568165,16.1754627 8.33475628,15.8704478 C8.34586076,15.8662388 8.35705479,15.8619403 8.36815927,15.8577313 C8.82433837,15.6835522 8.82505479,15.1011045 8.36815927,14.9267463" id="Fill-247" fill="#FBD77E"></path>
            <path d="M11.0141593,17.1552537 C10.8812637,17.0238806 10.6800399,16.9878806 10.5097115,17.059791 C10.4337712,17.0918507 10.3753831,17.136806 10.3249652,17.202 C10.2647861,17.2799104 10.2213533,17.3806567 10.2258309,17.4817612 C10.2330846,17.6427761 10.312607,17.7974328 10.4546369,17.8804478 C10.632219,17.9844179 10.8684578,17.9522687 11.0141593,17.8082687 C11.0978906,17.7254328 11.1649652,17.6034627 11.1595025,17.4817612 C11.1538608,17.3551343 11.1037115,17.2438209 11.0141593,17.1552537" id="Fill-248" fill="#FBD77E"></path>
            <path d="M14.3991443,17.8299403 C14.3072637,17.7454925 14.1940697,17.692209 14.0667264,17.692209 C13.9461891,17.692209 13.8195623,17.7446866 13.7343085,17.8299403 C13.6527264,17.9114328 13.5912936,18.0452239 13.5965772,18.1623582 C13.6020399,18.2839701 13.6419802,18.4100597 13.7343085,18.4948657 C13.8262787,18.5792239 13.9393831,18.6325075 14.0667264,18.6325075 C14.1872637,18.6325075 14.3138906,18.5800299 14.3991443,18.4948657 C14.4807264,18.4132836 14.5421593,18.2794925 14.5368757,18.1623582 C14.531413,18.0407463 14.4914727,17.9146567 14.3991443,17.8299403" id="Fill-249" fill="#FBD77E"></path>
            <path d="M17.0984279,17.0056119 C16.4857115,17.0056119 16.4847264,17.9579104 17.0984279,17.9579104 C17.7111443,17.9579104 17.712219,17.0056119 17.0984279,17.0056119" id="Fill-250" fill="#FBD77E"></path>
            <path d="M19.7168458,15.1710448 L19.7126369,15.1594925 C19.6670548,15.0341194 19.593622,14.9094627 19.4703085,14.8442687 C19.345204,14.7781791 19.2030846,14.7517612 19.0639205,14.7911642 C19.0603384,14.7921493 19.0566667,14.7931343 19.0530846,14.794209 C18.9646966,14.819194 18.882219,14.8712239 18.8149652,14.9330149 C18.7623981,14.9818209 18.7251443,15.0397612 18.7033831,15.1066567 C18.6789354,15.1487463 18.6667563,15.1941493 18.6665772,15.2427761 C18.6536817,15.290597 18.6536817,15.3384179 18.6665772,15.3862388 C18.6667563,15.4349552 18.6789354,15.4803582 18.7033831,15.5224478 C18.7471742,15.6260597 18.8218608,15.7264478 18.924219,15.7805373 C19.0929354,15.8696418 19.3009652,15.8787761 19.4689652,15.7805373 C19.5704279,15.7210746 19.6445772,15.6294627 19.6897115,15.5224478 C19.7336817,15.4182985 19.7570548,15.2811045 19.7168458,15.1710448" id="Fill-251" fill="#FBD77E"></path>
            <path d="M20.896607,12.2774328 L20.859622,12.2774328 C20.308607,12.2774328 20.3077115,13.1338209 20.859622,13.1338209 L20.896607,13.1338209 C21.4475324,13.1338209 21.4485175,12.2774328 20.896607,12.2774328" id="Fill-252" fill="#FBD77E"></path>
        </g>
    </g>
</svg>